<mxfile host="app.diagrams.net" agent="Mozilla/5.0 (Macintosh; Intel Mac OS X 10_15_7) AppleWebKit/537.36 (KHTML, like Gecko) Chrome/132.0.0.0 Safari/537.36" version="26.0.11" pages="4">
  <diagram id="4272RPaGkaUyrDDjrkst" name="rl-arc">
    <mxGraphModel dx="465" dy="284" grid="1" gridSize="10" guides="1" tooltips="1" connect="1" arrows="1" fold="1" page="1" pageScale="1" pageWidth="850" pageHeight="1100" math="1" shadow="0">
      <root>
        <mxCell id="0" />
        <mxCell id="1" parent="0" />
        <mxCell id="2o_N6vc0h0hXJFCRXrgt-1" value="&lt;b&gt;&lt;font style=&quot;font-size: 16px;&quot;&gt;Governance Agent&lt;/font&gt;&lt;/b&gt;" style="rounded=0;whiteSpace=wrap;html=1;strokeWidth=1;fillColor=#dae8fc;strokeColor=#6C8EBF;dashed=1;align=left;verticalAlign=top;spacingTop=-7;spacing=2;" parent="1" vertex="1">
          <mxGeometry x="110" y="110" width="340" height="190" as="geometry" />
        </mxCell>
        <mxCell id="2o_N6vc0h0hXJFCRXrgt-158" value="&lt;font style=&quot;font-size: 16px;&quot;&gt;Governance Policy &lt;b&gt;&lt;i&gt;\(\pi\)&lt;/i&gt;&lt;/b&gt;&lt;br&gt;&lt;/font&gt;" style="text;html=1;resizable=0;points=[];autosize=1;align=center;verticalAlign=top;spacingTop=-4;" parent="1" vertex="1">
          <mxGeometry x="100" y="259" width="200" height="30" as="geometry" />
        </mxCell>
        <mxCell id="2o_N6vc0h0hXJFCRXrgt-160" value="" style="endArrow=classic;html=1;fontSize=10;exitX=0.5;exitY=1;exitDx=0;exitDy=0;strokeWidth=2;" parent="1" source="2o_N6vc0h0hXJFCRXrgt-2" edge="1">
          <mxGeometry width="50" height="50" relative="1" as="geometry">
            <mxPoint x="60" y="410" as="sourcePoint" />
            <mxPoint x="135" y="200" as="targetPoint" />
            <Array as="points">
              <mxPoint x="580" y="310" />
              <mxPoint x="120" y="310" />
              <mxPoint x="120" y="200" />
            </Array>
          </mxGeometry>
        </mxCell>
        <mxCell id="2o_N6vc0h0hXJFCRXrgt-167" value="&lt;font style=&quot;font-size: 16px;&quot;&gt;Reward \(r\)&amp;nbsp;(in the training phase)&lt;/font&gt;" style="text;html=1;resizable=0;points=[];autosize=1;align=center;verticalAlign=top;spacingTop=-4;fontSize=10;" parent="1" vertex="1">
          <mxGeometry x="330" y="66" width="270" height="30" as="geometry" />
        </mxCell>
        <mxCell id="2o_N6vc0h0hXJFCRXrgt-168" value="&lt;font style=&quot;font-size: 16px;&quot;&gt;State \(\mathbb{S}\)&lt;br&gt;&lt;/font&gt;" style="text;html=1;resizable=0;points=[];autosize=1;align=left;verticalAlign=top;spacingTop=-4;" parent="1" vertex="1">
          <mxGeometry x="328" y="310" width="160" height="30" as="geometry" />
        </mxCell>
        <mxCell id="2o_N6vc0h0hXJFCRXrgt-2" value="&lt;b style=&quot;text-wrap-mode: nowrap; font-size: 16px;&quot;&gt;DeFi Environment&lt;/b&gt;" style="rounded=0;whiteSpace=wrap;html=1;strokeWidth=3;fillColor=#E6E6E6;align=left;verticalAlign=top;fontColor=default;labelBackgroundColor=none;strokeColor=none;spacingTop=-7;" parent="1" vertex="1">
          <mxGeometry x="477" y="110" width="213" height="190" as="geometry" />
        </mxCell>
        <mxCell id="2o_N6vc0h0hXJFCRXrgt-135" value="" style="curved=1;endArrow=none;html=1;fontSize=10;endFill=0;" parent="1" edge="1">
          <mxGeometry width="50" height="50" relative="1" as="geometry">
            <mxPoint x="263" y="220" as="sourcePoint" />
            <mxPoint x="263" y="180" as="targetPoint" />
            <Array as="points">
              <mxPoint x="263" y="210" />
              <mxPoint x="276" y="200" />
              <mxPoint x="263" y="190" />
            </Array>
          </mxGeometry>
        </mxCell>
        <mxCell id="2o_N6vc0h0hXJFCRXrgt-128" value="" style="endArrow=none;html=1;fontSize=10;entryX=1;entryY=0.5;entryDx=0;entryDy=0;exitX=0;exitY=0.5;exitDx=0;exitDy=0;" parent="1" source="2o_N6vc0h0hXJFCRXrgt-12" edge="1">
          <mxGeometry width="50" height="50" relative="1" as="geometry">
            <mxPoint x="56" y="338" as="sourcePoint" />
            <mxPoint x="135.9999999999999" y="199.25" as="targetPoint" />
          </mxGeometry>
        </mxCell>
        <mxCell id="2o_N6vc0h0hXJFCRXrgt-129" value="" style="endArrow=none;html=1;fontSize=10;entryX=1;entryY=0.5;entryDx=0;entryDy=0;exitX=0;exitY=0.5;exitDx=0;exitDy=0;" parent="1" source="2o_N6vc0h0hXJFCRXrgt-13" edge="1">
          <mxGeometry width="50" height="50" relative="1" as="geometry">
            <mxPoint x="156.99999999999955" y="183" as="sourcePoint" />
            <mxPoint x="135.9999999999999" y="199.25" as="targetPoint" />
          </mxGeometry>
        </mxCell>
        <mxCell id="2o_N6vc0h0hXJFCRXrgt-17" value="..." style="text;html=1;resizable=0;points=[];autosize=1;align=left;verticalAlign=top;spacingTop=-4;rotation=-90;" parent="1" vertex="1">
          <mxGeometry x="136" y="182" width="30" height="20" as="geometry" />
        </mxCell>
        <mxCell id="2o_N6vc0h0hXJFCRXrgt-12" value="" style="ellipse;whiteSpace=wrap;html=1;aspect=fixed;" parent="1" vertex="1">
          <mxGeometry x="147" y="159" width="14" height="14" as="geometry" />
        </mxCell>
        <mxCell id="2o_N6vc0h0hXJFCRXrgt-13" value="" style="ellipse;whiteSpace=wrap;html=1;aspect=fixed;" parent="1" vertex="1">
          <mxGeometry x="147" y="177" width="14" height="14" as="geometry" />
        </mxCell>
        <mxCell id="2o_N6vc0h0hXJFCRXrgt-19" value="" style="ellipse;whiteSpace=wrap;html=1;aspect=fixed;" parent="1" vertex="1">
          <mxGeometry x="179" y="159" width="14" height="14" as="geometry" />
        </mxCell>
        <mxCell id="2o_N6vc0h0hXJFCRXrgt-20" value="" style="ellipse;whiteSpace=wrap;html=1;aspect=fixed;" parent="1" vertex="1">
          <mxGeometry x="179" y="177" width="14" height="14" as="geometry" />
        </mxCell>
        <mxCell id="2o_N6vc0h0hXJFCRXrgt-22" value="" style="ellipse;whiteSpace=wrap;html=1;aspect=fixed;" parent="1" vertex="1">
          <mxGeometry x="179" y="209" width="14" height="14" as="geometry" />
        </mxCell>
        <mxCell id="2o_N6vc0h0hXJFCRXrgt-37" value="" style="endArrow=none;html=1;entryX=1;entryY=0.5;entryDx=0;entryDy=0;exitX=0;exitY=0.5;exitDx=0;exitDy=0;fontSize=10;" parent="1" source="2o_N6vc0h0hXJFCRXrgt-19" target="2o_N6vc0h0hXJFCRXrgt-12" edge="1">
          <mxGeometry width="50" height="50" relative="1" as="geometry">
            <mxPoint x="237.00000000000114" y="343" as="sourcePoint" />
            <mxPoint x="221.00000000000364" y="334" as="targetPoint" />
          </mxGeometry>
        </mxCell>
        <mxCell id="2o_N6vc0h0hXJFCRXrgt-38" value="" style="endArrow=none;html=1;entryX=1;entryY=0.5;entryDx=0;entryDy=0;exitX=0;exitY=0.5;exitDx=0;exitDy=0;fontSize=10;" parent="1" source="2o_N6vc0h0hXJFCRXrgt-20" target="2o_N6vc0h0hXJFCRXrgt-12" edge="1">
          <mxGeometry width="50" height="50" relative="1" as="geometry">
            <mxPoint x="261" y="256.5" as="sourcePoint" />
            <mxPoint x="231.00000000000364" y="344" as="targetPoint" />
          </mxGeometry>
        </mxCell>
        <mxCell id="2o_N6vc0h0hXJFCRXrgt-39" value="" style="endArrow=none;html=1;exitX=0;exitY=0.5;exitDx=0;exitDy=0;entryX=1;entryY=0.5;entryDx=0;entryDy=0;fontSize=10;" parent="1" source="2o_N6vc0h0hXJFCRXrgt-22" target="2o_N6vc0h0hXJFCRXrgt-12" edge="1">
          <mxGeometry width="50" height="50" relative="1" as="geometry">
            <mxPoint x="187.00000000000114" y="194" as="sourcePoint" />
            <mxPoint x="241" y="206.5" as="targetPoint" />
          </mxGeometry>
        </mxCell>
        <mxCell id="2o_N6vc0h0hXJFCRXrgt-40" value="" style="endArrow=none;html=1;exitX=0;exitY=0.5;exitDx=0;exitDy=0;entryX=1;entryY=0.5;entryDx=0;entryDy=0;fontSize=10;" parent="1" source="2o_N6vc0h0hXJFCRXrgt-19" target="2o_N6vc0h0hXJFCRXrgt-13" edge="1">
          <mxGeometry width="50" height="50" relative="1" as="geometry">
            <mxPoint x="197.00000000000114" y="204" as="sourcePoint" />
            <mxPoint x="221" y="193.5" as="targetPoint" />
          </mxGeometry>
        </mxCell>
        <mxCell id="2o_N6vc0h0hXJFCRXrgt-41" value="" style="endArrow=none;html=1;entryX=1;entryY=0.5;entryDx=0;entryDy=0;exitX=0;exitY=0.5;exitDx=0;exitDy=0;fontSize=10;" parent="1" source="2o_N6vc0h0hXJFCRXrgt-20" target="2o_N6vc0h0hXJFCRXrgt-13" edge="1">
          <mxGeometry width="50" height="50" relative="1" as="geometry">
            <mxPoint x="207.00000000000114" y="214" as="sourcePoint" />
            <mxPoint x="191.00000000000364" y="203" as="targetPoint" />
          </mxGeometry>
        </mxCell>
        <mxCell id="2o_N6vc0h0hXJFCRXrgt-42" value="" style="endArrow=none;html=1;entryX=1;entryY=0.5;entryDx=0;entryDy=0;exitX=0;exitY=0.5;exitDx=0;exitDy=0;fontSize=10;" parent="1" source="2o_N6vc0h0hXJFCRXrgt-22" target="2o_N6vc0h0hXJFCRXrgt-13" edge="1">
          <mxGeometry width="50" height="50" relative="1" as="geometry">
            <mxPoint x="217.00000000000114" y="224" as="sourcePoint" />
            <mxPoint x="201.00000000000364" y="213" as="targetPoint" />
          </mxGeometry>
        </mxCell>
        <mxCell id="2o_N6vc0h0hXJFCRXrgt-47" value="" style="ellipse;whiteSpace=wrap;html=1;aspect=fixed;" parent="1" vertex="1">
          <mxGeometry x="211" y="159" width="14" height="14" as="geometry" />
        </mxCell>
        <mxCell id="2o_N6vc0h0hXJFCRXrgt-48" value="" style="ellipse;whiteSpace=wrap;html=1;aspect=fixed;" parent="1" vertex="1">
          <mxGeometry x="211" y="177" width="14" height="14" as="geometry" />
        </mxCell>
        <mxCell id="2o_N6vc0h0hXJFCRXrgt-66" value="" style="endArrow=none;html=1;entryX=1;entryY=0.5;entryDx=0;entryDy=0;exitX=0;exitY=0.5;exitDx=0;exitDy=0;" parent="1" source="2o_N6vc0h0hXJFCRXrgt-48" target="2o_N6vc0h0hXJFCRXrgt-22" edge="1">
          <mxGeometry width="50" height="50" relative="1" as="geometry">
            <mxPoint x="327.00000000000114" y="321" as="sourcePoint" />
            <mxPoint x="311.00000000000364" y="278" as="targetPoint" />
          </mxGeometry>
        </mxCell>
        <mxCell id="2o_N6vc0h0hXJFCRXrgt-67" value="" style="endArrow=none;html=1;entryX=1;entryY=0.5;entryDx=0;entryDy=0;exitX=0;exitY=0.5;exitDx=0;exitDy=0;" parent="1" source="2o_N6vc0h0hXJFCRXrgt-47" target="2o_N6vc0h0hXJFCRXrgt-22" edge="1">
          <mxGeometry width="50" height="50" relative="1" as="geometry">
            <mxPoint x="337.00000000000114" y="331" as="sourcePoint" />
            <mxPoint x="321.00000000000364" y="288" as="targetPoint" />
          </mxGeometry>
        </mxCell>
        <mxCell id="2o_N6vc0h0hXJFCRXrgt-68" value="" style="endArrow=none;html=1;entryX=1;entryY=0.5;entryDx=0;entryDy=0;exitX=0;exitY=0.5;exitDx=0;exitDy=0;" parent="1" source="2o_N6vc0h0hXJFCRXrgt-47" target="2o_N6vc0h0hXJFCRXrgt-19" edge="1">
          <mxGeometry width="50" height="50" relative="1" as="geometry">
            <mxPoint x="347.00000000000114" y="341" as="sourcePoint" />
            <mxPoint x="331.00000000000364" y="298" as="targetPoint" />
          </mxGeometry>
        </mxCell>
        <mxCell id="2o_N6vc0h0hXJFCRXrgt-69" value="" style="endArrow=none;html=1;entryX=1;entryY=0.5;entryDx=0;entryDy=0;exitX=0;exitY=0.5;exitDx=0;exitDy=0;" parent="1" source="2o_N6vc0h0hXJFCRXrgt-48" target="2o_N6vc0h0hXJFCRXrgt-19" edge="1">
          <mxGeometry width="50" height="50" relative="1" as="geometry">
            <mxPoint x="357.00000000000114" y="351" as="sourcePoint" />
            <mxPoint x="341.00000000000364" y="308" as="targetPoint" />
          </mxGeometry>
        </mxCell>
        <mxCell id="2o_N6vc0h0hXJFCRXrgt-72" value="" style="endArrow=none;html=1;entryX=1;entryY=0.5;entryDx=0;entryDy=0;exitX=0;exitY=0.5;exitDx=0;exitDy=0;" parent="1" source="2o_N6vc0h0hXJFCRXrgt-47" target="2o_N6vc0h0hXJFCRXrgt-20" edge="1">
          <mxGeometry width="50" height="50" relative="1" as="geometry">
            <mxPoint x="237.00000000000125" y="214" as="sourcePoint" />
            <mxPoint x="220.99999999999886" y="195.9999999999999" as="targetPoint" />
          </mxGeometry>
        </mxCell>
        <mxCell id="2o_N6vc0h0hXJFCRXrgt-73" value="" style="endArrow=none;html=1;entryX=1;entryY=0.5;entryDx=0;entryDy=0;exitX=0;exitY=0.5;exitDx=0;exitDy=0;" parent="1" source="2o_N6vc0h0hXJFCRXrgt-48" target="2o_N6vc0h0hXJFCRXrgt-20" edge="1">
          <mxGeometry width="50" height="50" relative="1" as="geometry">
            <mxPoint x="247.00000000000125" y="224" as="sourcePoint" />
            <mxPoint x="230.99999999999886" y="205.9999999999999" as="targetPoint" />
          </mxGeometry>
        </mxCell>
        <mxCell id="2o_N6vc0h0hXJFCRXrgt-109" value="" style="endArrow=none;html=1;fontSize=10;entryX=1;entryY=0.5;entryDx=0;entryDy=0;exitX=0;exitY=0.5;exitDx=0;exitDy=0;" parent="1" edge="1">
          <mxGeometry width="50" height="50" relative="1" as="geometry">
            <mxPoint x="285.9999999999993" y="181.5" as="sourcePoint" />
            <mxPoint x="342" y="176.5" as="targetPoint" />
          </mxGeometry>
        </mxCell>
        <mxCell id="ho-afcCtaLFZiFDd-naJ-169" value="" style="ellipse;whiteSpace=wrap;html=1;aspect=fixed;" parent="1" vertex="1">
          <mxGeometry x="179" y="141" width="14" height="14" as="geometry" />
        </mxCell>
        <mxCell id="ho-afcCtaLFZiFDd-naJ-170" value="" style="ellipse;whiteSpace=wrap;html=1;aspect=fixed;" parent="1" vertex="1">
          <mxGeometry x="179" y="227" width="14" height="14" as="geometry" />
        </mxCell>
        <mxCell id="ho-afcCtaLFZiFDd-naJ-171" value="" style="ellipse;whiteSpace=wrap;html=1;aspect=fixed;" parent="1" vertex="1">
          <mxGeometry x="179" y="245" width="14" height="14" as="geometry" />
        </mxCell>
        <mxCell id="ho-afcCtaLFZiFDd-naJ-172" value="" style="ellipse;whiteSpace=wrap;html=1;aspect=fixed;" parent="1" vertex="1">
          <mxGeometry x="211" y="141" width="14" height="14" as="geometry" />
        </mxCell>
        <mxCell id="ho-afcCtaLFZiFDd-naJ-173" value="" style="ellipse;whiteSpace=wrap;html=1;aspect=fixed;" parent="1" vertex="1">
          <mxGeometry x="211" y="209" width="14" height="14" as="geometry" />
        </mxCell>
        <mxCell id="ho-afcCtaLFZiFDd-naJ-174" value="" style="ellipse;whiteSpace=wrap;html=1;aspect=fixed;" parent="1" vertex="1">
          <mxGeometry x="211" y="227" width="14" height="14" as="geometry" />
        </mxCell>
        <mxCell id="ho-afcCtaLFZiFDd-naJ-175" value="" style="ellipse;whiteSpace=wrap;html=1;aspect=fixed;" parent="1" vertex="1">
          <mxGeometry x="211" y="245" width="14" height="14" as="geometry" />
        </mxCell>
        <mxCell id="ho-afcCtaLFZiFDd-naJ-176" value="" style="ellipse;whiteSpace=wrap;html=1;aspect=fixed;" parent="1" vertex="1">
          <mxGeometry x="147" y="209" width="14" height="14" as="geometry" />
        </mxCell>
        <mxCell id="ho-afcCtaLFZiFDd-naJ-177" value="" style="ellipse;whiteSpace=wrap;html=1;aspect=fixed;" parent="1" vertex="1">
          <mxGeometry x="147" y="227" width="14" height="14" as="geometry" />
        </mxCell>
        <mxCell id="ho-afcCtaLFZiFDd-naJ-180" value="" style="endArrow=none;html=1;exitX=0;exitY=0.5;exitDx=0;exitDy=0;entryX=1;entryY=0.5;entryDx=0;entryDy=0;" parent="1" source="ho-afcCtaLFZiFDd-naJ-178" target="2o_N6vc0h0hXJFCRXrgt-48" edge="1">
          <mxGeometry width="50" height="50" relative="1" as="geometry">
            <mxPoint x="239" y="173" as="sourcePoint" />
            <mxPoint x="225" y="167" as="targetPoint" />
          </mxGeometry>
        </mxCell>
        <mxCell id="ho-afcCtaLFZiFDd-naJ-178" value="" style="ellipse;whiteSpace=wrap;html=1;aspect=fixed;" parent="1" vertex="1">
          <mxGeometry x="243" y="177" width="14" height="14" as="geometry" />
        </mxCell>
        <mxCell id="ho-afcCtaLFZiFDd-naJ-181" value="" style="ellipse;whiteSpace=wrap;html=1;aspect=fixed;" parent="1" vertex="1">
          <mxGeometry x="243" y="209" width="14" height="14" as="geometry" />
        </mxCell>
        <mxCell id="ho-afcCtaLFZiFDd-naJ-184" value="" style="endArrow=none;html=1;entryX=1;entryY=0.5;entryDx=0;entryDy=0;exitX=0;exitY=0.5;exitDx=0;exitDy=0;" parent="1" source="ho-afcCtaLFZiFDd-naJ-178" target="2o_N6vc0h0hXJFCRXrgt-47" edge="1">
          <mxGeometry width="50" height="50" relative="1" as="geometry">
            <mxPoint x="259" y="170" as="sourcePoint" />
            <mxPoint x="235.0000000000034" y="194.00000000000023" as="targetPoint" />
          </mxGeometry>
        </mxCell>
        <mxCell id="ho-afcCtaLFZiFDd-naJ-185" value="" style="endArrow=none;html=1;entryX=1;entryY=0.5;entryDx=0;entryDy=0;exitX=0;exitY=0.5;exitDx=0;exitDy=0;" parent="1" source="ho-afcCtaLFZiFDd-naJ-178" target="ho-afcCtaLFZiFDd-naJ-172" edge="1">
          <mxGeometry width="50" height="50" relative="1" as="geometry">
            <mxPoint x="253.00000000000068" y="194" as="sourcePoint" />
            <mxPoint x="234.99999999999773" y="175.99999999999977" as="targetPoint" />
          </mxGeometry>
        </mxCell>
        <mxCell id="ho-afcCtaLFZiFDd-naJ-186" value="" style="endArrow=none;html=1;entryX=0;entryY=0.5;entryDx=0;entryDy=0;exitX=1;exitY=0.5;exitDx=0;exitDy=0;" parent="1" source="ho-afcCtaLFZiFDd-naJ-173" target="ho-afcCtaLFZiFDd-naJ-178" edge="1">
          <mxGeometry width="50" height="50" relative="1" as="geometry">
            <mxPoint x="253.00000000000068" y="194" as="sourcePoint" />
            <mxPoint x="234.99999999999773" y="158" as="targetPoint" />
          </mxGeometry>
        </mxCell>
        <mxCell id="ho-afcCtaLFZiFDd-naJ-187" value="" style="endArrow=none;html=1;entryX=0;entryY=0.5;entryDx=0;entryDy=0;exitX=1;exitY=0.5;exitDx=0;exitDy=0;" parent="1" source="ho-afcCtaLFZiFDd-naJ-174" target="ho-afcCtaLFZiFDd-naJ-178" edge="1">
          <mxGeometry width="50" height="50" relative="1" as="geometry">
            <mxPoint x="234.99999999999773" y="226.99999999999977" as="sourcePoint" />
            <mxPoint x="253.00000000000068" y="194" as="targetPoint" />
          </mxGeometry>
        </mxCell>
        <mxCell id="ho-afcCtaLFZiFDd-naJ-188" value="" style="endArrow=none;html=1;entryX=1;entryY=0.5;entryDx=0;entryDy=0;exitX=0;exitY=0.5;exitDx=0;exitDy=0;" parent="1" source="ho-afcCtaLFZiFDd-naJ-181" target="ho-afcCtaLFZiFDd-naJ-172" edge="1">
          <mxGeometry width="50" height="50" relative="1" as="geometry">
            <mxPoint x="234.99999999999864" y="245" as="sourcePoint" />
            <mxPoint x="253.0000000000013" y="194" as="targetPoint" />
          </mxGeometry>
        </mxCell>
        <mxCell id="ho-afcCtaLFZiFDd-naJ-189" value="" style="endArrow=none;html=1;entryX=1;entryY=0.5;entryDx=0;entryDy=0;exitX=0;exitY=0.5;exitDx=0;exitDy=0;" parent="1" source="ho-afcCtaLFZiFDd-naJ-181" target="2o_N6vc0h0hXJFCRXrgt-47" edge="1">
          <mxGeometry width="50" height="50" relative="1" as="geometry">
            <mxPoint x="253.0000000000013" y="226" as="sourcePoint" />
            <mxPoint x="234.99999999999864" y="158" as="targetPoint" />
          </mxGeometry>
        </mxCell>
        <mxCell id="ho-afcCtaLFZiFDd-naJ-190" value="" style="endArrow=none;html=1;entryX=1;entryY=0.5;entryDx=0;entryDy=0;exitX=0;exitY=0.5;exitDx=0;exitDy=0;" parent="1" source="ho-afcCtaLFZiFDd-naJ-181" target="2o_N6vc0h0hXJFCRXrgt-48" edge="1">
          <mxGeometry width="50" height="50" relative="1" as="geometry">
            <mxPoint x="253.00000000000034" y="226" as="sourcePoint" />
            <mxPoint x="234.99999999999966" y="176" as="targetPoint" />
          </mxGeometry>
        </mxCell>
        <mxCell id="ho-afcCtaLFZiFDd-naJ-191" value="" style="endArrow=none;html=1;entryX=1;entryY=0.5;entryDx=0;entryDy=0;exitX=0;exitY=0.5;exitDx=0;exitDy=0;" parent="1" source="ho-afcCtaLFZiFDd-naJ-181" target="ho-afcCtaLFZiFDd-naJ-173" edge="1">
          <mxGeometry width="50" height="50" relative="1" as="geometry">
            <mxPoint x="263.00000000000034" y="236" as="sourcePoint" />
            <mxPoint x="244.99999999999966" y="186" as="targetPoint" />
          </mxGeometry>
        </mxCell>
        <mxCell id="ho-afcCtaLFZiFDd-naJ-192" value="" style="endArrow=none;html=1;entryX=1;entryY=0.5;entryDx=0;entryDy=0;exitX=0;exitY=0.5;exitDx=0;exitDy=0;" parent="1" source="ho-afcCtaLFZiFDd-naJ-181" target="ho-afcCtaLFZiFDd-naJ-174" edge="1">
          <mxGeometry width="50" height="50" relative="1" as="geometry">
            <mxPoint x="253.00000000000034" y="226" as="sourcePoint" />
            <mxPoint x="234.99999999999966" y="227.00000000000023" as="targetPoint" />
          </mxGeometry>
        </mxCell>
        <mxCell id="ho-afcCtaLFZiFDd-naJ-193" value="" style="endArrow=none;html=1;entryX=1;entryY=0.5;entryDx=0;entryDy=0;exitX=0;exitY=0.5;exitDx=0;exitDy=0;" parent="1" source="ho-afcCtaLFZiFDd-naJ-181" target="ho-afcCtaLFZiFDd-naJ-175" edge="1">
          <mxGeometry width="50" height="50" relative="1" as="geometry">
            <mxPoint x="253.00000000000034" y="226" as="sourcePoint" />
            <mxPoint x="234.99999999999966" y="245" as="targetPoint" />
          </mxGeometry>
        </mxCell>
        <mxCell id="ho-afcCtaLFZiFDd-naJ-194" value="" style="endArrow=none;html=1;entryX=1;entryY=0.5;entryDx=0;entryDy=0;exitX=0;exitY=0.5;exitDx=0;exitDy=0;" parent="1" source="ho-afcCtaLFZiFDd-naJ-172" target="ho-afcCtaLFZiFDd-naJ-169" edge="1">
          <mxGeometry width="50" height="50" relative="1" as="geometry">
            <mxPoint x="221.00000000000182" y="194" as="sourcePoint" />
            <mxPoint x="203.0000000000012" y="175.99999999999977" as="targetPoint" />
          </mxGeometry>
        </mxCell>
        <mxCell id="ho-afcCtaLFZiFDd-naJ-195" value="" style="endArrow=none;html=1;entryX=1;entryY=0.5;entryDx=0;entryDy=0;exitX=0;exitY=0.5;exitDx=0;exitDy=0;" parent="1" source="2o_N6vc0h0hXJFCRXrgt-47" target="ho-afcCtaLFZiFDd-naJ-169" edge="1">
          <mxGeometry width="50" height="50" relative="1" as="geometry">
            <mxPoint x="221.00000000000182" y="158" as="sourcePoint" />
            <mxPoint x="203.0000000000012" y="158" as="targetPoint" />
          </mxGeometry>
        </mxCell>
        <mxCell id="ho-afcCtaLFZiFDd-naJ-196" value="" style="endArrow=none;html=1;entryX=1;entryY=0.5;entryDx=0;entryDy=0;exitX=0;exitY=0.5;exitDx=0;exitDy=0;" parent="1" source="ho-afcCtaLFZiFDd-naJ-173" target="2o_N6vc0h0hXJFCRXrgt-19" edge="1">
          <mxGeometry width="50" height="50" relative="1" as="geometry">
            <mxPoint x="221.00000000000182" y="175.99999999999977" as="sourcePoint" />
            <mxPoint x="203.0000000000012" y="158" as="targetPoint" />
          </mxGeometry>
        </mxCell>
        <mxCell id="ho-afcCtaLFZiFDd-naJ-197" value="" style="endArrow=none;html=1;entryX=1;entryY=0.5;entryDx=0;entryDy=0;exitX=0;exitY=0.5;exitDx=0;exitDy=0;" parent="1" source="2o_N6vc0h0hXJFCRXrgt-48" target="ho-afcCtaLFZiFDd-naJ-169" edge="1">
          <mxGeometry width="50" height="50" relative="1" as="geometry">
            <mxPoint x="279" y="170" as="sourcePoint" />
            <mxPoint x="203.0000000000012" y="175.99999999999977" as="targetPoint" />
          </mxGeometry>
        </mxCell>
        <mxCell id="ho-afcCtaLFZiFDd-naJ-198" value="" style="endArrow=none;html=1;entryX=1;entryY=0.5;entryDx=0;entryDy=0;exitX=0;exitY=0.5;exitDx=0;exitDy=0;" parent="1" source="ho-afcCtaLFZiFDd-naJ-173" target="ho-afcCtaLFZiFDd-naJ-169" edge="1">
          <mxGeometry width="50" height="50" relative="1" as="geometry">
            <mxPoint x="220.99999999999858" y="194" as="sourcePoint" />
            <mxPoint x="202.9999999999999" y="158" as="targetPoint" />
          </mxGeometry>
        </mxCell>
        <mxCell id="ho-afcCtaLFZiFDd-naJ-199" value="" style="endArrow=none;html=1;entryX=1;entryY=0.5;entryDx=0;entryDy=0;exitX=0;exitY=0.5;exitDx=0;exitDy=0;" parent="1" source="ho-afcCtaLFZiFDd-naJ-174" target="ho-afcCtaLFZiFDd-naJ-169" edge="1">
          <mxGeometry width="50" height="50" relative="1" as="geometry">
            <mxPoint x="220.99999999999858" y="227" as="sourcePoint" />
            <mxPoint x="202.9999999999999" y="158" as="targetPoint" />
          </mxGeometry>
        </mxCell>
        <mxCell id="ho-afcCtaLFZiFDd-naJ-200" value="" style="endArrow=none;html=1;entryX=1;entryY=0.5;entryDx=0;entryDy=0;exitX=0;exitY=0.5;exitDx=0;exitDy=0;" parent="1" source="ho-afcCtaLFZiFDd-naJ-175" target="ho-afcCtaLFZiFDd-naJ-169" edge="1">
          <mxGeometry width="50" height="50" relative="1" as="geometry">
            <mxPoint x="220.99999999999858" y="245" as="sourcePoint" />
            <mxPoint x="202.9999999999999" y="158" as="targetPoint" />
          </mxGeometry>
        </mxCell>
        <mxCell id="ho-afcCtaLFZiFDd-naJ-201" value="" style="endArrow=none;html=1;entryX=1;entryY=0.5;entryDx=0;entryDy=0;exitX=0;exitY=0.5;exitDx=0;exitDy=0;" parent="1" source="ho-afcCtaLFZiFDd-naJ-172" target="2o_N6vc0h0hXJFCRXrgt-19" edge="1">
          <mxGeometry width="50" height="50" relative="1" as="geometry">
            <mxPoint x="221.0000000000025" y="175.99999999999977" as="sourcePoint" />
            <mxPoint x="202.9999999999976" y="175.99999999999977" as="targetPoint" />
          </mxGeometry>
        </mxCell>
        <mxCell id="ho-afcCtaLFZiFDd-naJ-202" value="" style="endArrow=none;html=1;entryX=1;entryY=0.5;entryDx=0;entryDy=0;exitX=0;exitY=0.5;exitDx=0;exitDy=0;" parent="1" source="ho-afcCtaLFZiFDd-naJ-174" target="2o_N6vc0h0hXJFCRXrgt-19" edge="1">
          <mxGeometry width="50" height="50" relative="1" as="geometry">
            <mxPoint x="219" y="200" as="sourcePoint" />
            <mxPoint x="203.00000000000216" y="176" as="targetPoint" />
          </mxGeometry>
        </mxCell>
        <mxCell id="ho-afcCtaLFZiFDd-naJ-203" value="" style="endArrow=none;html=1;entryX=1;entryY=0.5;entryDx=0;entryDy=0;exitX=0;exitY=0.5;exitDx=0;exitDy=0;" parent="1" source="ho-afcCtaLFZiFDd-naJ-175" target="2o_N6vc0h0hXJFCRXrgt-19" edge="1">
          <mxGeometry width="50" height="50" relative="1" as="geometry">
            <mxPoint x="220.99999999999943" y="158" as="sourcePoint" />
            <mxPoint x="203.00000000000216" y="158" as="targetPoint" />
          </mxGeometry>
        </mxCell>
        <mxCell id="ho-afcCtaLFZiFDd-naJ-204" value="" style="endArrow=none;html=1;entryX=1;entryY=0.5;entryDx=0;entryDy=0;exitX=0;exitY=0.5;exitDx=0;exitDy=0;" parent="1" source="ho-afcCtaLFZiFDd-naJ-172" target="2o_N6vc0h0hXJFCRXrgt-20" edge="1">
          <mxGeometry width="50" height="50" relative="1" as="geometry">
            <mxPoint x="221.00000000000063" y="158" as="sourcePoint" />
            <mxPoint x="203.00000000000085" y="158" as="targetPoint" />
          </mxGeometry>
        </mxCell>
        <mxCell id="ho-afcCtaLFZiFDd-naJ-205" value="" style="endArrow=none;html=1;entryX=1;entryY=0.5;entryDx=0;entryDy=0;exitX=0;exitY=0.5;exitDx=0;exitDy=0;" parent="1" source="ho-afcCtaLFZiFDd-naJ-173" target="2o_N6vc0h0hXJFCRXrgt-20" edge="1">
          <mxGeometry width="50" height="50" relative="1" as="geometry">
            <mxPoint x="221.00000000000063" y="158" as="sourcePoint" />
            <mxPoint x="203.00000000000085" y="194" as="targetPoint" />
          </mxGeometry>
        </mxCell>
        <mxCell id="ho-afcCtaLFZiFDd-naJ-206" value="" style="endArrow=none;html=1;entryX=1;entryY=0.5;entryDx=0;entryDy=0;exitX=0;exitY=0.5;exitDx=0;exitDy=0;" parent="1" source="ho-afcCtaLFZiFDd-naJ-174" target="2o_N6vc0h0hXJFCRXrgt-20" edge="1">
          <mxGeometry width="50" height="50" relative="1" as="geometry">
            <mxPoint x="221.00000000000063" y="227.00000000000023" as="sourcePoint" />
            <mxPoint x="203.00000000000085" y="194" as="targetPoint" />
          </mxGeometry>
        </mxCell>
        <mxCell id="ho-afcCtaLFZiFDd-naJ-207" value="" style="endArrow=none;html=1;entryX=1;entryY=0.5;entryDx=0;entryDy=0;exitX=0;exitY=0.5;exitDx=0;exitDy=0;" parent="1" source="ho-afcCtaLFZiFDd-naJ-175" target="2o_N6vc0h0hXJFCRXrgt-20" edge="1">
          <mxGeometry width="50" height="50" relative="1" as="geometry">
            <mxPoint x="221.00000000000063" y="245.00000000000023" as="sourcePoint" />
            <mxPoint x="203.00000000000085" y="194" as="targetPoint" />
          </mxGeometry>
        </mxCell>
        <mxCell id="ho-afcCtaLFZiFDd-naJ-208" value="" style="endArrow=none;html=1;entryX=1;entryY=0.5;entryDx=0;entryDy=0;exitX=0;exitY=0.5;exitDx=0;exitDy=0;" parent="1" source="ho-afcCtaLFZiFDd-naJ-172" target="2o_N6vc0h0hXJFCRXrgt-22" edge="1">
          <mxGeometry width="50" height="50" relative="1" as="geometry">
            <mxPoint x="221.00000000000142" y="176" as="sourcePoint" />
            <mxPoint x="203.00000000000182" y="226" as="targetPoint" />
          </mxGeometry>
        </mxCell>
        <mxCell id="ho-afcCtaLFZiFDd-naJ-209" value="" style="endArrow=none;html=1;entryX=1;entryY=0.5;entryDx=0;entryDy=0;exitX=0;exitY=0.5;exitDx=0;exitDy=0;" parent="1" source="ho-afcCtaLFZiFDd-naJ-173" target="2o_N6vc0h0hXJFCRXrgt-22" edge="1">
          <mxGeometry width="50" height="50" relative="1" as="geometry">
            <mxPoint x="231.00000000000142" y="186" as="sourcePoint" />
            <mxPoint x="213.00000000000182" y="236" as="targetPoint" />
          </mxGeometry>
        </mxCell>
        <mxCell id="ho-afcCtaLFZiFDd-naJ-210" value="" style="endArrow=none;html=1;entryX=1;entryY=0.5;entryDx=0;entryDy=0;exitX=0;exitY=0.5;exitDx=0;exitDy=0;" parent="1" source="ho-afcCtaLFZiFDd-naJ-174" target="2o_N6vc0h0hXJFCRXrgt-22" edge="1">
          <mxGeometry width="50" height="50" relative="1" as="geometry">
            <mxPoint x="220.99999999999892" y="226.00000000000023" as="sourcePoint" />
            <mxPoint x="203.00000000000222" y="226.00000000000023" as="targetPoint" />
          </mxGeometry>
        </mxCell>
        <mxCell id="ho-afcCtaLFZiFDd-naJ-211" value="" style="endArrow=none;html=1;entryX=1;entryY=0.5;entryDx=0;entryDy=0;exitX=0;exitY=0.5;exitDx=0;exitDy=0;" parent="1" source="ho-afcCtaLFZiFDd-naJ-175" target="2o_N6vc0h0hXJFCRXrgt-22" edge="1">
          <mxGeometry width="50" height="50" relative="1" as="geometry">
            <mxPoint x="220.99999999999892" y="245.00000000000023" as="sourcePoint" />
            <mxPoint x="203.00000000000222" y="226.00000000000023" as="targetPoint" />
          </mxGeometry>
        </mxCell>
        <mxCell id="ho-afcCtaLFZiFDd-naJ-212" value="" style="endArrow=none;html=1;entryX=1;entryY=0.5;entryDx=0;entryDy=0;exitX=0;exitY=0.5;exitDx=0;exitDy=0;" parent="1" source="ho-afcCtaLFZiFDd-naJ-175" target="ho-afcCtaLFZiFDd-naJ-170" edge="1">
          <mxGeometry width="50" height="50" relative="1" as="geometry">
            <mxPoint x="220.99999999999892" y="263" as="sourcePoint" />
            <mxPoint x="203.00000000000222" y="226.00000000000023" as="targetPoint" />
          </mxGeometry>
        </mxCell>
        <mxCell id="ho-afcCtaLFZiFDd-naJ-213" value="" style="endArrow=none;html=1;entryX=1;entryY=0.5;entryDx=0;entryDy=0;exitX=0;exitY=0.5;exitDx=0;exitDy=0;" parent="1" source="ho-afcCtaLFZiFDd-naJ-174" target="ho-afcCtaLFZiFDd-naJ-170" edge="1">
          <mxGeometry width="50" height="50" relative="1" as="geometry">
            <mxPoint x="220.99999999999892" y="263" as="sourcePoint" />
            <mxPoint x="203.00000000000222" y="244.00000000000023" as="targetPoint" />
          </mxGeometry>
        </mxCell>
        <mxCell id="ho-afcCtaLFZiFDd-naJ-214" value="" style="endArrow=none;html=1;entryX=1;entryY=0.5;entryDx=0;entryDy=0;exitX=0;exitY=0.5;exitDx=0;exitDy=0;" parent="1" source="ho-afcCtaLFZiFDd-naJ-173" target="ho-afcCtaLFZiFDd-naJ-170" edge="1">
          <mxGeometry width="50" height="50" relative="1" as="geometry">
            <mxPoint x="220.99999999999892" y="245.00000000000023" as="sourcePoint" />
            <mxPoint x="203.00000000000222" y="244.00000000000023" as="targetPoint" />
          </mxGeometry>
        </mxCell>
        <mxCell id="ho-afcCtaLFZiFDd-naJ-215" value="" style="endArrow=none;html=1;entryX=1;entryY=0.5;entryDx=0;entryDy=0;exitX=0;exitY=0.5;exitDx=0;exitDy=0;" parent="1" source="2o_N6vc0h0hXJFCRXrgt-48" target="ho-afcCtaLFZiFDd-naJ-170" edge="1">
          <mxGeometry width="50" height="50" relative="1" as="geometry">
            <mxPoint x="220.99999999999892" y="244.00000000000023" as="sourcePoint" />
            <mxPoint x="203.00000000000222" y="244.00000000000023" as="targetPoint" />
          </mxGeometry>
        </mxCell>
        <mxCell id="ho-afcCtaLFZiFDd-naJ-216" value="" style="endArrow=none;html=1;entryX=1;entryY=0.5;entryDx=0;entryDy=0;exitX=0;exitY=0.5;exitDx=0;exitDy=0;" parent="1" source="2o_N6vc0h0hXJFCRXrgt-47" target="ho-afcCtaLFZiFDd-naJ-170" edge="1">
          <mxGeometry width="50" height="50" relative="1" as="geometry">
            <mxPoint x="220.99999999999892" y="263" as="sourcePoint" />
            <mxPoint x="203.00000000000222" y="244.00000000000023" as="targetPoint" />
          </mxGeometry>
        </mxCell>
        <mxCell id="ho-afcCtaLFZiFDd-naJ-217" value="" style="endArrow=none;html=1;entryX=1;entryY=0.5;entryDx=0;entryDy=0;exitX=0;exitY=0.5;exitDx=0;exitDy=0;" parent="1" source="ho-afcCtaLFZiFDd-naJ-172" target="ho-afcCtaLFZiFDd-naJ-170" edge="1">
          <mxGeometry width="50" height="50" relative="1" as="geometry">
            <mxPoint x="220.99999999999892" y="176.00000000000023" as="sourcePoint" />
            <mxPoint x="203.00000000000222" y="244.00000000000023" as="targetPoint" />
          </mxGeometry>
        </mxCell>
        <mxCell id="ho-afcCtaLFZiFDd-naJ-218" value="" style="endArrow=none;html=1;entryX=1;entryY=0.5;entryDx=0;entryDy=0;exitX=0;exitY=0.5;exitDx=0;exitDy=0;" parent="1" source="ho-afcCtaLFZiFDd-naJ-175" target="ho-afcCtaLFZiFDd-naJ-171" edge="1">
          <mxGeometry width="50" height="50" relative="1" as="geometry">
            <mxPoint x="220.99999999999892" y="263" as="sourcePoint" />
            <mxPoint x="203.00000000000222" y="244.00000000000023" as="targetPoint" />
          </mxGeometry>
        </mxCell>
        <mxCell id="ho-afcCtaLFZiFDd-naJ-219" value="" style="endArrow=none;html=1;entryX=1;entryY=0.5;entryDx=0;entryDy=0;exitX=0;exitY=0.5;exitDx=0;exitDy=0;" parent="1" source="ho-afcCtaLFZiFDd-naJ-174" target="ho-afcCtaLFZiFDd-naJ-171" edge="1">
          <mxGeometry width="50" height="50" relative="1" as="geometry">
            <mxPoint x="220.99999999999892" y="263" as="sourcePoint" />
            <mxPoint x="203.00000000000222" y="262" as="targetPoint" />
          </mxGeometry>
        </mxCell>
        <mxCell id="ho-afcCtaLFZiFDd-naJ-220" value="" style="endArrow=none;html=1;entryX=1;entryY=0.5;entryDx=0;entryDy=0;exitX=0;exitY=0.5;exitDx=0;exitDy=0;" parent="1" source="ho-afcCtaLFZiFDd-naJ-173" target="ho-afcCtaLFZiFDd-naJ-171" edge="1">
          <mxGeometry width="50" height="50" relative="1" as="geometry">
            <mxPoint x="220.99999999999892" y="244.00000000000023" as="sourcePoint" />
            <mxPoint x="203.00000000000222" y="262" as="targetPoint" />
          </mxGeometry>
        </mxCell>
        <mxCell id="ho-afcCtaLFZiFDd-naJ-221" value="" style="endArrow=none;html=1;entryX=1;entryY=0.5;entryDx=0;entryDy=0;exitX=0;exitY=0.5;exitDx=0;exitDy=0;" parent="1" source="2o_N6vc0h0hXJFCRXrgt-48" target="ho-afcCtaLFZiFDd-naJ-171" edge="1">
          <mxGeometry width="50" height="50" relative="1" as="geometry">
            <mxPoint x="220.99999999999892" y="226.00000000000023" as="sourcePoint" />
            <mxPoint x="203.00000000000222" y="262" as="targetPoint" />
          </mxGeometry>
        </mxCell>
        <mxCell id="ho-afcCtaLFZiFDd-naJ-222" value="" style="endArrow=none;html=1;entryX=1;entryY=0.5;entryDx=0;entryDy=0;exitX=0;exitY=0.5;exitDx=0;exitDy=0;" parent="1" source="2o_N6vc0h0hXJFCRXrgt-47" target="ho-afcCtaLFZiFDd-naJ-171" edge="1">
          <mxGeometry width="50" height="50" relative="1" as="geometry">
            <mxPoint x="220.99999999999892" y="194.00000000000023" as="sourcePoint" />
            <mxPoint x="203.00000000000222" y="262" as="targetPoint" />
          </mxGeometry>
        </mxCell>
        <mxCell id="ho-afcCtaLFZiFDd-naJ-223" value="" style="endArrow=none;html=1;entryX=1;entryY=0.5;entryDx=0;entryDy=0;exitX=0;exitY=0.5;exitDx=0;exitDy=0;" parent="1" source="ho-afcCtaLFZiFDd-naJ-172" target="ho-afcCtaLFZiFDd-naJ-171" edge="1">
          <mxGeometry width="50" height="50" relative="1" as="geometry">
            <mxPoint x="220.99999999999892" y="176.00000000000023" as="sourcePoint" />
            <mxPoint x="203.00000000000222" y="262" as="targetPoint" />
          </mxGeometry>
        </mxCell>
        <mxCell id="ho-afcCtaLFZiFDd-naJ-224" value="" style="endArrow=none;html=1;entryX=1;entryY=0.5;entryDx=0;entryDy=0;exitX=0;exitY=0.5;exitDx=0;exitDy=0;fontSize=10;" parent="1" source="ho-afcCtaLFZiFDd-naJ-169" target="2o_N6vc0h0hXJFCRXrgt-12" edge="1">
          <mxGeometry width="50" height="50" relative="1" as="geometry">
            <mxPoint x="189.0000000000016" y="176" as="sourcePoint" />
            <mxPoint x="171" y="176" as="targetPoint" />
          </mxGeometry>
        </mxCell>
        <mxCell id="ho-afcCtaLFZiFDd-naJ-225" value="" style="endArrow=none;html=1;entryX=1;entryY=0.5;entryDx=0;entryDy=0;exitX=0;exitY=0.5;exitDx=0;exitDy=0;fontSize=10;" parent="1" source="ho-afcCtaLFZiFDd-naJ-170" target="2o_N6vc0h0hXJFCRXrgt-12" edge="1">
          <mxGeometry width="50" height="50" relative="1" as="geometry">
            <mxPoint x="189.0000000000016" y="158" as="sourcePoint" />
            <mxPoint x="171" y="176" as="targetPoint" />
          </mxGeometry>
        </mxCell>
        <mxCell id="ho-afcCtaLFZiFDd-naJ-226" value="" style="endArrow=none;html=1;entryX=1;entryY=0.5;entryDx=0;entryDy=0;exitX=0;exitY=0.5;exitDx=0;exitDy=0;fontSize=10;" parent="1" source="ho-afcCtaLFZiFDd-naJ-171" target="2o_N6vc0h0hXJFCRXrgt-12" edge="1">
          <mxGeometry width="50" height="50" relative="1" as="geometry">
            <mxPoint x="189.00000000000028" y="243.99999999999977" as="sourcePoint" />
            <mxPoint x="170.99999999999972" y="175.99999999999977" as="targetPoint" />
          </mxGeometry>
        </mxCell>
        <mxCell id="ho-afcCtaLFZiFDd-naJ-227" value="" style="endArrow=none;html=1;entryX=1;entryY=0.5;entryDx=0;entryDy=0;exitX=0;exitY=0.5;exitDx=0;exitDy=0;fontSize=10;" parent="1" source="ho-afcCtaLFZiFDd-naJ-170" target="2o_N6vc0h0hXJFCRXrgt-13" edge="1">
          <mxGeometry width="50" height="50" relative="1" as="geometry">
            <mxPoint x="189.00000000000028" y="158" as="sourcePoint" />
            <mxPoint x="170.99999999999972" y="175.99999999999977" as="targetPoint" />
          </mxGeometry>
        </mxCell>
        <mxCell id="ho-afcCtaLFZiFDd-naJ-228" value="" style="endArrow=none;html=1;entryX=1;entryY=0.5;entryDx=0;entryDy=0;exitX=0;exitY=0.5;exitDx=0;exitDy=0;fontSize=10;" parent="1" source="ho-afcCtaLFZiFDd-naJ-171" target="2o_N6vc0h0hXJFCRXrgt-13" edge="1">
          <mxGeometry width="50" height="50" relative="1" as="geometry">
            <mxPoint x="189.00000000000028" y="243.99999999999977" as="sourcePoint" />
            <mxPoint x="170.99999999999972" y="193.99999999999977" as="targetPoint" />
          </mxGeometry>
        </mxCell>
        <mxCell id="ho-afcCtaLFZiFDd-naJ-229" value="" style="endArrow=none;html=1;entryX=1;entryY=0.5;entryDx=0;entryDy=0;exitX=0;exitY=0.5;exitDx=0;exitDy=0;fontSize=10;" parent="1" source="2o_N6vc0h0hXJFCRXrgt-22" target="ho-afcCtaLFZiFDd-naJ-176" edge="1">
          <mxGeometry width="50" height="50" relative="1" as="geometry">
            <mxPoint x="189.00000000000028" y="262" as="sourcePoint" />
            <mxPoint x="170.99999999999972" y="193.99999999999977" as="targetPoint" />
          </mxGeometry>
        </mxCell>
        <mxCell id="ho-afcCtaLFZiFDd-naJ-230" value="" style="endArrow=none;html=1;entryX=1;entryY=0.5;entryDx=0;entryDy=0;exitX=0;exitY=0.5;exitDx=0;exitDy=0;fontSize=10;" parent="1" source="2o_N6vc0h0hXJFCRXrgt-20" target="ho-afcCtaLFZiFDd-naJ-176" edge="1">
          <mxGeometry width="50" height="50" relative="1" as="geometry">
            <mxPoint x="189.00000000000028" y="225.99999999999977" as="sourcePoint" />
            <mxPoint x="170.99999999999972" y="227" as="targetPoint" />
          </mxGeometry>
        </mxCell>
        <mxCell id="ho-afcCtaLFZiFDd-naJ-231" value="" style="endArrow=none;html=1;entryX=1;entryY=0.5;entryDx=0;entryDy=0;exitX=0;exitY=0.5;exitDx=0;exitDy=0;fontSize=10;" parent="1" source="2o_N6vc0h0hXJFCRXrgt-19" target="ho-afcCtaLFZiFDd-naJ-176" edge="1">
          <mxGeometry width="50" height="50" relative="1" as="geometry">
            <mxPoint x="189.00000000000028" y="193.99999999999977" as="sourcePoint" />
            <mxPoint x="170.99999999999972" y="227" as="targetPoint" />
          </mxGeometry>
        </mxCell>
        <mxCell id="ho-afcCtaLFZiFDd-naJ-232" value="" style="endArrow=none;html=1;entryX=1;entryY=0.5;entryDx=0;entryDy=0;exitX=0;exitY=0.5;exitDx=0;exitDy=0;fontSize=10;" parent="1" source="ho-afcCtaLFZiFDd-naJ-169" target="ho-afcCtaLFZiFDd-naJ-176" edge="1">
          <mxGeometry width="50" height="50" relative="1" as="geometry">
            <mxPoint x="189.00000000000028" y="175.99999999999977" as="sourcePoint" />
            <mxPoint x="170.99999999999972" y="227" as="targetPoint" />
          </mxGeometry>
        </mxCell>
        <mxCell id="ho-afcCtaLFZiFDd-naJ-233" value="" style="endArrow=none;html=1;entryX=1;entryY=0.5;entryDx=0;entryDy=0;exitX=0;exitY=0.5;exitDx=0;exitDy=0;fontSize=10;" parent="1" source="ho-afcCtaLFZiFDd-naJ-169" target="2o_N6vc0h0hXJFCRXrgt-13" edge="1">
          <mxGeometry width="50" height="50" relative="1" as="geometry">
            <mxPoint x="189.00000000000028" y="158" as="sourcePoint" />
            <mxPoint x="170.99999999999972" y="227" as="targetPoint" />
          </mxGeometry>
        </mxCell>
        <mxCell id="ho-afcCtaLFZiFDd-naJ-234" value="" style="endArrow=none;html=1;entryX=1;entryY=0.5;entryDx=0;entryDy=0;exitX=0;exitY=0.5;exitDx=0;exitDy=0;fontSize=10;" parent="1" source="ho-afcCtaLFZiFDd-naJ-170" target="ho-afcCtaLFZiFDd-naJ-176" edge="1">
          <mxGeometry width="50" height="50" relative="1" as="geometry">
            <mxPoint x="189.00000000000028" y="158" as="sourcePoint" />
            <mxPoint x="170.99999999999972" y="193.99999999999977" as="targetPoint" />
          </mxGeometry>
        </mxCell>
        <mxCell id="ho-afcCtaLFZiFDd-naJ-235" value="" style="endArrow=none;html=1;entryX=1;entryY=0.5;entryDx=0;entryDy=0;exitX=0;exitY=0.5;exitDx=0;exitDy=0;fontSize=10;" parent="1" source="ho-afcCtaLFZiFDd-naJ-171" target="ho-afcCtaLFZiFDd-naJ-176" edge="1">
          <mxGeometry width="50" height="50" relative="1" as="geometry">
            <mxPoint x="189.00000000000028" y="243.99999999999977" as="sourcePoint" />
            <mxPoint x="170.99999999999972" y="227" as="targetPoint" />
          </mxGeometry>
        </mxCell>
        <mxCell id="ho-afcCtaLFZiFDd-naJ-236" value="" style="endArrow=none;html=1;entryX=1;entryY=0.5;entryDx=0;entryDy=0;exitX=0;exitY=0.5;exitDx=0;exitDy=0;fontSize=10;" parent="1" source="ho-afcCtaLFZiFDd-naJ-169" target="ho-afcCtaLFZiFDd-naJ-177" edge="1">
          <mxGeometry width="50" height="50" relative="1" as="geometry">
            <mxPoint x="189.00000000000085" y="262" as="sourcePoint" />
            <mxPoint x="170.99999999999915" y="226" as="targetPoint" />
          </mxGeometry>
        </mxCell>
        <mxCell id="ho-afcCtaLFZiFDd-naJ-237" value="" style="endArrow=none;html=1;entryX=1;entryY=0.5;entryDx=0;entryDy=0;exitX=0;exitY=0.5;exitDx=0;exitDy=0;fontSize=10;" parent="1" source="2o_N6vc0h0hXJFCRXrgt-19" target="ho-afcCtaLFZiFDd-naJ-177" edge="1">
          <mxGeometry width="50" height="50" relative="1" as="geometry">
            <mxPoint x="189.00000000000085" y="157.99999999999977" as="sourcePoint" />
            <mxPoint x="170.99999999999915" y="245" as="targetPoint" />
          </mxGeometry>
        </mxCell>
        <mxCell id="ho-afcCtaLFZiFDd-naJ-238" value="" style="endArrow=none;html=1;entryX=1;entryY=0.5;entryDx=0;entryDy=0;exitX=0;exitY=0.5;exitDx=0;exitDy=0;fontSize=10;" parent="1" source="2o_N6vc0h0hXJFCRXrgt-20" target="ho-afcCtaLFZiFDd-naJ-177" edge="1">
          <mxGeometry width="50" height="50" relative="1" as="geometry">
            <mxPoint x="189.00000000000085" y="176" as="sourcePoint" />
            <mxPoint x="170.99999999999915" y="245" as="targetPoint" />
          </mxGeometry>
        </mxCell>
        <mxCell id="ho-afcCtaLFZiFDd-naJ-239" value="" style="endArrow=none;html=1;entryX=1;entryY=0.5;entryDx=0;entryDy=0;exitX=0;exitY=0.5;exitDx=0;exitDy=0;fontSize=10;" parent="1" source="2o_N6vc0h0hXJFCRXrgt-22" target="ho-afcCtaLFZiFDd-naJ-177" edge="1">
          <mxGeometry width="50" height="50" relative="1" as="geometry">
            <mxPoint x="189.00000000000085" y="193.99999999999977" as="sourcePoint" />
            <mxPoint x="170.99999999999915" y="245" as="targetPoint" />
          </mxGeometry>
        </mxCell>
        <mxCell id="ho-afcCtaLFZiFDd-naJ-240" value="" style="endArrow=none;html=1;entryX=1;entryY=0.5;entryDx=0;entryDy=0;exitX=0;exitY=0.5;exitDx=0;exitDy=0;fontSize=10;" parent="1" source="ho-afcCtaLFZiFDd-naJ-170" target="ho-afcCtaLFZiFDd-naJ-177" edge="1">
          <mxGeometry width="50" height="50" relative="1" as="geometry">
            <mxPoint x="189.00000000000085" y="226" as="sourcePoint" />
            <mxPoint x="170.99999999999915" y="245" as="targetPoint" />
          </mxGeometry>
        </mxCell>
        <mxCell id="ho-afcCtaLFZiFDd-naJ-241" value="" style="endArrow=none;html=1;entryX=1;entryY=0.5;entryDx=0;entryDy=0;exitX=0;exitY=0.5;exitDx=0;exitDy=0;fontSize=10;" parent="1" source="ho-afcCtaLFZiFDd-naJ-171" target="ho-afcCtaLFZiFDd-naJ-177" edge="1">
          <mxGeometry width="50" height="50" relative="1" as="geometry">
            <mxPoint x="189.00000000000085" y="243.99999999999977" as="sourcePoint" />
            <mxPoint x="170.99999999999915" y="245" as="targetPoint" />
          </mxGeometry>
        </mxCell>
        <mxCell id="ho-afcCtaLFZiFDd-naJ-245" value="" style="endArrow=none;html=1;fontSize=10;entryX=1;entryY=0.5;entryDx=0;entryDy=0;exitX=0;exitY=0.5;exitDx=0;exitDy=0;" parent="1" source="ho-afcCtaLFZiFDd-naJ-176" edge="1">
          <mxGeometry width="50" height="50" relative="1" as="geometry">
            <mxPoint x="157.00000000000045" y="284" as="sourcePoint" />
            <mxPoint x="135.9999999999999" y="199.25" as="targetPoint" />
          </mxGeometry>
        </mxCell>
        <mxCell id="ho-afcCtaLFZiFDd-naJ-246" value="" style="endArrow=none;html=1;fontSize=10;entryX=1;entryY=0.5;entryDx=0;entryDy=0;exitX=0;exitY=0.5;exitDx=0;exitDy=0;" parent="1" source="ho-afcCtaLFZiFDd-naJ-177" edge="1">
          <mxGeometry width="50" height="50" relative="1" as="geometry">
            <mxPoint x="156.99999999999937" y="226" as="sourcePoint" />
            <mxPoint x="135.9999999999999" y="199.25" as="targetPoint" />
          </mxGeometry>
        </mxCell>
        <mxCell id="ho-afcCtaLFZiFDd-naJ-247" value="..." style="text;html=1;resizable=0;points=[];autosize=1;align=left;verticalAlign=top;spacingTop=-4;rotation=-90;" parent="1" vertex="1">
          <mxGeometry x="168" y="182" width="30" height="20" as="geometry" />
        </mxCell>
        <mxCell id="ho-afcCtaLFZiFDd-naJ-248" value="..." style="text;html=1;resizable=0;points=[];autosize=1;align=left;verticalAlign=top;spacingTop=-4;rotation=-90;" parent="1" vertex="1">
          <mxGeometry x="200" y="182" width="30" height="20" as="geometry" />
        </mxCell>
        <mxCell id="ho-afcCtaLFZiFDd-naJ-249" value="..." style="text;html=1;resizable=0;points=[];autosize=1;align=left;verticalAlign=top;spacingTop=-4;rotation=-90;" parent="1" vertex="1">
          <mxGeometry x="232" y="182" width="30" height="20" as="geometry" />
        </mxCell>
        <mxCell id="ho-afcCtaLFZiFDd-naJ-250" value="&lt;div style=&quot;border-color: var(--border-color); text-align: left; font-size: 16px;&quot;&gt;&lt;b style=&quot;border-color: var(--border-color);&quot;&gt;Action \(a\):&lt;/b&gt;&lt;/div&gt;&lt;div style=&quot;border-color: var(--border-color); text-align: left;&quot;&gt;&lt;div style=&quot;border-color: var(--border-color);&quot;&gt;Lending pool 1:&lt;/div&gt;&lt;div style=&quot;border-color: var(--border-color);&quot;&gt;&lt;span style=&quot;white-space: pre;&quot;&gt; &lt;/span&gt;raise/lower/keep&amp;nbsp;&lt;span style=&quot;background-color: initial;&quot;&gt;\(C_1\)&lt;/span&gt;&lt;/div&gt;&lt;div style=&quot;border-color: var(--border-color);&quot;&gt;...&amp;nbsp;&lt;/div&gt;&lt;div style=&quot;border-color: var(--border-color);&quot;&gt;&lt;span style=&quot;background-color: initial;&quot;&gt;Lending pool&amp;nbsp;&lt;/span&gt;&lt;span style=&quot;background-color: initial;&quot;&gt;\(i\)&lt;/span&gt;&lt;span style=&quot;background-color: initial;&quot;&gt;:&lt;/span&gt;&lt;/div&gt;&lt;div style=&quot;border-color: var(--border-color);&quot;&gt;&lt;span style=&quot;white-space: pre;&quot;&gt; &lt;/span&gt;raise/lower/keep&amp;nbsp;&lt;span style=&quot;background-color: initial;&quot;&gt;\(C_i\)&lt;/span&gt;&lt;/div&gt;&lt;div style=&quot;border-color: var(--border-color);&quot;&gt;...&lt;/div&gt;&lt;/div&gt;&lt;div style=&quot;border-color: var(--border-color); text-align: left;&quot;&gt;Lending pool \(n\):&amp;nbsp;&lt;/div&gt;&lt;div style=&quot;border-color: var(--border-color); text-align: left;&quot;&gt;&lt;span style=&quot;background-color: initial;&quot;&gt;&lt;span style=&quot;white-space: pre;&quot;&gt; &lt;/span&gt;raise/lower/keep&amp;nbsp;&lt;/span&gt;&lt;span style=&quot;background-color: initial;&quot;&gt;\(C_n\)&lt;/span&gt;&lt;/div&gt;" style="rounded=0;whiteSpace=wrap;html=1;fontSize=14;" parent="1" vertex="1">
          <mxGeometry x="282" y="120" width="156" height="170" as="geometry" />
        </mxCell>
        <mxCell id="2o_N6vc0h0hXJFCRXrgt-138" value="" style="endArrow=classic;html=1;fontSize=10;entryX=0.5;entryY=0;entryDx=0;entryDy=0;strokeWidth=2;exitX=0.898;exitY=0.022;exitDx=0;exitDy=0;exitPerimeter=0;" parent="1" source="2o_N6vc0h0hXJFCRXrgt-151" target="2o_N6vc0h0hXJFCRXrgt-1" edge="1">
          <mxGeometry width="50" height="50" relative="1" as="geometry">
            <mxPoint x="637" y="130" as="sourcePoint" />
            <mxPoint x="110" y="360" as="targetPoint" />
            <Array as="points">
              <mxPoint x="630" y="90" />
              <mxPoint x="280" y="90" />
            </Array>
          </mxGeometry>
        </mxCell>
        <mxCell id="2o_N6vc0h0hXJFCRXrgt-154" value="" style="group;fillColor=default;strokeColor=#b85450;dashed=1;" parent="1" vertex="1" connectable="0">
          <mxGeometry x="497" y="132" width="147" height="32" as="geometry" />
        </mxCell>
        <mxCell id="2o_N6vc0h0hXJFCRXrgt-151" value="&lt;font style=&quot;font-size: 16px;&quot;&gt;Reward Modeling&lt;/font&gt;" style="rounded=0;whiteSpace=wrap;html=1;fontSize=10;fillColor=#f8cecc;strokeColor=#b85450;" parent="2o_N6vc0h0hXJFCRXrgt-154" vertex="1">
          <mxGeometry width="146.99999999999997" height="32" as="geometry" />
        </mxCell>
        <mxCell id="X-PD20EWHQLBBFG1TFcN-4" style="edgeStyle=orthogonalEdgeStyle;rounded=1;orthogonalLoop=1;jettySize=auto;html=1;exitX=0;exitY=0.5;exitDx=0;exitDy=0;entryX=0;entryY=0.25;entryDx=0;entryDy=0;curved=0;" edge="1" parent="1" target="ho-afcCtaLFZiFDd-naJ-257">
          <mxGeometry relative="1" as="geometry">
            <mxPoint x="497" y="246.75" as="sourcePoint" />
            <mxPoint x="497" y="291.5" as="targetPoint" />
            <Array as="points">
              <mxPoint x="480" y="247" />
              <mxPoint x="480" y="274" />
            </Array>
          </mxGeometry>
        </mxCell>
        <mxCell id="ho-afcCtaLFZiFDd-naJ-255" value="&lt;font style=&quot;font-size: 16px;&quot;&gt;Markets&lt;/font&gt;" style="rounded=0;whiteSpace=wrap;html=1;fontSize=14;fillColor=#e1d5e7;strokeColor=#9673a6;dashed=1;" parent="1" vertex="1">
          <mxGeometry x="497" y="222" width="147" height="29.5" as="geometry" />
        </mxCell>
        <mxCell id="A4d3PfwYv9dxXup02M1r-1" style="edgeStyle=orthogonalEdgeStyle;rounded=1;orthogonalLoop=1;jettySize=auto;html=1;exitX=1;exitY=0.75;exitDx=0;exitDy=0;entryX=1;entryY=0.5;entryDx=0;entryDy=0;startArrow=classic;startFill=1;" parent="1" source="ho-afcCtaLFZiFDd-naJ-256" target="ho-afcCtaLFZiFDd-naJ-257" edge="1">
          <mxGeometry relative="1" as="geometry">
            <mxPoint x="675.58" y="237.5" as="sourcePoint" />
            <mxPoint x="675.58" y="325.5" as="targetPoint" />
            <Array as="points">
              <mxPoint x="660" y="201" />
              <mxPoint x="660" y="282" />
            </Array>
          </mxGeometry>
        </mxCell>
        <mxCell id="ho-afcCtaLFZiFDd-naJ-256" value="&lt;font style=&quot;font-size: 16px;&quot;&gt;Lending Pools&lt;/font&gt;" style="rounded=0;whiteSpace=wrap;html=1;fontSize=14;fillColor=#d5e8d4;strokeColor=#82b366;dashed=1;" parent="1" vertex="1">
          <mxGeometry x="497" y="178" width="147" height="30" as="geometry" />
        </mxCell>
        <mxCell id="ho-afcCtaLFZiFDd-naJ-257" value="&lt;font style=&quot;font-size: 16px;&quot;&gt;Users&lt;/font&gt;" style="rounded=0;whiteSpace=wrap;html=1;fontSize=14;fillColor=#fff2cc;strokeColor=#d6b656;dashed=1;" parent="1" vertex="1">
          <mxGeometry x="497" y="266.5" width="147" height="30" as="geometry" />
        </mxCell>
        <mxCell id="ZYEqRFSEtmms0qRinlsi-2" value="&lt;font style=&quot;font-size: 16px;&quot;&gt;Net position&lt;/font&gt;" style="text;html=1;resizable=0;points=[];autosize=1;align=center;verticalAlign=top;spacingTop=-6;rotation=90;strokeColor=default;strokeWidth=3;spacing=0;" parent="1" vertex="1">
          <mxGeometry x="626" y="157" width="100" height="20" as="geometry" />
        </mxCell>
        <mxCell id="M0Joc9j2bXtxxWClhmvC-1" value="" style="endArrow=classic;html=1;fontSize=10;strokeWidth=2;entryX=0.008;entryY=0.373;entryDx=0;entryDy=0;entryPerimeter=0;exitX=1.001;exitY=0.407;exitDx=0;exitDy=0;exitPerimeter=0;" edge="1" parent="1" source="ho-afcCtaLFZiFDd-naJ-250" target="ho-afcCtaLFZiFDd-naJ-256">
          <mxGeometry width="50" height="50" relative="1" as="geometry">
            <mxPoint x="440" y="190" as="sourcePoint" />
            <mxPoint x="490" y="190" as="targetPoint" />
            <Array as="points" />
          </mxGeometry>
        </mxCell>
        <mxCell id="M0Joc9j2bXtxxWClhmvC-2" value="&lt;font&gt;updates&lt;/font&gt;" style="text;html=1;resizable=0;points=[];autosize=1;align=center;verticalAlign=middle;spacingTop=-2;rotation=90;fillColor=default;spacing=-4;fontSize=12;" vertex="1" parent="1">
          <mxGeometry x="438" y="184" width="50" height="10" as="geometry" />
        </mxCell>
        <mxCell id="X-PD20EWHQLBBFG1TFcN-6" style="edgeStyle=orthogonalEdgeStyle;rounded=1;orthogonalLoop=1;jettySize=auto;html=1;exitX=0;exitY=0.5;exitDx=0;exitDy=0;entryX=0;entryY=0.25;entryDx=0;entryDy=0;curved=0;" edge="1" parent="1">
          <mxGeometry relative="1" as="geometry">
            <mxPoint x="497" y="229.63" as="sourcePoint" />
            <mxPoint x="497" y="202.38" as="targetPoint" />
            <Array as="points">
              <mxPoint x="480" y="229.63" />
              <mxPoint x="480" y="202.63" />
            </Array>
          </mxGeometry>
        </mxCell>
        <mxCell id="X-PD20EWHQLBBFG1TFcN-8" value="" style="endArrow=classic;html=1;rounded=0;exitX=1.002;exitY=0.351;exitDx=0;exitDy=0;exitPerimeter=0;entryX=0.6;entryY=1.036;entryDx=0;entryDy=0;entryPerimeter=0;" edge="1" parent="1" source="ho-afcCtaLFZiFDd-naJ-256" target="ZYEqRFSEtmms0qRinlsi-2">
          <mxGeometry width="50" height="50" relative="1" as="geometry">
            <mxPoint x="620" y="270" as="sourcePoint" />
            <mxPoint x="670" y="220" as="targetPoint" />
          </mxGeometry>
        </mxCell>
        <mxCell id="X-PD20EWHQLBBFG1TFcN-10" value="" style="endArrow=classic;html=1;rounded=0;exitX=1.002;exitY=0.351;exitDx=0;exitDy=0;exitPerimeter=0;entryX=0.6;entryY=1.036;entryDx=0;entryDy=0;entryPerimeter=0;" edge="1" parent="1">
          <mxGeometry width="50" height="50" relative="1" as="geometry">
            <mxPoint x="665" y="159" as="sourcePoint" />
            <mxPoint x="644" y="147" as="targetPoint" />
          </mxGeometry>
        </mxCell>
      </root>
    </mxGraphModel>
  </diagram>
  <diagram id="AKU5mLLjQtxYJBriUJbg" name="protocol">
    <mxGraphModel dx="1710" dy="1238" grid="1" gridSize="10" guides="1" tooltips="1" connect="1" arrows="1" fold="1" page="1" pageScale="1" pageWidth="850" pageHeight="1100" math="1" shadow="0">
      <root>
        <mxCell id="0" />
        <mxCell id="1" parent="0" />
        <mxCell id="vCILnfW43QbgVWq3aJDO-18" value="" style="rounded=0;whiteSpace=wrap;html=1;strokeColor=none;strokeWidth=3;fontSize=28;fillColor=#E6E6E6;gradientColor=none;" parent="1" vertex="1">
          <mxGeometry x="120" y="1080" width="530" height="310" as="geometry" />
        </mxCell>
        <mxCell id="QGoWNuJyqxulpLKJmEAq-4" value="&lt;i style=&quot;font-size: 28px;&quot;&gt;&lt;font face=&quot;Helvetica&quot; style=&quot;font-size: 28px;&quot;&gt;&lt;b style=&quot;font-size: 28px;&quot;&gt;Cryptocurrency n&lt;/b&gt;&lt;/font&gt;&lt;/i&gt;" style="rounded=0;whiteSpace=wrap;html=1;glass=0;fontFamily=Georgia;dashed=1;verticalAlign=top;flipH=0;labelBackgroundColor=none;fillColor=#e1d5e7;strokeColor=#9673a6;strokeWidth=1;fontSize=28;flipV=1;" parent="1" vertex="1">
          <mxGeometry x="149" y="1106.5" width="490" height="192" as="geometry" />
        </mxCell>
        <mxCell id="QGoWNuJyqxulpLKJmEAq-3" value="" style="rounded=0;whiteSpace=wrap;html=1;glass=0;fontFamily=Georgia;dashed=1;verticalAlign=top;flipH=0;labelBackgroundColor=none;fillColor=#e1d5e7;strokeColor=#9673a6;strokeWidth=1;fontSize=28;flipV=1;" parent="1" vertex="1">
          <mxGeometry x="137" y="1145" width="490" height="192" as="geometry" />
        </mxCell>
        <mxCell id="QGoWNuJyqxulpLKJmEAq-2" value="&lt;i style=&quot;font-size: 28px;&quot;&gt;&lt;font face=&quot;Helvetica&quot; style=&quot;font-size: 28px;&quot;&gt;&lt;b style=&quot;font-size: 28px;&quot;&gt;Cryptocurrency i&lt;/b&gt;&lt;/font&gt;&lt;/i&gt;" style="rounded=0;whiteSpace=wrap;html=1;glass=0;fontFamily=Georgia;dashed=1;verticalAlign=top;flipH=0;labelBackgroundColor=none;fillColor=#e1d5e7;strokeColor=#9673a6;strokeWidth=1;fontSize=28;flipV=1;" parent="1" vertex="1">
          <mxGeometry x="130" y="1183" width="490" height="192" as="geometry" />
        </mxCell>
        <mxCell id="vCILnfW43QbgVWq3aJDO-1" value="" style="rounded=0;whiteSpace=wrap;html=1;strokeColor=none;strokeWidth=3;fontSize=28;fillColor=#E6E6E6;" parent="1" vertex="1">
          <mxGeometry x="700" y="1080" width="580" height="310" as="geometry" />
        </mxCell>
        <mxCell id="ctCYosp0sCTKplGfTtsr-6" value="&lt;div style=&quot;&quot;&gt;&lt;i style=&quot;background-color: initial; border-color: var(--border-color);&quot;&gt;&lt;font style=&quot;border-color: var(--border-color);&quot; face=&quot;Helvetica&quot;&gt;&lt;b style=&quot;border-color: var(--border-color);&quot;&gt;Agent actions&lt;/b&gt;&lt;/font&gt;&lt;/i&gt;&lt;/div&gt;" style="rounded=0;whiteSpace=wrap;html=1;glass=0;fontFamily=Georgia;dashed=1;verticalAlign=bottom;flipH=1;labelBackgroundColor=none;fillColor=#dae8fc;strokeColor=#6c8ebf;fontSize=28;align=left;" parent="1" vertex="1">
          <mxGeometry x="720" y="1110" width="540" height="260" as="geometry" />
        </mxCell>
        <mxCell id="V84i8MZ74ge2pJh1XHuv-1" value="" style="rounded=0;whiteSpace=wrap;html=1;strokeColor=none;strokeWidth=3;fontSize=28;fillColor=#E6E6E6;" parent="1" vertex="1">
          <mxGeometry x="700" y="120" width="580" height="930" as="geometry" />
        </mxCell>
        <mxCell id="-QXtYBZmHGCKLa9BCGiK-16" value="" style="rounded=0;whiteSpace=wrap;html=1;strokeColor=none;strokeWidth=3;fontSize=28;fillColor=#E6E6E6;" parent="1" vertex="1">
          <mxGeometry x="120" y="120" width="530" height="930" as="geometry" />
        </mxCell>
        <mxCell id="jf5s1wUn-RycJg9qTZxY-42" value="&lt;i style=&quot;border-color: var(--border-color); font-size: 28px;&quot;&gt;&lt;font style=&quot;border-color: var(--border-color); font-size: 28px;&quot; face=&quot;Helvetica&quot;&gt;&lt;b style=&quot;border-color: var(--border-color); font-size: 28px;&quot;&gt;Lending pool n&lt;/b&gt;&lt;/font&gt;&lt;/i&gt;" style="rounded=0;whiteSpace=wrap;html=1;glass=0;fontFamily=Georgia;dashed=1;verticalAlign=top;flipH=1;labelBackgroundColor=none;fillColor=#d5e8d4;strokeColor=#336600;strokeWidth=1;fontSize=28;align=right;" parent="1" vertex="1">
          <mxGeometry x="752" y="260" width="508" height="676" as="geometry" />
        </mxCell>
        <mxCell id="jf5s1wUn-RycJg9qTZxY-41" value="&lt;b&gt;&lt;i&gt;&lt;font face=&quot;Helvetica&quot;&gt;... ...&lt;/font&gt;&lt;/i&gt;&lt;/b&gt;" style="rounded=0;whiteSpace=wrap;html=1;glass=0;fontFamily=Georgia;dashed=1;verticalAlign=top;flipH=1;labelBackgroundColor=none;fillColor=#d5e8d4;strokeColor=#336600;strokeWidth=1;fontSize=28;align=right;" parent="1" vertex="1">
          <mxGeometry x="736" y="310" width="504" height="669" as="geometry" />
        </mxCell>
        <mxCell id="jf5s1wUn-RycJg9qTZxY-3" value="&lt;i style=&quot;font-size: 28px;&quot;&gt;&lt;font face=&quot;Helvetica&quot; style=&quot;font-size: 28px;&quot;&gt;&lt;b style=&quot;font-size: 28px;&quot;&gt;User actions&lt;/b&gt;&lt;/font&gt;&lt;/i&gt;" style="rounded=0;whiteSpace=wrap;html=1;glass=0;fontFamily=Georgia;dashed=1;verticalAlign=bottom;flipH=1;labelBackgroundColor=none;fillColor=#ffe6cc;strokeColor=#d79b00;fontSize=28;" parent="1" vertex="1">
          <mxGeometry x="410" y="220" width="220" height="780" as="geometry" />
        </mxCell>
        <mxCell id="jf5s1wUn-RycJg9qTZxY-4" value="&lt;i style=&quot;font-size: 28px;&quot;&gt;&lt;font face=&quot;Helvetica&quot; style=&quot;font-size: 28px;&quot;&gt;&lt;b style=&quot;font-size: 28px;&quot;&gt;Lending pool i&lt;/b&gt;&lt;/font&gt;&lt;/i&gt;" style="rounded=0;whiteSpace=wrap;html=1;glass=0;fontFamily=Georgia;dashed=1;verticalAlign=top;flipH=1;labelBackgroundColor=none;fillColor=#d5e8d4;strokeColor=#006600;strokeWidth=1;fontSize=28;align=right;" parent="1" vertex="1">
          <mxGeometry x="720" y="350" width="500" height="670" as="geometry" />
        </mxCell>
        <mxCell id="jf5s1wUn-RycJg9qTZxY-5" value="&lt;font style=&quot;font-size: 28px;&quot;&gt;&lt;font style=&quot;font-size: 28px;&quot;&gt;&lt;i&gt;Deposit&lt;/i&gt;&lt;/font&gt;&lt;br style=&quot;font-size: 28px;&quot;&gt;&lt;/font&gt;" style="rounded=1;whiteSpace=wrap;html=1;glass=0;fontFamily=Helvetica;fontSize=28;labelBackgroundColor=none;flipV=1;fontStyle=0;flipH=0;" parent="1" vertex="1">
          <mxGeometry x="418" y="230" width="196" height="60" as="geometry" />
        </mxCell>
        <mxCell id="jf5s1wUn-RycJg9qTZxY-7" value="&lt;font style=&quot;font-size: 28px;&quot;&gt;&lt;i&gt;Liquidate&lt;/i&gt;&lt;/font&gt;" style="rounded=1;whiteSpace=wrap;html=1;glass=0;fontFamily=Helvetica;fontSize=28;fontStyle=0;labelBackgroundColor=none;flipV=1;flipH=0;" parent="1" vertex="1">
          <mxGeometry x="418" y="614" width="196" height="60" as="geometry" />
        </mxCell>
        <mxCell id="jf5s1wUn-RycJg9qTZxY-8" value="&lt;font style=&quot;font-size: 28px;&quot;&gt;&lt;i&gt;Repay&lt;/i&gt;&lt;/font&gt;" style="rounded=1;whiteSpace=wrap;html=1;glass=0;fontFamily=Helvetica;fontSize=28;fontStyle=0;labelBackgroundColor=none;flipV=1;flipH=0;" parent="1" vertex="1">
          <mxGeometry x="418" y="742" width="196" height="60" as="geometry" />
        </mxCell>
        <mxCell id="jf5s1wUn-RycJg9qTZxY-9" value="&lt;font style=&quot;font-size: 28px;&quot;&gt;&lt;i&gt;Borrow&lt;/i&gt;&lt;/font&gt;" style="rounded=1;whiteSpace=wrap;html=1;glass=0;fontFamily=Helvetica;fontSize=28;fontStyle=0;labelBackgroundColor=none;flipV=1;flipH=0;" parent="1" vertex="1">
          <mxGeometry x="418" y="870" width="196" height="60" as="geometry" />
        </mxCell>
        <mxCell id="jf5s1wUn-RycJg9qTZxY-10" value="&lt;span style=&quot;font-weight: 400; font-size: 21px;&quot;&gt;&lt;font style=&quot;font-size: 21px;&quot;&gt;Total available funds&lt;/font&gt;&lt;/span&gt;&lt;div&gt;&lt;span style=&quot;font-weight: 400; font-size: 21px;&quot;&gt;&lt;font style=&quot;font-size: 21px;&quot;&gt;&lt;i&gt;F&lt;sub&gt;i&lt;/sub&gt;&lt;/i&gt;&lt;/font&gt;&lt;/span&gt;&lt;/div&gt;" style="rounded=0;whiteSpace=wrap;html=1;glass=0;fontFamily=Georgia;fontSize=21;fontStyle=1;labelBackgroundColor=none;" parent="1" vertex="1">
          <mxGeometry x="736" y="390" width="198" height="60" as="geometry" />
        </mxCell>
        <mxCell id="jf5s1wUn-RycJg9qTZxY-12" value="&lt;font style=&quot;font-weight: normal; font-size: 21px;&quot;&gt;Utilization ratio&lt;/font&gt;&lt;div&gt;&lt;font style=&quot;font-weight: normal; font-size: 21px;&quot;&gt;&lt;i&gt;U&lt;sub&gt;i&lt;/sub&gt;&lt;/i&gt;&lt;/font&gt;&lt;/div&gt;" style="rounded=0;whiteSpace=wrap;html=1;glass=0;fontFamily=Georgia;fontSize=21;fontStyle=1;labelBackgroundColor=none;" parent="1" vertex="1">
          <mxGeometry x="1000" y="550" width="198" height="60" as="geometry" />
        </mxCell>
        <mxCell id="jf5s1wUn-RycJg9qTZxY-15" value="" style="endArrow=classic;html=1;rounded=1;strokeWidth=4;strokeColor=#A50040;entryX=0.5;entryY=0;entryDx=0;entryDy=0;fontSize=28;exitX=0.995;exitY=0.846;exitDx=0;exitDy=0;exitPerimeter=0;" parent="1" source="jf5s1wUn-RycJg9qTZxY-10" target="jf5s1wUn-RycJg9qTZxY-12" edge="1">
          <mxGeometry width="50" height="50" relative="1" as="geometry">
            <mxPoint x="936" y="440" as="sourcePoint" />
            <mxPoint x="1114" y="550" as="targetPoint" />
            <Array as="points">
              <mxPoint x="1010" y="440" />
              <mxPoint x="1100" y="440" />
              <mxPoint x="1099" y="470" />
            </Array>
          </mxGeometry>
        </mxCell>
        <mxCell id="jf5s1wUn-RycJg9qTZxY-16" value="" style="endArrow=classic;html=1;rounded=1;strokeWidth=4;entryX=1;entryY=0.5;entryDx=0;entryDy=0;exitX=0.5;exitY=1;exitDx=0;exitDy=0;strokeColor=#2D7600;fontSize=28;" parent="1" source="jf5s1wUn-RycJg9qTZxY-12" target="jf5s1wUn-RycJg9qTZxY-13" edge="1">
          <mxGeometry width="50" height="50" relative="1" as="geometry">
            <mxPoint x="680" y="410" as="sourcePoint" />
            <mxPoint x="730" y="360" as="targetPoint" />
            <Array as="points">
              <mxPoint x="1099" y="680" />
              <mxPoint x="990" y="680" />
              <mxPoint x="990" y="742" />
            </Array>
          </mxGeometry>
        </mxCell>
        <mxCell id="jf5s1wUn-RycJg9qTZxY-23" value="" style="endArrow=classic;html=1;rounded=1;strokeWidth=4;exitX=1;exitY=0.5;exitDx=0;exitDy=0;strokeColor=#A50040;entryX=0.25;entryY=1;entryDx=0;entryDy=0;fontSize=28;" parent="1" source="jf5s1wUn-RycJg9qTZxY-8" target="jf5s1wUn-RycJg9qTZxY-38" edge="1">
          <mxGeometry width="50" height="50" relative="1" as="geometry">
            <mxPoint x="436.0000000000002" y="485" as="sourcePoint" />
            <mxPoint x="780" y="670" as="targetPoint" />
            <Array as="points">
              <mxPoint x="710" y="772" />
              <mxPoint x="710" y="690" />
              <mxPoint x="786" y="690" />
            </Array>
          </mxGeometry>
        </mxCell>
        <mxCell id="jf5s1wUn-RycJg9qTZxY-24" value="" style="endArrow=classic;html=1;rounded=1;strokeWidth=4;exitX=1;exitY=0.5;exitDx=0;exitDy=0;strokeColor=#2D7600;entryX=0.372;entryY=0.981;entryDx=0;entryDy=0;entryPerimeter=0;fontSize=28;" parent="1" source="jf5s1wUn-RycJg9qTZxY-9" target="jf5s1wUn-RycJg9qTZxY-38" edge="1">
          <mxGeometry width="50" height="50" relative="1" as="geometry">
            <mxPoint x="446.0000000000002" y="495" as="sourcePoint" />
            <mxPoint x="730" y="615" as="targetPoint" />
            <Array as="points">
              <mxPoint x="730" y="900" />
              <mxPoint x="730" y="700" />
              <mxPoint x="810" y="700" />
            </Array>
          </mxGeometry>
        </mxCell>
        <mxCell id="jf5s1wUn-RycJg9qTZxY-30" value="" style="endArrow=classic;html=1;rounded=1;strokeWidth=4;strokeColor=#A50040;entryX=0;entryY=0.75;entryDx=0;entryDy=0;exitX=1;exitY=0.403;exitDx=0;exitDy=0;exitPerimeter=0;fontSize=28;" parent="1" edge="1">
          <mxGeometry width="50" height="50" relative="1" as="geometry">
            <mxPoint x="614" y="647.82" as="sourcePoint" />
            <mxPoint x="736" y="647" as="targetPoint" />
            <Array as="points" />
          </mxGeometry>
        </mxCell>
        <mxCell id="jf5s1wUn-RycJg9qTZxY-33" value="" style="endArrow=classic;html=1;rounded=1;strokeWidth=4;exitX=1;exitY=0.5;exitDx=0;exitDy=0;strokeColor=#2D7600;entryX=-0.002;entryY=0.126;entryDx=0;entryDy=0;entryPerimeter=0;fontSize=28;" parent="1" source="jf5s1wUn-RycJg9qTZxY-5" edge="1">
          <mxGeometry width="50" height="50" relative="1" as="geometry">
            <mxPoint x="614" y="257" as="sourcePoint" />
            <mxPoint x="735.604" y="394.56" as="targetPoint" />
            <Array as="points">
              <mxPoint x="670" y="260" />
              <mxPoint x="670" y="394" />
            </Array>
          </mxGeometry>
        </mxCell>
        <mxCell id="-QXtYBZmHGCKLa9BCGiK-2" value="" style="endArrow=classic;html=1;rounded=1;strokeWidth=4;entryX=0.5;entryY=0;entryDx=0;entryDy=0;exitX=0.5;exitY=1;exitDx=0;exitDy=0;strokeColor=#2D7600;fontSize=28;" parent="1" source="jf5s1wUn-RycJg9qTZxY-12" target="-QXtYBZmHGCKLa9BCGiK-1" edge="1">
          <mxGeometry width="50" height="50" relative="1" as="geometry">
            <mxPoint x="1071" y="541" as="sourcePoint" />
            <mxPoint x="1071" y="567" as="targetPoint" />
            <Array as="points" />
          </mxGeometry>
        </mxCell>
        <mxCell id="-QXtYBZmHGCKLa9BCGiK-3" value="" style="endArrow=classic;html=1;rounded=1;strokeWidth=4;entryX=1;entryY=1;entryDx=0;entryDy=0;strokeColor=#2D7600;exitX=1;exitY=0;exitDx=0;exitDy=0;fontSize=28;" parent="1" source="jf5s1wUn-RycJg9qTZxY-13" target="jf5s1wUn-RycJg9qTZxY-32" edge="1">
          <mxGeometry width="50" height="50" relative="1" as="geometry">
            <mxPoint x="930" y="712" as="sourcePoint" />
            <mxPoint x="972" y="526" as="targetPoint" />
            <Array as="points">
              <mxPoint x="960" y="712" />
              <mxPoint x="960" y="690" />
              <mxPoint x="960" y="556" />
            </Array>
          </mxGeometry>
        </mxCell>
        <mxCell id="-QXtYBZmHGCKLa9BCGiK-5" value="" style="endArrow=classic;html=1;rounded=1;strokeWidth=4;strokeColor=#2D7600;entryX=0.25;entryY=1;entryDx=0;entryDy=0;fontSize=28;exitX=0.998;exitY=0.543;exitDx=0;exitDy=0;exitPerimeter=0;" parent="1" source="jf5s1wUn-RycJg9qTZxY-38" target="jf5s1wUn-RycJg9qTZxY-12" edge="1">
          <mxGeometry width="50" height="50" relative="1" as="geometry">
            <mxPoint x="934" y="633.81" as="sourcePoint" />
            <mxPoint x="990" y="634" as="targetPoint" />
            <Array as="points">
              <mxPoint x="1050" y="634" />
            </Array>
          </mxGeometry>
        </mxCell>
        <mxCell id="-QXtYBZmHGCKLa9BCGiK-6" value="" style="endArrow=classic;html=1;rounded=1;strokeWidth=4;exitX=1;exitY=0.25;exitDx=0;exitDy=0;entryX=0.25;entryY=0;entryDx=0;entryDy=0;strokeColor=#A50040;fontSize=28;" parent="1" source="jf5s1wUn-RycJg9qTZxY-32" target="jf5s1wUn-RycJg9qTZxY-12" edge="1">
          <mxGeometry width="50" height="50" relative="1" as="geometry">
            <mxPoint x="839" y="432" as="sourcePoint" />
            <mxPoint x="972" y="496" as="targetPoint" />
            <Array as="points">
              <mxPoint x="1050" y="511" />
            </Array>
          </mxGeometry>
        </mxCell>
        <mxCell id="-QXtYBZmHGCKLa9BCGiK-8" value="&lt;font style=&quot;font-weight: normal; font-size: 21px;&quot;&gt;&lt;font style=&quot;font-size: 21px;&quot;&gt;Price&lt;/font&gt;&lt;br style=&quot;font-size: 21px;&quot;&gt;&lt;/font&gt;&lt;div style=&quot;font-size: 21px;&quot;&gt;&lt;font style=&quot;font-weight: normal; font-size: 21px;&quot;&gt;&lt;font style=&quot;font-size: 21px;&quot;&gt;&lt;i style=&quot;font-size: 21px;&quot;&gt;P&lt;sub style=&quot;font-size: 21px;&quot;&gt;i&lt;/sub&gt;&lt;/i&gt;&lt;/font&gt;&lt;/font&gt;&lt;/div&gt;" style="rounded=0;whiteSpace=wrap;html=1;glass=0;fontFamily=Georgia;fontSize=21;fontStyle=1;labelBackgroundColor=none;" parent="1" vertex="1">
          <mxGeometry x="280" y="1229" width="198" height="60" as="geometry" />
        </mxCell>
        <mxCell id="-QXtYBZmHGCKLa9BCGiK-13" value="&lt;font style=&quot;font-weight: normal; font-size: 21px;&quot;&gt;&lt;font color=&quot;#808080&quot; style=&quot;font-size: 21px;&quot;&gt;Borrow confidence&lt;/font&gt;&lt;br style=&quot;font-size: 21px;&quot;&gt;&lt;/font&gt;" style="rounded=0;whiteSpace=wrap;html=1;glass=0;fontFamily=Georgia;fontSize=21;fontStyle=1;labelBackgroundColor=none;flipH=0;flipV=0;strokeColor=#333333;" parent="1" vertex="1">
          <mxGeometry x="150" y="870" width="198" height="60" as="geometry" />
        </mxCell>
        <mxCell id="-QXtYBZmHGCKLa9BCGiK-17" value="&lt;font style=&quot;font-weight: normal;&quot;&gt;Competing supply interest rate&lt;/font&gt;" style="rounded=0;whiteSpace=wrap;html=1;glass=0;fontFamily=Georgia;fontSize=21;fontStyle=1;labelBackgroundColor=none;align=left;spacingLeft=5;" parent="1" vertex="1">
          <mxGeometry x="380" y="1305" width="234" height="60" as="geometry" />
        </mxCell>
        <mxCell id="-QXtYBZmHGCKLa9BCGiK-18" value="&lt;font style=&quot;font-weight: normal; font-size: 21px;&quot;&gt;Competing borrow interest rate&lt;/font&gt;" style="rounded=0;whiteSpace=wrap;html=1;glass=0;fontFamily=Georgia;fontSize=17;fontStyle=1;labelBackgroundColor=none;align=left;verticalAlign=middle;spacingLeft=5;" parent="1" vertex="1">
          <mxGeometry x="133" y="1305" width="244" height="60" as="geometry" />
        </mxCell>
        <mxCell id="-QXtYBZmHGCKLa9BCGiK-23" value="&lt;font style=&quot;font-weight: normal; font-size: 21px;&quot; color=&quot;#808080&quot;&gt;Attractiveness for supply&lt;/font&gt;" style="rounded=0;whiteSpace=wrap;html=1;glass=0;fontFamily=Georgia;fontSize=21;fontStyle=1;labelBackgroundColor=none;strokeColor=#333333;" parent="1" vertex="1">
          <mxGeometry x="736" y="820" width="198" height="60" as="geometry" />
        </mxCell>
        <mxCell id="-QXtYBZmHGCKLa9BCGiK-24" value="&lt;font style=&quot;font-weight: normal; font-size: 21px;&quot; color=&quot;#808080&quot;&gt;Attractiveness for borrow&lt;/font&gt;" style="rounded=0;whiteSpace=wrap;html=1;glass=0;fontFamily=Georgia;fontSize=21;fontStyle=1;labelBackgroundColor=none;strokeColor=#333333;" parent="1" vertex="1">
          <mxGeometry x="1000" y="820" width="198" height="60" as="geometry" />
        </mxCell>
        <mxCell id="-QXtYBZmHGCKLa9BCGiK-27" value="" style="endArrow=classic;html=1;rounded=1;strokeWidth=4;entryX=0.5;entryY=0;entryDx=0;entryDy=0;exitX=0.5;exitY=1;exitDx=0;exitDy=0;strokeColor=#A50040;fontSize=28;" parent="1" source="-QXtYBZmHGCKLa9BCGiK-1" target="-QXtYBZmHGCKLa9BCGiK-24" edge="1">
          <mxGeometry width="50" height="50" relative="1" as="geometry">
            <mxPoint x="624" y="597" as="sourcePoint" />
            <mxPoint x="740" y="610" as="targetPoint" />
            <Array as="points" />
          </mxGeometry>
        </mxCell>
        <mxCell id="-QXtYBZmHGCKLa9BCGiK-28" value="" style="endArrow=classic;html=1;rounded=1;strokeWidth=4;entryX=0.5;entryY=0;entryDx=0;entryDy=0;exitX=0.5;exitY=1;exitDx=0;exitDy=0;strokeColor=#2D7600;fontSize=28;" parent="1" source="jf5s1wUn-RycJg9qTZxY-13" target="-QXtYBZmHGCKLa9BCGiK-23" edge="1">
          <mxGeometry width="50" height="50" relative="1" as="geometry">
            <mxPoint x="624" y="680" as="sourcePoint" />
            <mxPoint x="740" y="625" as="targetPoint" />
            <Array as="points" />
          </mxGeometry>
        </mxCell>
        <mxCell id="-QXtYBZmHGCKLa9BCGiK-29" value="" style="endArrow=classic;html=1;rounded=1;strokeWidth=4;entryX=0.25;entryY=1;entryDx=0;entryDy=0;exitX=1;exitY=0.5;exitDx=0;exitDy=0;strokeColor=#A50040;startArrow=none;fontSize=28;" parent="1" source="-QXtYBZmHGCKLa9BCGiK-17" target="-QXtYBZmHGCKLa9BCGiK-23" edge="1">
          <mxGeometry width="50" height="50" relative="1" as="geometry">
            <mxPoint x="1059" y="760" as="sourcePoint" />
            <mxPoint x="1019" y="930" as="targetPoint" />
            <Array as="points">
              <mxPoint x="680" y="1335" />
              <mxPoint x="680" y="970" />
              <mxPoint x="786" y="970" />
            </Array>
          </mxGeometry>
        </mxCell>
        <mxCell id="-QXtYBZmHGCKLa9BCGiK-32" value="" style="endArrow=classic;html=1;rounded=1;strokeWidth=4;entryX=0.5;entryY=1;entryDx=0;entryDy=0;exitX=0;exitY=0.5;exitDx=0;exitDy=0;strokeColor=#2D7600;fontSize=28;" parent="1" source="-QXtYBZmHGCKLa9BCGiK-23" target="-QXtYBZmHGCKLa9BCGiK-12" edge="1">
          <mxGeometry width="50" height="50" relative="1" as="geometry">
            <mxPoint x="1071" y="627" as="sourcePoint" />
            <mxPoint x="879" y="800" as="targetPoint" />
            <Array as="points">
              <mxPoint x="249" y="849" />
            </Array>
          </mxGeometry>
        </mxCell>
        <mxCell id="-QXtYBZmHGCKLa9BCGiK-33" value="" style="endArrow=classic;html=1;rounded=1;strokeWidth=4;exitX=1;exitY=0;exitDx=0;exitDy=0;strokeColor=#2D7600;entryX=0;entryY=0.75;entryDx=0;entryDy=0;fontSize=28;" parent="1" source="-QXtYBZmHGCKLa9BCGiK-12" target="jf5s1wUn-RycJg9qTZxY-5" edge="1">
          <mxGeometry width="50" height="50" relative="1" as="geometry">
            <mxPoint x="780" y="920" as="sourcePoint" />
            <mxPoint x="370" y="242" as="targetPoint" />
            <Array as="points">
              <mxPoint x="370" y="710" />
              <mxPoint x="370" y="275" />
              <mxPoint x="390" y="275" />
            </Array>
          </mxGeometry>
        </mxCell>
        <mxCell id="-QXtYBZmHGCKLa9BCGiK-34" value="" style="endArrow=classic;html=1;rounded=1;strokeWidth=4;exitX=0;exitY=0.75;exitDx=0;exitDy=0;strokeColor=#A50040;fontSize=28;" parent="1" source="jf5s1wUn-RycJg9qTZxY-7" edge="1">
          <mxGeometry width="50" height="50" relative="1" as="geometry">
            <mxPoint x="1059" y="850" as="sourcePoint" />
            <mxPoint x="320" y="870" as="targetPoint" />
            <Array as="points">
              <mxPoint x="387" y="660" />
              <mxPoint x="387" y="780" />
              <mxPoint x="320" y="780" />
            </Array>
          </mxGeometry>
        </mxCell>
        <mxCell id="-QXtYBZmHGCKLa9BCGiK-35" value="" style="endArrow=classic;html=1;rounded=1;strokeWidth=4;entryX=0.5;entryY=1;entryDx=0;entryDy=0;exitX=0.75;exitY=1;exitDx=0;exitDy=0;strokeColor=#2D7600;fontSize=28;" parent="1" source="-QXtYBZmHGCKLa9BCGiK-24" target="-QXtYBZmHGCKLa9BCGiK-13" edge="1">
          <mxGeometry width="50" height="50" relative="1" as="geometry">
            <mxPoint x="299" y="650" as="sourcePoint" />
            <mxPoint x="428.0000000000002" y="350" as="targetPoint" />
            <Array as="points">
              <mxPoint x="1149" y="1040" />
              <mxPoint x="690" y="1040" />
              <mxPoint x="249" y="1040" />
            </Array>
          </mxGeometry>
        </mxCell>
        <mxCell id="-QXtYBZmHGCKLa9BCGiK-36" value="" style="endArrow=classic;html=1;rounded=1;strokeWidth=4;entryX=0;entryY=0.5;entryDx=0;entryDy=0;exitX=1;exitY=0.5;exitDx=0;exitDy=0;strokeColor=#2D7600;fontSize=28;" parent="1" source="-QXtYBZmHGCKLa9BCGiK-13" target="jf5s1wUn-RycJg9qTZxY-9" edge="1">
          <mxGeometry width="50" height="50" relative="1" as="geometry">
            <mxPoint x="920" y="1050" as="sourcePoint" />
            <mxPoint x="239" y="571" as="targetPoint" />
            <Array as="points" />
          </mxGeometry>
        </mxCell>
        <mxCell id="-QXtYBZmHGCKLa9BCGiK-37" value="" style="endArrow=classic;html=1;rounded=1;strokeWidth=4;entryX=0;entryY=0.2;entryDx=0;entryDy=0;strokeColor=#A50040;entryPerimeter=0;exitX=1;exitY=0;exitDx=0;exitDy=0;fontSize=28;" parent="1" source="-QXtYBZmHGCKLa9BCGiK-13" target="jf5s1wUn-RycJg9qTZxY-8" edge="1">
          <mxGeometry width="50" height="50" relative="1" as="geometry">
            <mxPoint x="360" y="860" as="sourcePoint" />
            <mxPoint x="338.0000000000002" y="541" as="targetPoint" />
            <Array as="points">
              <mxPoint x="390" y="870" />
              <mxPoint x="390" y="790" />
            </Array>
          </mxGeometry>
        </mxCell>
        <mxCell id="-QXtYBZmHGCKLa9BCGiK-38" value="" style="endArrow=classic;html=1;rounded=1;strokeWidth=4;entryX=0;entryY=0.5;entryDx=0;entryDy=0;strokeColor=#A50040;exitX=1;exitY=0.5;exitDx=0;exitDy=0;fontSize=28;" parent="1" source="-QXtYBZmHGCKLa9BCGiK-12" target="jf5s1wUn-RycJg9qTZxY-6" edge="1">
          <mxGeometry width="50" height="50" relative="1" as="geometry">
            <mxPoint x="350" y="720" as="sourcePoint" />
            <mxPoint x="348.0000000000002" y="551" as="targetPoint" />
            <Array as="points">
              <mxPoint x="380" y="740" />
              <mxPoint x="380" y="390" />
            </Array>
          </mxGeometry>
        </mxCell>
        <mxCell id="-QXtYBZmHGCKLa9BCGiK-39" value="" style="endArrow=classic;html=1;rounded=1;strokeWidth=4;exitX=0.899;exitY=0.017;exitDx=0;exitDy=0;strokeColor=#2D7600;exitPerimeter=0;fontSize=28;" parent="1" source="-QXtYBZmHGCKLa9BCGiK-7" edge="1">
          <mxGeometry width="50" height="50" relative="1" as="geometry">
            <mxPoint x="780" y="830" as="sourcePoint" />
            <mxPoint x="1024" y="880" as="targetPoint" />
            <Array as="points" />
          </mxGeometry>
        </mxCell>
        <mxCell id="-QXtYBZmHGCKLa9BCGiK-40" value="" style="endArrow=classic;html=1;rounded=1;strokeWidth=4;entryX=0.646;entryY=1;entryDx=0;entryDy=0;exitX=0.091;exitY=-0.017;exitDx=0;exitDy=0;strokeColor=#A50040;exitPerimeter=0;entryPerimeter=0;fontSize=28;" parent="1" source="-QXtYBZmHGCKLa9BCGiK-7" target="-QXtYBZmHGCKLa9BCGiK-23" edge="1">
          <mxGeometry width="50" height="50" relative="1" as="geometry">
            <mxPoint x="624" y="515" as="sourcePoint" />
            <mxPoint x="740" y="595" as="targetPoint" />
            <Array as="points">
              <mxPoint x="864" y="900" />
            </Array>
          </mxGeometry>
        </mxCell>
        <mxCell id="vCILnfW43QbgVWq3aJDO-2" value="&lt;font style=&quot;font-size: 28px;&quot;&gt;&lt;font style=&quot;font-size: 28px;&quot;&gt;&lt;i&gt;Raise&lt;/i&gt;&lt;/font&gt;&lt;br style=&quot;font-size: 28px;&quot;&gt;&lt;/font&gt;" style="rounded=1;whiteSpace=wrap;html=1;glass=0;fontFamily=Helvetica;fontSize=28;labelBackgroundColor=none;flipV=1;fontStyle=0" parent="1" vertex="1">
          <mxGeometry x="980" y="1120.5" width="196" height="60" as="geometry" />
        </mxCell>
        <mxCell id="vCILnfW43QbgVWq3aJDO-3" value="&lt;font style=&quot;font-size: 28px;&quot;&gt;&lt;font style=&quot;font-size: 28px;&quot;&gt;&lt;i&gt;Keep&lt;/i&gt;&lt;/font&gt;&lt;br style=&quot;font-size: 28px;&quot;&gt;&lt;/font&gt;" style="rounded=1;whiteSpace=wrap;html=1;glass=0;fontFamily=Helvetica;fontSize=28;labelBackgroundColor=none;flipV=1;fontStyle=0" parent="1" vertex="1">
          <mxGeometry x="980" y="1298.5" width="196" height="60" as="geometry" />
        </mxCell>
        <mxCell id="vCILnfW43QbgVWq3aJDO-4" value="&lt;font style=&quot;font-size: 28px;&quot;&gt;&lt;font style=&quot;font-size: 28px;&quot;&gt;&lt;i&gt;Lower&lt;/i&gt;&lt;/font&gt;&lt;br style=&quot;font-size: 28px;&quot;&gt;&lt;/font&gt;" style="rounded=1;whiteSpace=wrap;html=1;glass=0;fontFamily=Helvetica;fontSize=28;labelBackgroundColor=none;flipV=1;fontStyle=0" parent="1" vertex="1">
          <mxGeometry x="980" y="1210" width="196" height="60" as="geometry" />
        </mxCell>
        <mxCell id="vCILnfW43QbgVWq3aJDO-6" value="&lt;font style=&quot;font-weight: normal; font-size: 21px;&quot;&gt;&lt;font style=&quot;font-size: 21px;&quot;&gt;Loan health&lt;/font&gt;&lt;br style=&quot;font-size: 21px;&quot;&gt;&lt;/font&gt;&lt;div style=&quot;font-size: 21px;&quot;&gt;&lt;font style=&quot;font-weight: normal; font-size: 21px;&quot;&gt;&lt;font style=&quot;font-size: 21px;&quot;&gt;&lt;i style=&quot;font-size: 21px;&quot;&gt;H&lt;/i&gt;&lt;/font&gt;&lt;/font&gt;&lt;/div&gt;" style="rounded=0;whiteSpace=wrap;html=1;glass=0;fontFamily=Georgia;fontSize=21;fontStyle=1;labelBackgroundColor=none;flipH=0;flipV=0;" parent="1" vertex="1">
          <mxGeometry x="150" y="550" width="198" height="60" as="geometry" />
        </mxCell>
        <mxCell id="13Z4vR84ARYP8GRe7s6N-1" style="edgeStyle=orthogonalEdgeStyle;rounded=1;orthogonalLoop=1;jettySize=auto;html=1;exitX=0.5;exitY=0;exitDx=0;exitDy=0;strokeColor=#A50040;strokeWidth=4;curved=0;" parent="1" source="vCILnfW43QbgVWq3aJDO-7" target="_m3SmOg4_IBAmYKFI5gp-1" edge="1">
          <mxGeometry relative="1" as="geometry">
            <Array as="points">
              <mxPoint x="249" y="180" />
            </Array>
          </mxGeometry>
        </mxCell>
        <mxCell id="vCILnfW43QbgVWq3aJDO-7" value="&lt;font style=&quot;font-weight: normal; font-size: 21px;&quot;&gt;&lt;font style=&quot;font-size: 21px;&quot;&gt;Supply value&lt;/font&gt;&lt;br style=&quot;font-size: 21px;&quot;&gt;&lt;/font&gt;&lt;div style=&quot;font-size: 21px;&quot;&gt;&lt;span style=&quot;font-weight: 400; font-size: 21px;&quot;&gt;&lt;i style=&quot;font-size: 21px;&quot;&gt;V&lt;sup style=&quot;font-size: 21px;&quot;&gt;S&lt;/sup&gt;&lt;/i&gt;&lt;/span&gt;&lt;/div&gt;" style="rounded=0;whiteSpace=wrap;html=1;glass=0;fontFamily=Georgia;fontSize=21;fontStyle=1;labelBackgroundColor=none;flipH=0;flipV=0;" parent="1" vertex="1">
          <mxGeometry x="150" y="230" width="198" height="60" as="geometry" />
        </mxCell>
        <mxCell id="vCILnfW43QbgVWq3aJDO-8" value="" style="endArrow=classic;html=1;rounded=1;strokeWidth=4;exitX=0;exitY=0.5;exitDx=0;exitDy=0;strokeColor=#2D7600;entryX=0;entryY=0.25;entryDx=0;entryDy=0;fontSize=28;" parent="1" source="-QXtYBZmHGCKLa9BCGiK-8" target="vCILnfW43QbgVWq3aJDO-7" edge="1">
          <mxGeometry width="50" height="50" relative="1" as="geometry">
            <mxPoint x="972" y="597" as="sourcePoint" />
            <mxPoint x="1380" y="460" as="targetPoint" />
            <Array as="points">
              <mxPoint x="110" y="1259" />
              <mxPoint x="110" y="245" />
            </Array>
          </mxGeometry>
        </mxCell>
        <mxCell id="vCILnfW43QbgVWq3aJDO-9" value="" style="endArrow=classic;html=1;rounded=1;strokeWidth=4;strokeColor=#2D7600;exitX=-0.002;exitY=0.367;exitDx=0;exitDy=0;entryX=1.003;entryY=0.319;entryDx=0;entryDy=0;exitPerimeter=0;fontSize=28;entryPerimeter=0;" parent="1" source="jf5s1wUn-RycJg9qTZxY-32" target="vCILnfW43QbgVWq3aJDO-7" edge="1">
          <mxGeometry width="50" height="50" relative="1" as="geometry">
            <mxPoint x="750" y="490" as="sourcePoint" />
            <mxPoint x="350" y="290" as="targetPoint" />
            <Array as="points">
              <mxPoint x="620" y="518" />
              <mxPoint x="620" y="430" />
              <mxPoint x="390" y="430" />
              <mxPoint x="390" y="250" />
            </Array>
          </mxGeometry>
        </mxCell>
        <mxCell id="vCILnfW43QbgVWq3aJDO-10" value="" style="endArrow=classic;html=1;rounded=1;strokeWidth=4;exitX=0;exitY=0.5;exitDx=0;exitDy=0;strokeColor=#2D7600;entryX=0;entryY=0.5;entryDx=0;entryDy=0;fontSize=28;" parent="1" source="vCILnfW43QbgVWq3aJDO-7" target="vCILnfW43QbgVWq3aJDO-6" edge="1">
          <mxGeometry width="50" height="50" relative="1" as="geometry">
            <mxPoint x="1017.9999999999995" y="410" as="sourcePoint" />
            <mxPoint x="1118" y="494" as="targetPoint" />
            <Array as="points">
              <mxPoint x="130" y="260" />
              <mxPoint x="130" y="580" />
            </Array>
          </mxGeometry>
        </mxCell>
        <mxCell id="13Z4vR84ARYP8GRe7s6N-3" style="edgeStyle=orthogonalEdgeStyle;rounded=1;orthogonalLoop=1;jettySize=auto;html=1;exitX=1;exitY=0;exitDx=0;exitDy=0;entryX=0;entryY=0.5;entryDx=0;entryDy=0;strokeColor=#2D7600;curved=0;strokeWidth=4;" parent="1" source="vCILnfW43QbgVWq3aJDO-12" target="_m3SmOg4_IBAmYKFI5gp-1" edge="1">
          <mxGeometry relative="1" as="geometry">
            <Array as="points">
              <mxPoint x="360" y="390" />
              <mxPoint x="360" y="200" />
            </Array>
          </mxGeometry>
        </mxCell>
        <mxCell id="vCILnfW43QbgVWq3aJDO-12" value="&lt;font style=&quot;font-weight: normal; font-size: 21px;&quot;&gt;&lt;font style=&quot;font-size: 21px;&quot;&gt;Borrow value&lt;/font&gt;&lt;br style=&quot;font-size: 21px;&quot;&gt;&lt;/font&gt;&lt;div style=&quot;font-size: 21px;&quot;&gt;&lt;font style=&quot;font-weight: normal; font-size: 21px;&quot;&gt;&lt;font style=&quot;font-size: 21px;&quot;&gt;&lt;i style=&quot;font-size: 21px;&quot;&gt;V&lt;span style=&quot;font-size: 21px;&quot;&gt;&lt;sup style=&quot;font-size: 21px;&quot;&gt;B&lt;/sup&gt;&lt;/span&gt;&lt;/i&gt;&lt;/font&gt;&lt;/font&gt;&lt;/div&gt;" style="rounded=0;whiteSpace=wrap;html=1;glass=0;fontFamily=Georgia;fontSize=21;fontStyle=1;labelBackgroundColor=none;flipH=0;flipV=0;" parent="1" vertex="1">
          <mxGeometry x="150" y="390" width="198" height="60" as="geometry" />
        </mxCell>
        <mxCell id="vCILnfW43QbgVWq3aJDO-13" value="" style="endArrow=classic;html=1;rounded=1;strokeWidth=4;strokeColor=#2D7600;entryX=0;entryY=0.5;entryDx=0;entryDy=0;fontSize=28;" parent="1" target="vCILnfW43QbgVWq3aJDO-12" edge="1">
          <mxGeometry width="50" height="50" relative="1" as="geometry">
            <mxPoint x="110" y="1230" as="sourcePoint" />
            <mxPoint x="1208.5" y="380" as="targetPoint" />
            <Array as="points">
              <mxPoint x="110" y="420" />
            </Array>
          </mxGeometry>
        </mxCell>
        <mxCell id="vCILnfW43QbgVWq3aJDO-14" value="" style="endArrow=classic;html=1;rounded=1;strokeWidth=4;exitX=0.5;exitY=1;exitDx=0;exitDy=0;entryX=0.5;entryY=0;entryDx=0;entryDy=0;strokeColor=#A50040;fontSize=28;" parent="1" source="vCILnfW43QbgVWq3aJDO-12" target="vCILnfW43QbgVWq3aJDO-6" edge="1">
          <mxGeometry width="50" height="50" relative="1" as="geometry">
            <mxPoint x="968.5" y="440" as="sourcePoint" />
            <mxPoint x="1021.5" y="571" as="targetPoint" />
            <Array as="points" />
          </mxGeometry>
        </mxCell>
        <mxCell id="vCILnfW43QbgVWq3aJDO-15" value="" style="endArrow=classic;html=1;rounded=1;strokeWidth=4;exitX=0.5;exitY=1;exitDx=0;exitDy=0;entryX=0;entryY=0.5;entryDx=0;entryDy=0;strokeColor=#A50040;fontSize=28;" parent="1" source="vCILnfW43QbgVWq3aJDO-6" target="jf5s1wUn-RycJg9qTZxY-7" edge="1">
          <mxGeometry width="50" height="50" relative="1" as="geometry">
            <mxPoint x="202" y="300" as="sourcePoint" />
            <mxPoint x="358" y="415" as="targetPoint" />
            <Array as="points">
              <mxPoint x="249" y="644" />
              <mxPoint x="390" y="644" />
            </Array>
          </mxGeometry>
        </mxCell>
        <mxCell id="FwXsFX6LTekc_KHHLrAV-1" value="&lt;span style=&quot;font-weight: 400; font-size: 21px;&quot;&gt;&lt;font style=&quot;font-size: 21px;&quot;&gt;Net position&lt;/font&gt;&lt;/span&gt;&lt;div style=&quot;font-size: 21px;&quot;&gt;&lt;span style=&quot;font-weight: 400; font-size: 21px;&quot;&gt;&lt;font style=&quot;font-size: 21px;&quot;&gt;&lt;i style=&quot;font-size: 21px;&quot;&gt;N&lt;/i&gt;&lt;/font&gt;&lt;/span&gt;&lt;/div&gt;" style="rounded=0;whiteSpace=wrap;html=1;glass=0;fontFamily=Georgia;fontSize=21;fontStyle=1;labelBackgroundColor=none;strokeWidth=5;" parent="1" vertex="1">
          <mxGeometry x="934" y="170" width="198" height="60" as="geometry" />
        </mxCell>
        <mxCell id="FwXsFX6LTekc_KHHLrAV-2" value="" style="endArrow=classic;html=1;rounded=1;strokeWidth=4;exitX=1;exitY=0;exitDx=0;exitDy=0;strokeColor=#2D7600;fontSize=28;entryX=0;entryY=1;entryDx=0;entryDy=0;" parent="1" source="jf5s1wUn-RycJg9qTZxY-10" target="FwXsFX6LTekc_KHHLrAV-1" edge="1">
          <mxGeometry width="50" height="50" relative="1" as="geometry">
            <mxPoint x="972" y="597" as="sourcePoint" />
            <mxPoint x="810" y="220" as="targetPoint" />
            <Array as="points" />
          </mxGeometry>
        </mxCell>
        <mxCell id="FwXsFX6LTekc_KHHLrAV-3" value="" style="endArrow=classic;html=1;rounded=1;strokeWidth=4;exitX=1;exitY=0.5;exitDx=0;exitDy=0;entryX=0.5;entryY=0;entryDx=0;entryDy=0;strokeColor=#2D7600;fontSize=28;" parent="1" source="jf5s1wUn-RycJg9qTZxY-5" target="jf5s1wUn-RycJg9qTZxY-32" edge="1">
          <mxGeometry width="50" height="50" relative="1" as="geometry">
            <mxPoint x="624" y="365" as="sourcePoint" />
            <mxPoint x="740" y="387" as="targetPoint" />
            <Array as="points">
              <mxPoint x="670" y="260" />
              <mxPoint x="670" y="480" />
              <mxPoint x="820" y="480" />
            </Array>
          </mxGeometry>
        </mxCell>
        <mxCell id="FwXsFX6LTekc_KHHLrAV-4" value="" style="endArrow=classic;html=1;rounded=1;strokeWidth=4;exitX=1;exitY=0.75;exitDx=0;exitDy=0;fontColor=#A50040;strokeColor=#A50040;fontSize=28;entryX=0.997;entryY=0.325;entryDx=0;entryDy=0;entryPerimeter=0;" parent="1" source="jf5s1wUn-RycJg9qTZxY-9" target="jf5s1wUn-RycJg9qTZxY-10" edge="1">
          <mxGeometry width="50" height="50" relative="1" as="geometry">
            <mxPoint x="624" y="447" as="sourcePoint" />
            <mxPoint x="940" y="410" as="targetPoint" />
            <Array as="points">
              <mxPoint x="1230" y="915" />
              <mxPoint x="1230" y="410" />
            </Array>
          </mxGeometry>
        </mxCell>
        <mxCell id="FwXsFX6LTekc_KHHLrAV-5" value="" style="endArrow=classic;html=1;rounded=1;strokeWidth=4;exitX=0.994;exitY=0.957;exitDx=0;exitDy=0;entryX=0.223;entryY=0.985;entryDx=0;entryDy=0;strokeColor=#2D7600;entryPerimeter=0;exitPerimeter=0;fontSize=28;" parent="1" source="jf5s1wUn-RycJg9qTZxY-8" target="jf5s1wUn-RycJg9qTZxY-10" edge="1">
          <mxGeometry width="50" height="50" relative="1" as="geometry">
            <mxPoint x="624" y="335" as="sourcePoint" />
            <mxPoint x="978" y="305" as="targetPoint" />
            <Array as="points">
              <mxPoint x="690" y="745" />
              <mxPoint x="690" y="470" />
              <mxPoint x="770" y="470" />
            </Array>
          </mxGeometry>
        </mxCell>
        <mxCell id="FwXsFX6LTekc_KHHLrAV-6" value="" style="endArrow=classic;html=1;rounded=1;strokeWidth=4;entryX=-0.001;entryY=0.8;entryDx=0;entryDy=0;strokeColor=#2D7600;exitX=0.997;exitY=0.678;exitDx=0;exitDy=0;exitPerimeter=0;entryPerimeter=0;fontSize=28;" parent="1" source="jf5s1wUn-RycJg9qTZxY-7" target="jf5s1wUn-RycJg9qTZxY-10" edge="1">
          <mxGeometry width="50" height="50" relative="1" as="geometry">
            <mxPoint x="610" y="610" as="sourcePoint" />
            <mxPoint x="839" y="432" as="targetPoint" />
            <Array as="points">
              <mxPoint x="680" y="633" />
              <mxPoint x="680" y="438" />
            </Array>
          </mxGeometry>
        </mxCell>
        <mxCell id="FwXsFX6LTekc_KHHLrAV-7" value="" style="endArrow=classic;html=1;rounded=1;strokeWidth=4;entryX=-0.002;entryY=0.322;entryDx=0;entryDy=0;fontColor=#A50040;strokeColor=#A50040;entryPerimeter=0;fontSize=28;" parent="1" edge="1">
          <mxGeometry width="50" height="50" relative="1" as="geometry">
            <mxPoint x="614" y="415" as="sourcePoint" />
            <mxPoint x="735.604" y="415.32000000000005" as="targetPoint" />
            <Array as="points" />
          </mxGeometry>
        </mxCell>
        <mxCell id="FwXsFX6LTekc_KHHLrAV-8" value="" style="endArrow=classic;html=1;rounded=1;strokeWidth=4;exitX=0.995;exitY=0.105;exitDx=0;exitDy=0;strokeColor=#2D7600;fontSize=28;exitPerimeter=0;" parent="1" source="jf5s1wUn-RycJg9qTZxY-38" edge="1">
          <mxGeometry width="50" height="50" relative="1" as="geometry">
            <mxPoint x="933.9979999999999" y="610" as="sourcePoint" />
            <mxPoint x="990" y="232" as="targetPoint" />
            <Array as="points">
              <mxPoint x="991" y="610" />
            </Array>
          </mxGeometry>
        </mxCell>
        <mxCell id="FwXsFX6LTekc_KHHLrAV-9" value="" style="endArrow=classic;html=1;rounded=1;strokeWidth=4;exitX=1;exitY=0;exitDx=0;exitDy=0;fontColor=#A50040;strokeColor=#A50040;fontSize=28;" parent="1" source="jf5s1wUn-RycJg9qTZxY-32" edge="1">
          <mxGeometry width="50" height="50" relative="1" as="geometry">
            <mxPoint x="574.9999999999998" y="402" as="sourcePoint" />
            <mxPoint x="960" y="230" as="targetPoint" />
            <Array as="points">
              <mxPoint x="960" y="496" />
            </Array>
          </mxGeometry>
        </mxCell>
        <mxCell id="-QXtYBZmHGCKLa9BCGiK-1" value="&lt;font style=&quot;font-weight: normal; font-size: 21px;&quot;&gt;Borrow interest rate&lt;/font&gt;&lt;div&gt;&lt;font style=&quot;font-weight: normal; font-size: 21px;&quot;&gt;&lt;br&gt;&lt;/font&gt;&lt;/div&gt;" style="rounded=0;whiteSpace=wrap;html=1;glass=0;fontFamily=Georgia;fontSize=21;fontStyle=1;labelBackgroundColor=none;" parent="1" vertex="1">
          <mxGeometry x="1000" y="712" width="198" height="60" as="geometry" />
        </mxCell>
        <mxCell id="ZMgbuc1NFhiJjUUrCLei-6" value="" style="endArrow=classic;html=1;rounded=1;strokeWidth=4;entryX=1;entryY=0.5;entryDx=0;entryDy=0;exitX=0;exitY=0.5;exitDx=0;exitDy=0;strokeColor=#2D7600;fontSize=28;" parent="1" source="-QXtYBZmHGCKLa9BCGiK-18" target="-QXtYBZmHGCKLa9BCGiK-24" edge="1">
          <mxGeometry width="50" height="50" relative="1" as="geometry">
            <mxPoint x="1400.5" y="890" as="sourcePoint" />
            <mxPoint x="1505" y="840" as="targetPoint" />
            <Array as="points">
              <mxPoint x="110" y="1335" />
              <mxPoint x="110" y="1400" />
              <mxPoint x="1290" y="1400" />
              <mxPoint x="1290" y="850" />
            </Array>
          </mxGeometry>
        </mxCell>
        <mxCell id="ctCYosp0sCTKplGfTtsr-1" value="&lt;b style=&quot;font-size: 28px;&quot;&gt;&lt;font style=&quot;font-size: 28px;&quot;&gt;USERS&lt;/font&gt;&lt;/b&gt;" style="text;html=1;strokeColor=none;fillColor=none;align=center;verticalAlign=middle;whiteSpace=wrap;rounded=0;fontSize=28;flipH=1;flipV=1;gradientColor=none;" parent="1" vertex="1">
          <mxGeometry x="152" y="106" width="60" height="30" as="geometry" />
        </mxCell>
        <mxCell id="ctCYosp0sCTKplGfTtsr-2" value="&lt;b style=&quot;font-size: 28px;&quot;&gt;&lt;font style=&quot;font-size: 28px;&quot;&gt;LENDING PROTOCOL&lt;/font&gt;&lt;/b&gt;" style="text;html=1;strokeColor=none;fillColor=none;align=center;verticalAlign=middle;whiteSpace=wrap;rounded=0;fontSize=28;labelBackgroundColor=none;" parent="1" vertex="1">
          <mxGeometry x="710" y="106" width="360" height="30" as="geometry" />
        </mxCell>
        <mxCell id="ctCYosp0sCTKplGfTtsr-3" value="&lt;b style=&quot;font-size: 28px;&quot;&gt;&lt;font style=&quot;font-size: 28px;&quot;&gt;MARKETS&lt;/font&gt;&lt;/b&gt;" style="text;html=1;strokeColor=none;fillColor=none;align=center;verticalAlign=middle;whiteSpace=wrap;rounded=0;fontSize=28;flipH=1;flipV=1;labelBackgroundColor=none;fontColor=default;" parent="1" vertex="1">
          <mxGeometry x="174" y="1066" width="60" height="30" as="geometry" />
        </mxCell>
        <mxCell id="ctCYosp0sCTKplGfTtsr-5" value="&lt;b style=&quot;font-size: 28px;&quot;&gt;&lt;font style=&quot;font-size: 28px;&quot;&gt;GOVERNANCE AGENT&lt;/font&gt;&lt;/b&gt;" style="text;html=1;strokeColor=none;fillColor=none;align=center;verticalAlign=middle;whiteSpace=wrap;rounded=0;fontSize=28;flipH=1;flipV=1;labelBackgroundColor=none;" parent="1" vertex="1">
          <mxGeometry x="694" y="1066" width="350" height="30" as="geometry" />
        </mxCell>
        <mxCell id="ZOvms_9HqLfs7or8Omiw-3" value="" style="endArrow=classic;html=1;rounded=1;strokeWidth=4;exitX=0.5;exitY=0;exitDx=0;exitDy=0;strokeColor=#2D7600;entryX=1;entryY=1;entryDx=0;entryDy=0;fontSize=28;" parent="1" source="vCILnfW43QbgVWq3aJDO-2" target="-QXtYBZmHGCKLa9BCGiK-7" edge="1">
          <mxGeometry width="50" height="50" relative="1" as="geometry">
            <mxPoint x="1004.5" y="940" as="sourcePoint" />
            <mxPoint x="1050" y="970" as="targetPoint" />
            <Array as="points">
              <mxPoint x="1078" y="1060" />
              <mxPoint x="1078" y="1010" />
            </Array>
          </mxGeometry>
        </mxCell>
        <mxCell id="ZOvms_9HqLfs7or8Omiw-6" value="" style="endArrow=classic;html=1;rounded=1;strokeWidth=4;exitX=1;exitY=0.5;exitDx=0;exitDy=0;strokeColor=#A50040;fontSize=28;entryX=0.998;entryY=0.613;entryDx=0;entryDy=0;entryPerimeter=0;" parent="1" source="vCILnfW43QbgVWq3aJDO-4" target="-QXtYBZmHGCKLa9BCGiK-7" edge="1">
          <mxGeometry width="50" height="50" relative="1" as="geometry">
            <mxPoint x="1175.9999999999998" y="1210.5" as="sourcePoint" />
            <mxPoint x="1050" y="990" as="targetPoint" />
            <Array as="points">
              <mxPoint x="1230" y="1240" />
              <mxPoint x="1230" y="1100" />
              <mxPoint x="1230" y="990" />
            </Array>
          </mxGeometry>
        </mxCell>
        <mxCell id="ZOvms_9HqLfs7or8Omiw-7" value="" style="endArrow=classic;html=1;rounded=1;strokeWidth=4;strokeColor=#2D7600;align=center;fontSize=28;" parent="1" edge="1">
          <mxGeometry width="50" height="50" relative="1" as="geometry">
            <mxPoint x="797" y="1469" as="sourcePoint" />
            <mxPoint x="1017" y="1469" as="targetPoint" />
            <Array as="points" />
          </mxGeometry>
        </mxCell>
        <mxCell id="ZOvms_9HqLfs7or8Omiw-8" value="&lt;span style=&quot;color: rgb(0, 0, 0); font-family: Georgia; font-style: normal; font-variant-ligatures: normal; font-variant-caps: normal; font-weight: 400; letter-spacing: normal; orphans: 2; text-indent: 0px; text-transform: none; widows: 2; word-spacing: 0px; -webkit-text-stroke-width: 0px; background-color: rgb(251, 251, 251); text-decoration-thickness: initial; text-decoration-style: initial; text-decoration-color: initial; float: none; font-size: 28px; display: inline !important;&quot;&gt;&lt;font style=&quot;font-size: 28px;&quot;&gt;Positive effect&lt;/font&gt;&lt;/span&gt;" style="text;whiteSpace=wrap;html=1;fontSize=28;align=center;" parent="1" vertex="1">
          <mxGeometry x="770" y="1420" width="260" height="60" as="geometry" />
        </mxCell>
        <mxCell id="ZOvms_9HqLfs7or8Omiw-9" value="" style="endArrow=classic;html=1;rounded=1;strokeWidth=4;strokeColor=#A50040;align=center;fontSize=28;" parent="1" edge="1">
          <mxGeometry width="50" height="50" relative="1" as="geometry">
            <mxPoint x="1048" y="1468" as="sourcePoint" />
            <mxPoint x="1268" y="1468" as="targetPoint" />
            <Array as="points" />
          </mxGeometry>
        </mxCell>
        <mxCell id="ZOvms_9HqLfs7or8Omiw-10" value="&lt;span style=&quot;color: rgb(0, 0, 0); font-family: Georgia; font-style: normal; font-variant-ligatures: normal; font-variant-caps: normal; font-weight: 400; letter-spacing: normal; orphans: 2; text-indent: 0px; text-transform: none; widows: 2; word-spacing: 0px; -webkit-text-stroke-width: 0px; background-color: rgb(251, 251, 251); text-decoration-thickness: initial; text-decoration-style: initial; text-decoration-color: initial; float: none; font-size: 28px; display: inline !important;&quot;&gt;&lt;font style=&quot;font-size: 28px;&quot;&gt;Negative effect&lt;/font&gt;&lt;/span&gt;" style="text;whiteSpace=wrap;html=1;fontSize=28;align=center;" parent="1" vertex="1">
          <mxGeometry x="1000" y="1420" width="294" height="60" as="geometry" />
        </mxCell>
        <mxCell id="QGoWNuJyqxulpLKJmEAq-1" value="" style="endArrow=classic;html=1;rounded=1;strokeWidth=4;entryX=-0.001;entryY=0.146;entryDx=0;entryDy=0;fontColor=#A50040;strokeColor=#A50040;entryPerimeter=0;fontSize=28;" parent="1" target="jf5s1wUn-RycJg9qTZxY-32" edge="1">
          <mxGeometry width="50" height="50" relative="1" as="geometry">
            <mxPoint x="606" y="415" as="sourcePoint" />
            <mxPoint x="736.1980000000001" y="508.84000000000003" as="targetPoint" />
            <Array as="points">
              <mxPoint x="640" y="415" />
              <mxPoint x="640" y="505" />
            </Array>
          </mxGeometry>
        </mxCell>
        <mxCell id="-8Erk-al8EBpHWDhuZkg-1" value="&lt;b style=&quot;font-size: 28px;&quot;&gt;&lt;i style=&quot;font-size: 28px;&quot;&gt;&lt;font style=&quot;font-size: 28px;&quot;&gt;... ...&lt;/font&gt;&lt;/i&gt;&lt;/b&gt;" style="text;html=1;strokeColor=none;fillColor=none;align=center;verticalAlign=middle;whiteSpace=wrap;rounded=0;fontSize=28;" parent="1" vertex="1">
          <mxGeometry x="341" y="1149" width="60" height="30" as="geometry" />
        </mxCell>
        <mxCell id="XqBTOMdp_4V3yexoGaqV-1" value="&lt;font style=&quot;font-size: 28px;&quot;&gt;&lt;font style=&quot;font-size: 28px;&quot;&gt;&lt;i&gt;Action&lt;/i&gt;&lt;/font&gt;&lt;br style=&quot;font-size: 28px;&quot;&gt;&lt;/font&gt;" style="rounded=1;whiteSpace=wrap;html=1;glass=0;fontFamily=Helvetica;fontSize=28;labelBackgroundColor=none;flipV=1;fontStyle=0;align=center;" parent="1" vertex="1">
          <mxGeometry x="570" y="1420" width="196" height="60" as="geometry" />
        </mxCell>
        <mxCell id="XqBTOMdp_4V3yexoGaqV-2" value="&lt;font style=&quot;font-weight: normal; font-size: 21px;&quot;&gt;State&lt;/font&gt;" style="rounded=0;whiteSpace=wrap;html=1;glass=0;fontFamily=Georgia;fontSize=21;fontStyle=1;labelBackgroundColor=none;align=center;" parent="1" vertex="1">
          <mxGeometry x="130" y="1420" width="198" height="60" as="geometry" />
        </mxCell>
        <mxCell id="XqBTOMdp_4V3yexoGaqV-4" value="&lt;font style=&quot;font-weight: normal; font-size: 21px;&quot; color=&quot;#808080&quot;&gt;Derived state&lt;/font&gt;" style="rounded=0;whiteSpace=wrap;html=1;glass=0;fontFamily=Georgia;fontSize=21;fontStyle=1;labelBackgroundColor=none;strokeColor=#333333;align=center;" parent="1" vertex="1">
          <mxGeometry x="350" y="1420" width="198" height="60" as="geometry" />
        </mxCell>
        <mxCell id="PNXK1F_a7gp4bBTyiuyp-3" value="" style="endArrow=classic;html=1;rounded=1;strokeWidth=4;strokeColor=#2D7600;fontSize=28;" parent="1" edge="1">
          <mxGeometry width="50" height="50" relative="1" as="geometry">
            <mxPoint x="740" y="610" as="sourcePoint" />
            <mxPoint x="301" y="450" as="targetPoint" />
            <Array as="points">
              <mxPoint x="360" y="610" />
              <mxPoint x="360" y="510" />
              <mxPoint x="300" y="510" />
            </Array>
          </mxGeometry>
        </mxCell>
        <mxCell id="LUqMS6holG8xu8e2dCEb-1" value="&lt;font style=&quot;font-size: 28px;&quot;&gt;&lt;i&gt;Offset&lt;/i&gt;&lt;/font&gt;" style="rounded=1;whiteSpace=wrap;html=1;glass=0;fontFamily=Helvetica;fontSize=28;fontStyle=0;labelBackgroundColor=none;flipV=1;flipH=0;" parent="1" vertex="1">
          <mxGeometry x="418" y="486" width="196" height="60" as="geometry" />
        </mxCell>
        <mxCell id="LUqMS6holG8xu8e2dCEb-2" value="" style="endArrow=classic;html=1;rounded=1;strokeWidth=4;strokeColor=#A50040;exitX=1;exitY=0.75;exitDx=0;exitDy=0;entryX=0.002;entryY=0.591;entryDx=0;entryDy=0;entryPerimeter=0;fontSize=28;" parent="1" source="LUqMS6holG8xu8e2dCEb-1" target="jf5s1wUn-RycJg9qTZxY-32" edge="1">
          <mxGeometry width="50" height="50" relative="1" as="geometry">
            <mxPoint x="620" y="501" as="sourcePoint" />
            <mxPoint x="730" y="531" as="targetPoint" />
            <Array as="points" />
          </mxGeometry>
        </mxCell>
        <mxCell id="4ReLxdrgx8-ft7qQTKcp-1" value="" style="endArrow=classic;html=1;rounded=1;strokeWidth=4;exitX=1;exitY=0.75;exitDx=0;exitDy=0;strokeColor=#A50040;entryX=0.25;entryY=0;entryDx=0;entryDy=0;fontSize=28;" parent="1" source="LUqMS6holG8xu8e2dCEb-1" target="jf5s1wUn-RycJg9qTZxY-38" edge="1">
          <mxGeometry width="50" height="50" relative="1" as="geometry">
            <mxPoint x="1456" y="310" as="sourcePoint" />
            <mxPoint x="730" y="600" as="targetPoint" />
            <Array as="points">
              <mxPoint x="710" y="531" />
              <mxPoint x="710" y="590" />
              <mxPoint x="770" y="590" />
            </Array>
          </mxGeometry>
        </mxCell>
        <mxCell id="jf5s1wUn-RycJg9qTZxY-6" value="&lt;span style=&quot;font-size: 28px;&quot;&gt;&lt;font style=&quot;font-size: 28px;&quot;&gt;&lt;i&gt;Withdraw&lt;/i&gt;&lt;/font&gt;&lt;/span&gt;" style="rounded=1;whiteSpace=wrap;html=1;glass=0;fontFamily=Helvetica;fontSize=28;fontStyle=0;labelBackgroundColor=none;flipV=1;flipH=0;" parent="1" vertex="1">
          <mxGeometry x="418" y="358" width="196" height="60" as="geometry" />
        </mxCell>
        <mxCell id="jf5s1wUn-RycJg9qTZxY-32" value="&lt;font style=&quot;font-weight: normal; font-size: 21px;&quot;&gt;&lt;font style=&quot;font-size: 21px;&quot;&gt;Supply tokens&lt;/font&gt;&lt;br style=&quot;font-size: 21px;&quot;&gt;&lt;/font&gt;&lt;div&gt;&lt;font style=&quot;font-weight: normal; font-size: 21px;&quot;&gt;&lt;font style=&quot;font-size: 21px;&quot;&gt;&lt;i&gt;S&lt;sub&gt;i&lt;/sub&gt;&lt;/i&gt;&lt;/font&gt;&lt;/font&gt;&lt;/div&gt;" style="rounded=0;whiteSpace=wrap;html=1;glass=0;fontFamily=Georgia;fontSize=21;fontStyle=1;labelBackgroundColor=none;" parent="1" vertex="1">
          <mxGeometry x="736" y="496" width="198" height="60" as="geometry" />
        </mxCell>
        <mxCell id="-QXtYBZmHGCKLa9BCGiK-7" value="&lt;font style=&quot;font-weight: normal; font-size: 21px;&quot;&gt;&lt;font style=&quot;font-size: 21px;&quot;&gt;Collateral factor&lt;/font&gt;&lt;br style=&quot;font-size: 21px;&quot;&gt;&lt;/font&gt;&lt;div&gt;&lt;font style=&quot;font-weight: normal; font-size: 21px;&quot;&gt;&lt;font style=&quot;font-size: 21px;&quot;&gt;&lt;i&gt;C&lt;sub&gt;i&lt;/sub&gt;&lt;/i&gt;&lt;/font&gt;&lt;/font&gt;&lt;/div&gt;" style="rounded=0;whiteSpace=wrap;html=1;glass=0;fontFamily=Georgia;fontSize=21;fontStyle=1;labelBackgroundColor=none;strokeWidth=5;" parent="1" vertex="1">
          <mxGeometry x="846" y="953" width="198" height="60" as="geometry" />
        </mxCell>
        <mxCell id="jf5s1wUn-RycJg9qTZxY-13" value="Supply interest rate&lt;div&gt;&lt;br&gt;&lt;/div&gt;" style="rounded=0;whiteSpace=wrap;html=1;glass=0;fontFamily=Georgia;fontSize=21;fontStyle=0;labelBackgroundColor=none;" parent="1" vertex="1">
          <mxGeometry x="736" y="712" width="198" height="60" as="geometry" />
        </mxCell>
        <mxCell id="cmv2HJtJwronWIcXGijn-3" value="" style="endArrow=classic;html=1;rounded=1;strokeWidth=4;strokeColor=#2D7600;entryX=1;entryY=1;entryDx=0;entryDy=0;fontSize=28;exitX=0.25;exitY=0;exitDx=0;exitDy=0;" parent="1" source="-QXtYBZmHGCKLa9BCGiK-1" target="jf5s1wUn-RycJg9qTZxY-38" edge="1">
          <mxGeometry width="50" height="50" relative="1" as="geometry">
            <mxPoint x="1050" y="710" as="sourcePoint" />
            <mxPoint x="940" y="660" as="targetPoint" />
            <Array as="points">
              <mxPoint x="1050" y="660" />
            </Array>
          </mxGeometry>
        </mxCell>
        <mxCell id="-QXtYBZmHGCKLa9BCGiK-12" value="&lt;font style=&quot;font-weight: normal; font-size: 21px;&quot;&gt;&lt;font color=&quot;#808080&quot; style=&quot;font-size: 21px;&quot;&gt;Supply confidence&lt;/font&gt;&lt;br style=&quot;font-size: 21px;&quot;&gt;&lt;/font&gt;" style="rounded=0;whiteSpace=wrap;html=1;glass=0;fontFamily=Georgia;fontSize=21;fontStyle=1;labelBackgroundColor=none;flipH=0;flipV=0;strokeColor=#333333;" parent="1" vertex="1">
          <mxGeometry x="150" y="710" width="198" height="60" as="geometry" />
        </mxCell>
        <mxCell id="jf5s1wUn-RycJg9qTZxY-38" value="&lt;p style=&quot;line-height: 0%;&quot;&gt;&lt;font style=&quot;font-weight: normal;&quot;&gt;Borrow tokens&lt;/font&gt;&lt;/p&gt;&lt;p style=&quot;line-height: 0%;&quot;&gt;&lt;i style=&quot;font-weight: normal; background-color: initial;&quot;&gt;&lt;sub&gt;&lt;span style=&quot;font-size: 21px;&quot;&gt;B&lt;/span&gt;i&lt;/sub&gt;&lt;/i&gt;&lt;/p&gt;" style="rounded=0;whiteSpace=wrap;html=1;glass=0;fontFamily=Georgia;fontSize=21;fontStyle=1;labelBackgroundColor=none;spacingTop=5;spacingBottom=0;spacing=0;" parent="1" vertex="1">
          <mxGeometry x="736" y="604" width="194" height="56" as="geometry" />
        </mxCell>
        <mxCell id="_m3SmOg4_IBAmYKFI5gp-1" value="&lt;span style=&quot;font-weight: 400; font-size: 21px;&quot;&gt;&lt;font style=&quot;font-size: 21px;&quot;&gt;Bad debts&lt;/font&gt;&lt;/span&gt;&lt;div style=&quot;font-size: 21px;&quot;&gt;&lt;span style=&quot;font-weight: 400; font-size: 21px;&quot;&gt;&lt;font style=&quot;font-size: 21px;&quot;&gt;&lt;i style=&quot;font-size: 21px;&quot;&gt;D&lt;/i&gt;&lt;/font&gt;&lt;/span&gt;&lt;/div&gt;" style="rounded=0;whiteSpace=wrap;html=1;glass=0;fontFamily=Georgia;fontSize=21;fontStyle=1;labelBackgroundColor=none;strokeWidth=1;" parent="1" vertex="1">
          <mxGeometry x="704" y="170" width="198" height="60" as="geometry" />
        </mxCell>
        <mxCell id="9AhFM80apXNU4McOsU0k-3" value="&lt;span style=&quot;font-size: 21px;&quot;&gt;$$R_i^S$$&lt;/span&gt;" style="text;html=1;align=center;verticalAlign=middle;resizable=0;points=[];autosize=1;strokeColor=none;fillColor=none;fontSize=21;" parent="1" vertex="1">
          <mxGeometry x="770" y="735" width="130" height="40" as="geometry" />
        </mxCell>
        <mxCell id="9AhFM80apXNU4McOsU0k-4" value="&lt;span style=&quot;font-size: 21px;&quot;&gt;$$R_i^B$$&lt;/span&gt;" style="text;html=1;align=center;verticalAlign=middle;resizable=0;points=[];autosize=1;strokeColor=none;fillColor=none;fontSize=21;" parent="1" vertex="1">
          <mxGeometry x="1034" y="735" width="130" height="40" as="geometry" />
        </mxCell>
        <mxCell id="9AhFM80apXNU4McOsU0k-5" value="&lt;span style=&quot;color: rgb(0, 0, 0); font-family: Helvetica; font-size: 21px; font-style: normal; font-variant-ligatures: normal; font-variant-caps: normal; font-weight: 400; letter-spacing: normal; orphans: 2; text-align: center; text-indent: 0px; text-transform: none; widows: 2; word-spacing: 0px; -webkit-text-stroke-width: 0px; white-space: nowrap; background-color: rgb(251, 251, 251); text-decoration-thickness: initial; text-decoration-style: initial; text-decoration-color: initial; float: none; display: inline !important;&quot;&gt;$$R_i^{B,c}$$&lt;/span&gt;" style="text;whiteSpace=wrap;html=1;fontSize=21;" parent="1" vertex="1">
          <mxGeometry x="317" y="1298.5" width="60" height="45.5" as="geometry" />
        </mxCell>
        <mxCell id="9AhFM80apXNU4McOsU0k-9" value="&lt;span style=&quot;color: rgb(0, 0, 0); font-family: Helvetica; font-size: 21px; font-style: normal; font-variant-ligatures: normal; font-variant-caps: normal; font-weight: 400; letter-spacing: normal; orphans: 2; text-align: center; text-indent: 0px; text-transform: none; widows: 2; word-spacing: 0px; -webkit-text-stroke-width: 0px; white-space: nowrap; background-color: rgb(251, 251, 251); text-decoration-thickness: initial; text-decoration-style: initial; text-decoration-color: initial; float: none; display: inline !important;&quot;&gt;$$R_i^{S,c}$$&lt;/span&gt;" style="text;whiteSpace=wrap;html=1;fontSize=21;" parent="1" vertex="1">
          <mxGeometry x="548" y="1298.5" width="60" height="45.5" as="geometry" />
        </mxCell>
        <mxCell id="z8gj4ZYv3272OaIGHWRM-6" value="" style="endArrow=classic;html=1;rounded=1;strokeWidth=4;entryX=0;entryY=0.5;entryDx=0;entryDy=0;fontColor=#A50040;strokeColor=#A50040;fontSize=28;exitX=1;exitY=0.5;exitDx=0;exitDy=0;" parent="1" source="_m3SmOg4_IBAmYKFI5gp-1" target="FwXsFX6LTekc_KHHLrAV-1" edge="1">
          <mxGeometry width="50" height="50" relative="1" as="geometry">
            <mxPoint x="909.2" y="70" as="sourcePoint" />
            <mxPoint x="1030.804" y="70.32000000000005" as="targetPoint" />
            <Array as="points" />
          </mxGeometry>
        </mxCell>
      </root>
    </mxGraphModel>
  </diagram>
  <diagram id="5FkDFm-gR27lIeJ50qi9" name="training">
    <mxGraphModel dx="1360" dy="670" grid="1" gridSize="10" guides="1" tooltips="1" connect="1" arrows="1" fold="1" page="1" pageScale="1" pageWidth="850" pageHeight="1100" math="0" shadow="0">
      <root>
        <mxCell id="0" />
        <mxCell id="1" parent="0" />
        <mxCell id="i-KVh5bigS_ALAbiqOzi-1" value="&lt;font style=&quot;font-size: 30px;&quot; color=&quot;#ffffff&quot;&gt;Replay Memory&lt;/font&gt;" style="shape=cylinder3;whiteSpace=wrap;html=1;boundedLbl=1;backgroundOutline=1;size=15;labelBackgroundColor=none;strokeColor=#000000;strokeWidth=1;fontSize=30;fillColor=#808080;" parent="1" vertex="1">
          <mxGeometry x="355" y="100" width="220" height="110" as="geometry" />
        </mxCell>
        <mxCell id="i-KVh5bigS_ALAbiqOzi-2" value="&lt;font color=&quot;#000000&quot; style=&quot;font-size: 30px;&quot;&gt;Policy Net&lt;/font&gt;" style="rounded=0;whiteSpace=wrap;html=1;labelBackgroundColor=none;strokeColor=#000000;strokeWidth=1;fontSize=30;fontColor=#FFFFFF;fillColor=#FFFFFF;" parent="1" vertex="1">
          <mxGeometry x="355" y="244" width="220" height="66" as="geometry" />
        </mxCell>
        <mxCell id="i-KVh5bigS_ALAbiqOzi-3" value="&lt;font color=&quot;#000000&quot; style=&quot;font-size: 30px;&quot;&gt;Target Net&lt;/font&gt;" style="rounded=0;whiteSpace=wrap;html=1;labelBackgroundColor=none;strokeColor=#000000;strokeWidth=1;fontSize=30;fontColor=#FFFFFF;fillColor=#FFFFFF;" parent="1" vertex="1">
          <mxGeometry x="355" y="354" width="220" height="60" as="geometry" />
        </mxCell>
        <mxCell id="i-KVh5bigS_ALAbiqOzi-4" value="Adam Optimization" style="ellipse;whiteSpace=wrap;html=1;labelBackgroundColor=none;strokeColor=#000000;strokeWidth=1;fontSize=30;fontColor=#000000;fillColor=#FFFFFF;" parent="1" vertex="1">
          <mxGeometry x="672" y="238" width="248" height="90" as="geometry" />
        </mxCell>
        <mxCell id="i-KVh5bigS_ALAbiqOzi-5" value="Update" style="ellipse;whiteSpace=wrap;html=1;labelBackgroundColor=none;strokeColor=#000000;strokeWidth=1;fontSize=30;fontColor=#000000;fillColor=#FFFFFF;" parent="1" vertex="1">
          <mxGeometry x="20" y="304" width="220" height="56" as="geometry" />
        </mxCell>
        <mxCell id="i-KVh5bigS_ALAbiqOzi-6" value="" style="endArrow=classic;html=1;rounded=1;strokeColor=#000000;strokeWidth=1;fontSize=30;fontColor=#000000;entryX=0.5;entryY=0;entryDx=0;entryDy=0;exitX=1;exitY=0.5;exitDx=0;exitDy=0;exitPerimeter=0;" parent="1" source="i-KVh5bigS_ALAbiqOzi-1" target="i-KVh5bigS_ALAbiqOzi-4" edge="1">
          <mxGeometry width="50" height="50" relative="1" as="geometry">
            <mxPoint x="545" y="160" as="sourcePoint" />
            <mxPoint x="785" y="110" as="targetPoint" />
            <Array as="points">
              <mxPoint x="796" y="155" />
            </Array>
          </mxGeometry>
        </mxCell>
        <mxCell id="i-KVh5bigS_ALAbiqOzi-7" value="Batches" style="edgeLabel;html=1;align=center;verticalAlign=middle;resizable=0;points=[];fontSize=30;fontColor=#000000;" parent="i-KVh5bigS_ALAbiqOzi-6" vertex="1" connectable="0">
          <mxGeometry x="-0.316" y="-1" relative="1" as="geometry">
            <mxPoint x="-1" as="offset" />
          </mxGeometry>
        </mxCell>
        <mxCell id="i-KVh5bigS_ALAbiqOzi-9" value="" style="endArrow=classic;html=1;rounded=1;strokeColor=#000000;strokeWidth=1;fontSize=30;fontColor=#000000;exitX=1;exitY=0.5;exitDx=0;exitDy=0;entryX=0.5;entryY=1;entryDx=0;entryDy=0;" parent="1" source="i-KVh5bigS_ALAbiqOzi-3" target="i-KVh5bigS_ALAbiqOzi-4" edge="1">
          <mxGeometry width="50" height="50" relative="1" as="geometry">
            <mxPoint x="545" y="160" as="sourcePoint" />
            <mxPoint x="595" y="110" as="targetPoint" />
            <Array as="points">
              <mxPoint x="796" y="385" />
            </Array>
          </mxGeometry>
        </mxCell>
        <mxCell id="i-KVh5bigS_ALAbiqOzi-10" value="" style="endArrow=classic;html=1;rounded=1;strokeColor=#000000;strokeWidth=1;fontSize=30;fontColor=#000000;exitX=0.002;exitY=0.563;exitDx=0;exitDy=0;entryX=0.5;entryY=0;entryDx=0;entryDy=0;exitPerimeter=0;" parent="1" source="i-KVh5bigS_ALAbiqOzi-2" target="i-KVh5bigS_ALAbiqOzi-5" edge="1">
          <mxGeometry width="50" height="50" relative="1" as="geometry">
            <mxPoint x="465" y="160" as="sourcePoint" />
            <mxPoint x="515" y="110" as="targetPoint" />
            <Array as="points">
              <mxPoint x="130" y="281" />
            </Array>
          </mxGeometry>
        </mxCell>
        <mxCell id="i-KVh5bigS_ALAbiqOzi-11" value="" style="endArrow=classic;html=1;rounded=1;strokeColor=#000000;strokeWidth=1;fontSize=30;fontColor=#000000;exitX=0.5;exitY=1;exitDx=0;exitDy=0;entryX=0;entryY=0.5;entryDx=0;entryDy=0;" parent="1" source="i-KVh5bigS_ALAbiqOzi-5" target="i-KVh5bigS_ALAbiqOzi-3" edge="1">
          <mxGeometry width="50" height="50" relative="1" as="geometry">
            <mxPoint x="345" y="520" as="sourcePoint" />
            <mxPoint x="395" y="470" as="targetPoint" />
            <Array as="points">
              <mxPoint x="130" y="385" />
            </Array>
          </mxGeometry>
        </mxCell>
        <mxCell id="i-KVh5bigS_ALAbiqOzi-13" value="" style="curved=1;endArrow=classic;html=1;rounded=1;strokeColor=#000000;strokeWidth=1;fontSize=30;fontColor=#000000;exitX=1.002;exitY=0.41;exitDx=0;exitDy=0;entryX=0.008;entryY=0.406;entryDx=0;entryDy=0;entryPerimeter=0;exitPerimeter=0;" parent="1" source="i-KVh5bigS_ALAbiqOzi-2" target="i-KVh5bigS_ALAbiqOzi-4" edge="1">
          <mxGeometry width="50" height="50" relative="1" as="geometry">
            <mxPoint x="655" y="280" as="sourcePoint" />
            <mxPoint x="705" y="230" as="targetPoint" />
            <Array as="points">
              <mxPoint x="625" y="240" />
            </Array>
          </mxGeometry>
        </mxCell>
        <mxCell id="i-KVh5bigS_ALAbiqOzi-14" value="" style="curved=1;endArrow=classic;html=1;rounded=1;strokeColor=#000000;strokeWidth=1;fontSize=30;fontColor=#000000;exitX=0;exitY=0.5;exitDx=0;exitDy=0;entryX=0.994;entryY=0.581;entryDx=0;entryDy=0;entryPerimeter=0;" parent="1" source="i-KVh5bigS_ALAbiqOzi-4" edge="1" target="i-KVh5bigS_ALAbiqOzi-2">
          <mxGeometry width="50" height="50" relative="1" as="geometry">
            <mxPoint x="595" y="370" as="sourcePoint" />
            <mxPoint x="575" y="300" as="targetPoint" />
            <Array as="points">
              <mxPoint x="630" y="320" />
            </Array>
          </mxGeometry>
        </mxCell>
        <mxCell id="i-KVh5bigS_ALAbiqOzi-15" value="Environment" style="rounded=0;whiteSpace=wrap;html=1;labelBackgroundColor=none;strokeColor=#000000;strokeWidth=1;fontSize=30;fontColor=#000000;fillColor=#FFFFFF;" parent="1" vertex="1">
          <mxGeometry x="5" y="125" width="180" height="60" as="geometry" />
        </mxCell>
        <mxCell id="i-KVh5bigS_ALAbiqOzi-16" value="" style="endArrow=classic;html=1;rounded=1;strokeColor=#000000;strokeWidth=1;fontSize=30;fontColor=#000000;exitX=0;exitY=0.25;exitDx=0;exitDy=0;entryX=0.5;entryY=1;entryDx=0;entryDy=0;" parent="1" source="i-KVh5bigS_ALAbiqOzi-2" target="i-KVh5bigS_ALAbiqOzi-15" edge="1">
          <mxGeometry width="50" height="50" relative="1" as="geometry">
            <mxPoint x="455" y="200" as="sourcePoint" />
            <mxPoint x="505" y="150" as="targetPoint" />
            <Array as="points">
              <mxPoint x="95" y="260" />
            </Array>
          </mxGeometry>
        </mxCell>
        <mxCell id="i-KVh5bigS_ALAbiqOzi-18" value="Actions" style="edgeLabel;html=1;align=center;verticalAlign=middle;resizable=0;points=[];fontSize=30;fontColor=#000000;" parent="i-KVh5bigS_ALAbiqOzi-16" vertex="1" connectable="0">
          <mxGeometry x="-0.3106" y="-1" relative="1" as="geometry">
            <mxPoint x="-145" y="-15" as="offset" />
          </mxGeometry>
        </mxCell>
        <mxCell id="i-KVh5bigS_ALAbiqOzi-17" value="" style="endArrow=classic;html=1;rounded=1;strokeColor=#000000;strokeWidth=1;fontSize=30;fontColor=#000000;exitX=1;exitY=0.5;exitDx=0;exitDy=0;entryX=0;entryY=0.5;entryDx=0;entryDy=0;entryPerimeter=0;" parent="1" source="i-KVh5bigS_ALAbiqOzi-15" target="i-KVh5bigS_ALAbiqOzi-1" edge="1">
          <mxGeometry width="50" height="50" relative="1" as="geometry">
            <mxPoint x="375" y="230" as="sourcePoint" />
            <mxPoint x="425" y="180" as="targetPoint" />
          </mxGeometry>
        </mxCell>
        <mxCell id="i-KVh5bigS_ALAbiqOzi-19" value="&lt;font style=&quot;font-size: 29px;&quot;&gt;Actions&lt;br style=&quot;&quot;&gt;States&lt;br style=&quot;&quot;&gt;Rewards&lt;br style=&quot;&quot;&gt;Status&lt;/font&gt;" style="edgeLabel;html=1;align=center;verticalAlign=middle;resizable=0;points=[];fontSize=30;fontColor=#000000;" parent="i-KVh5bigS_ALAbiqOzi-17" vertex="1" connectable="0">
          <mxGeometry x="-0.1678" y="-2" relative="1" as="geometry">
            <mxPoint x="9" y="-2" as="offset" />
          </mxGeometry>
        </mxCell>
      </root>
    </mxGraphModel>
  </diagram>
  <diagram id="X3ha71niN7k5oTmfNbEm" name="user-action">
    <mxGraphModel dx="2162" dy="804" grid="1" gridSize="10" guides="1" tooltips="1" connect="1" arrows="1" fold="1" page="1" pageScale="1" pageWidth="850" pageHeight="1100" math="0" shadow="0">
      <root>
        <mxCell id="0" />
        <mxCell id="1" parent="0" />
        <mxCell id="GjImz91DzN91tjrXtHh0-19" value="" style="rounded=0;whiteSpace=wrap;html=1;fillColor=#f8cecc;strokeColor=none;fontSize=17;strokeWidth=0;" parent="1" vertex="1">
          <mxGeometry x="-840" y="170" width="210" height="690" as="geometry" />
        </mxCell>
        <mxCell id="GjImz91DzN91tjrXtHh0-20" value="" style="rounded=0;whiteSpace=wrap;html=1;fontSize=17;fillColor=#EEEEEE;strokeColor=none;strokeWidth=0;" parent="1" vertex="1">
          <mxGeometry x="-640" y="170" width="620" height="690" as="geometry" />
        </mxCell>
        <mxCell id="GjImz91DzN91tjrXtHh0-21" value="" style="rounded=0;whiteSpace=wrap;html=1;fillColor=#fff2cc;strokeColor=none;fontSize=17;strokeWidth=0;" parent="1" vertex="1">
          <mxGeometry x="-660" y="300.75" width="179" height="183.25" as="geometry" />
        </mxCell>
        <mxCell id="GjImz91DzN91tjrXtHh0-22" style="edgeStyle=orthogonalEdgeStyle;rounded=1;orthogonalLoop=1;jettySize=auto;html=1;exitX=0;exitY=0.5;exitDx=0;exitDy=0;entryX=0.5;entryY=0;entryDx=0;entryDy=0;strokeWidth=2;fontSize=17;" parent="1" source="GjImz91DzN91tjrXtHh0-26" target="GjImz91DzN91tjrXtHh0-29" edge="1">
          <mxGeometry relative="1" as="geometry">
            <mxPoint x="-624" y="394" as="targetPoint" />
            <Array as="points">
              <mxPoint x="-732" y="229" />
            </Array>
          </mxGeometry>
        </mxCell>
        <mxCell id="GjImz91DzN91tjrXtHh0-23" value="Yes" style="edgeLabel;html=1;align=center;verticalAlign=middle;resizable=0;points=[];fontSize=17;labelBackgroundColor=#F8CECC;" parent="GjImz91DzN91tjrXtHh0-22" vertex="1" connectable="0">
          <mxGeometry x="-0.1829" relative="1" as="geometry">
            <mxPoint y="15" as="offset" />
          </mxGeometry>
        </mxCell>
        <mxCell id="GjImz91DzN91tjrXtHh0-24" style="edgeStyle=orthogonalEdgeStyle;rounded=1;orthogonalLoop=1;jettySize=auto;html=1;entryX=0.5;entryY=0;entryDx=0;entryDy=0;strokeColor=#001DBC;strokeWidth=2;fontSize=17;fillColor=#0050ef;exitX=1;exitY=0.5;exitDx=0;exitDy=0;" parent="1" source="GjImz91DzN91tjrXtHh0-26" target="GjImz91DzN91tjrXtHh0-40" edge="1">
          <mxGeometry relative="1" as="geometry">
            <mxPoint x="-577" y="181" as="sourcePoint" />
            <Array as="points">
              <mxPoint x="-509" y="229" />
            </Array>
            <mxPoint x="-503" y="192.37" as="targetPoint" />
          </mxGeometry>
        </mxCell>
        <mxCell id="GjImz91DzN91tjrXtHh0-25" value="No" style="edgeLabel;html=1;align=center;verticalAlign=middle;resizable=0;points=[];fontSize=17;labelBackgroundColor=#EEEEEE;" parent="GjImz91DzN91tjrXtHh0-24" vertex="1" connectable="0">
          <mxGeometry x="-0.14" y="-1" relative="1" as="geometry">
            <mxPoint x="4" y="-1" as="offset" />
          </mxGeometry>
        </mxCell>
        <mxCell id="GjImz91DzN91tjrXtHh0-26" value="&lt;font style=&quot;font-size: 17px;&quot;&gt;Perform&lt;br style=&quot;font-size: 17px;&quot;&gt;price oracle&lt;br style=&quot;font-size: 17px;&quot;&gt;attack?&lt;/font&gt;" style="rhombus;whiteSpace=wrap;html=1;fillColor=#e1d5e7;strokeColor=#9673a6;strokeWidth=2;fontSize=17;" parent="1" vertex="1">
          <mxGeometry x="-708" y="187" width="135" height="83" as="geometry" />
        </mxCell>
        <mxCell id="GjImz91DzN91tjrXtHh0-27" value="" style="edgeStyle=orthogonalEdgeStyle;rounded=0;orthogonalLoop=1;jettySize=auto;html=1;strokeWidth=2;fontSize=17;" parent="1" source="GjImz91DzN91tjrXtHh0-28" target="GjImz91DzN91tjrXtHh0-31" edge="1">
          <mxGeometry relative="1" as="geometry" />
        </mxCell>
        <mxCell id="GjImz91DzN91tjrXtHh0-28" value="&lt;font style=&quot;font-size: 17px;&quot;&gt;Deposit TKN&lt;/font&gt;" style="rounded=1;whiteSpace=wrap;html=1;fillColor=#FFFFFF;strokeColor=#6c8ebf;strokeWidth=2;flipH=1;fontSize=17;" parent="1" vertex="1">
          <mxGeometry x="-792" y="362.75" width="120" height="50" as="geometry" />
        </mxCell>
        <mxCell id="GjImz91DzN91tjrXtHh0-29" value="&lt;font style=&quot;font-size: 17px;&quot;&gt;Distort TKN price by 200x&lt;/font&gt;" style="rounded=1;whiteSpace=wrap;html=1;fillColor=#FFFFFF;strokeColor=#6c8ebf;strokeWidth=2;flipH=1;fontSize=17;" parent="1" vertex="1">
          <mxGeometry x="-792" y="285" width="120" height="50" as="geometry" />
        </mxCell>
        <mxCell id="GjImz91DzN91tjrXtHh0-30" value="" style="edgeStyle=orthogonalEdgeStyle;rounded=0;orthogonalLoop=1;jettySize=auto;html=1;strokeWidth=2;fontSize=17;" parent="1" source="GjImz91DzN91tjrXtHh0-31" target="GjImz91DzN91tjrXtHh0-37" edge="1">
          <mxGeometry relative="1" as="geometry" />
        </mxCell>
        <mxCell id="GjImz91DzN91tjrXtHh0-31" value="&lt;font style=&quot;font-size: 17px;&quot;&gt;Offset TKN loan&lt;/font&gt;" style="rounded=1;whiteSpace=wrap;html=1;fillColor=#FFFFFF;strokeColor=#6c8ebf;strokeWidth=2;flipH=1;fontSize=17;" parent="1" vertex="1">
          <mxGeometry x="-792" y="450.75" width="120" height="42" as="geometry" />
        </mxCell>
        <mxCell id="GjImz91DzN91tjrXtHh0-32" value="" style="edgeStyle=orthogonalEdgeStyle;rounded=0;orthogonalLoop=1;jettySize=auto;html=1;strokeWidth=2;fontSize=17;" parent="1" source="GjImz91DzN91tjrXtHh0-33" target="GjImz91DzN91tjrXtHh0-35" edge="1">
          <mxGeometry relative="1" as="geometry" />
        </mxCell>
        <mxCell id="GjImz91DzN91tjrXtHh0-33" value="&lt;font style=&quot;font-size: 17px;&quot;&gt;Borrow ETH&lt;br style=&quot;font-size: 17px;&quot;&gt;and USDC&lt;/font&gt;" style="rounded=1;whiteSpace=wrap;html=1;fillColor=#FFFFFF;strokeColor=#6c8ebf;strokeWidth=2;flipH=1;fontSize=17;" parent="1" vertex="1">
          <mxGeometry x="-792" y="632.75" width="120" height="50" as="geometry" />
        </mxCell>
        <mxCell id="GjImz91DzN91tjrXtHh0-34" value="" style="edgeStyle=orthogonalEdgeStyle;rounded=0;orthogonalLoop=1;jettySize=auto;html=1;strokeWidth=2;fontSize=17;entryX=0.464;entryY=-0.036;entryDx=0;entryDy=0;entryPerimeter=0;" parent="1" source="GjImz91DzN91tjrXtHh0-35" edge="1" target="GjImz91DzN91tjrXtHh0-68">
          <mxGeometry relative="1" as="geometry">
            <mxPoint x="-732" y="870" as="targetPoint" />
          </mxGeometry>
        </mxCell>
        <mxCell id="GjImz91DzN91tjrXtHh0-35" value="&lt;font style=&quot;font-size: 17px;&quot;&gt;Withdraw TKN&lt;/font&gt;" style="rounded=1;whiteSpace=wrap;html=1;fillColor=#FFFFFF;strokeColor=#6c8ebf;strokeWidth=2;flipH=1;fontSize=17;" parent="1" vertex="1">
          <mxGeometry x="-792" y="724.75" width="120" height="30" as="geometry" />
        </mxCell>
        <mxCell id="GjImz91DzN91tjrXtHh0-36" value="" style="edgeStyle=orthogonalEdgeStyle;rounded=0;orthogonalLoop=1;jettySize=auto;html=1;strokeWidth=2;fontSize=17;" parent="1" source="GjImz91DzN91tjrXtHh0-37" target="GjImz91DzN91tjrXtHh0-33" edge="1">
          <mxGeometry relative="1" as="geometry" />
        </mxCell>
        <mxCell id="GjImz91DzN91tjrXtHh0-37" value="&lt;font style=&quot;font-size: 17px;&quot;&gt;Offset ETH and USDC loan&lt;/font&gt;" style="rounded=1;whiteSpace=wrap;html=1;fillColor=#FFFFFF;strokeColor=#6c8ebf;strokeWidth=2;flipH=1;fontSize=17;" parent="1" vertex="1">
          <mxGeometry x="-792" y="531.75" width="120" height="64" as="geometry" />
        </mxCell>
        <mxCell id="GjImz91DzN91tjrXtHh0-38" value="" style="edgeStyle=orthogonalEdgeStyle;rounded=1;orthogonalLoop=1;jettySize=auto;html=1;strokeColor=#3700CC;strokeWidth=2;fontSize=17;fillColor=#6a00ff;entryX=0.5;entryY=0;entryDx=0;entryDy=0;exitX=0.5;exitY=1;exitDx=0;exitDy=0;" parent="1" source="GjImz91DzN91tjrXtHh0-40" target="GjImz91DzN91tjrXtHh0-44" edge="1">
          <mxGeometry relative="1" as="geometry">
            <Array as="points">
              <mxPoint x="-509" y="340" />
              <mxPoint x="-563" y="340" />
            </Array>
          </mxGeometry>
        </mxCell>
        <mxCell id="GjImz91DzN91tjrXtHh0-39" value="Yes" style="edgeLabel;html=1;align=center;verticalAlign=middle;resizable=0;points=[];fontSize=17;labelBackgroundColor=#FFF2CC;" parent="GjImz91DzN91tjrXtHh0-38" vertex="1" connectable="0">
          <mxGeometry x="0.1327" y="-1" relative="1" as="geometry">
            <mxPoint x="8" as="offset" />
          </mxGeometry>
        </mxCell>
        <mxCell id="GjImz91DzN91tjrXtHh0-40" value="&lt;font style=&quot;font-size: 17px;&quot;&gt;Undercollateralized&lt;br style=&quot;font-size: 17px;&quot;&gt;value&amp;nbsp;&amp;gt; 0?&lt;/font&gt;" style="rhombus;whiteSpace=wrap;html=1;fillColor=#e1d5e7;strokeColor=#9673a6;strokeWidth=2;fontSize=17;" parent="1" vertex="1">
          <mxGeometry x="-600" y="251" width="182" height="62" as="geometry" />
        </mxCell>
        <mxCell id="GjImz91DzN91tjrXtHh0-41" style="edgeStyle=orthogonalEdgeStyle;rounded=1;orthogonalLoop=1;jettySize=auto;html=1;exitX=1;exitY=0.5;exitDx=0;exitDy=0;entryX=0;entryY=0.5;entryDx=0;entryDy=0;strokeWidth=2;fillColor=#d80073;strokeColor=#A50040;fontSize=17;" parent="1" source="GjImz91DzN91tjrXtHh0-40" target="GjImz91DzN91tjrXtHh0-79" edge="1">
          <mxGeometry relative="1" as="geometry">
            <mxPoint x="-214" y="338.75" as="targetPoint" />
            <mxPoint x="-488" y="644" as="sourcePoint" />
            <Array as="points" />
          </mxGeometry>
        </mxCell>
        <mxCell id="GjImz91DzN91tjrXtHh0-42" value="No" style="edgeLabel;html=1;align=center;verticalAlign=middle;resizable=0;points=[];fontSize=17;labelBackgroundColor=#EEEEEE;" parent="GjImz91DzN91tjrXtHh0-41" vertex="1" connectable="0">
          <mxGeometry x="-0.5842" y="1" relative="1" as="geometry">
            <mxPoint x="11" y="1" as="offset" />
          </mxGeometry>
        </mxCell>
        <mxCell id="GjImz91DzN91tjrXtHh0-43" style="edgeStyle=orthogonalEdgeStyle;rounded=1;orthogonalLoop=1;jettySize=auto;html=1;entryX=0.5;entryY=0;entryDx=0;entryDy=0;strokeWidth=2;fontSize=17;strokeColor=#001DBC;" parent="1" source="GjImz91DzN91tjrXtHh0-44" target="GjImz91DzN91tjrXtHh0-46" edge="1">
          <mxGeometry relative="1" as="geometry" />
        </mxCell>
        <mxCell id="GjImz91DzN91tjrXtHh0-44" value="&lt;font style=&quot;font-size: 17px;&quot;&gt;Default on loan&lt;/font&gt;" style="rounded=1;whiteSpace=wrap;html=1;fillColor=#FFFFFF;strokeColor=#6c8ebf;strokeWidth=2;fontSize=17;" parent="1" vertex="1">
          <mxGeometry x="-623" y="373" width="120" height="30" as="geometry" />
        </mxCell>
        <mxCell id="GjImz91DzN91tjrXtHh0-45" style="edgeStyle=orthogonalEdgeStyle;rounded=1;orthogonalLoop=1;jettySize=auto;html=1;curved=0;strokeColor=#001DBC;strokeWidth=2;entryX=0.481;entryY=0.997;entryDx=0;entryDy=0;exitX=0.5;exitY=1;exitDx=0;exitDy=0;entryPerimeter=0;" parent="1" source="GjImz91DzN91tjrXtHh0-46" target="GjImz91DzN91tjrXtHh0-88" edge="1">
          <mxGeometry relative="1" as="geometry">
            <mxPoint x="-555" y="573.75" as="targetPoint" />
            <mxPoint x="-560" y="452" as="sourcePoint" />
            <Array as="points">
              <mxPoint x="-563" y="452" />
              <mxPoint x="-562" y="452" />
            </Array>
          </mxGeometry>
        </mxCell>
        <mxCell id="GjImz91DzN91tjrXtHh0-46" value="&lt;font style=&quot;font-size: 17px;&quot;&gt;Bad debt inccured&lt;/font&gt;" style="rounded=0;whiteSpace=wrap;html=1;fillColor=#FFFFFF;strokeColor=#82b366;strokeWidth=2;fontSize=17;" parent="1" vertex="1">
          <mxGeometry x="-630" y="425.75" width="134" height="40" as="geometry" />
        </mxCell>
        <mxCell id="GjImz91DzN91tjrXtHh0-47" style="edgeStyle=orthogonalEdgeStyle;rounded=1;orthogonalLoop=1;jettySize=auto;html=1;entryX=0.5;entryY=0;entryDx=0;entryDy=0;strokeWidth=2;fillColor=#a0522d;strokeColor=#6D1F00;fontSize=17;exitX=0.102;exitY=0.996;exitDx=0;exitDy=0;exitPerimeter=0;" parent="1" target="GjImz91DzN91tjrXtHh0-52" edge="1" source="GjImz91DzN91tjrXtHh0-80">
          <mxGeometry relative="1" as="geometry">
            <mxPoint x="-134.99999999999977" y="262" as="sourcePoint" />
            <Array as="points" />
            <mxPoint x="-132" y="306" as="targetPoint" />
          </mxGeometry>
        </mxCell>
        <mxCell id="GjImz91DzN91tjrXtHh0-48" style="edgeStyle=orthogonalEdgeStyle;rounded=1;orthogonalLoop=1;jettySize=auto;html=1;strokeColor=#999900;strokeWidth=2;fontSize=17;fillColor=#1ba1e2;exitX=0;exitY=0.5;exitDx=0;exitDy=0;" parent="1" source="GjImz91DzN91tjrXtHh0-52" edge="1">
          <mxGeometry relative="1" as="geometry">
            <Array as="points">
              <mxPoint x="-237" y="367" />
            </Array>
            <mxPoint x="-237" y="460" as="targetPoint" />
          </mxGeometry>
        </mxCell>
        <mxCell id="GjImz91DzN91tjrXtHh0-49" value="No" style="edgeLabel;html=1;align=center;verticalAlign=middle;resizable=0;points=[];fontSize=17;labelBackgroundColor=#EEEEEE;" parent="GjImz91DzN91tjrXtHh0-48" vertex="1" connectable="0">
          <mxGeometry x="0.2465" relative="1" as="geometry">
            <mxPoint x="1" y="-19" as="offset" />
          </mxGeometry>
        </mxCell>
        <mxCell id="GjImz91DzN91tjrXtHh0-50" style="edgeStyle=orthogonalEdgeStyle;rounded=1;orthogonalLoop=1;jettySize=auto;html=1;entryX=1;entryY=0.5;entryDx=0;entryDy=0;strokeWidth=2;fontSize=17;exitX=1;exitY=0.5;exitDx=0;exitDy=0;fillColor=#fa6800;strokeColor=#C73500;" parent="1" source="GjImz91DzN91tjrXtHh0-52" target="GjImz91DzN91tjrXtHh0-71" edge="1">
          <mxGeometry relative="1" as="geometry">
            <Array as="points">
              <mxPoint x="-65" y="367" />
            </Array>
          </mxGeometry>
        </mxCell>
        <mxCell id="GjImz91DzN91tjrXtHh0-51" value="Yes" style="edgeLabel;html=1;align=center;verticalAlign=middle;resizable=0;points=[];fontSize=17;labelBackgroundColor=#EEEEEE;" parent="GjImz91DzN91tjrXtHh0-50" vertex="1" connectable="0">
          <mxGeometry x="-0.0605" y="-1" relative="1" as="geometry">
            <mxPoint x="-4" y="-66" as="offset" />
          </mxGeometry>
        </mxCell>
        <mxCell id="GjImz91DzN91tjrXtHh0-52" value="&lt;font style=&quot;font-size: 17px;&quot;&gt;Able to&lt;br style=&quot;font-size: 17px;&quot;&gt;withdraw at will&lt;br style=&quot;font-size: 17px;&quot;&gt;within limit?&lt;/font&gt;" style="rhombus;whiteSpace=wrap;html=1;fillColor=#e1d5e7;strokeColor=#9673a6;strokeWidth=2;fontSize=17;" parent="1" vertex="1">
          <mxGeometry x="-239" y="327" width="176" height="80" as="geometry" />
        </mxCell>
        <mxCell id="GjImz91DzN91tjrXtHh0-53" style="edgeStyle=orthogonalEdgeStyle;rounded=1;orthogonalLoop=1;jettySize=auto;html=1;entryX=0.5;entryY=0;entryDx=0;entryDy=0;strokeColor=#FF00FF;strokeWidth=2;fontSize=17;exitX=0.5;exitY=1;exitDx=0;exitDy=0;" parent="1" source="GjImz91DzN91tjrXtHh0-55" target="GjImz91DzN91tjrXtHh0-71" edge="1">
          <mxGeometry relative="1" as="geometry">
            <mxPoint x="-435.5" y="694" as="targetPoint" />
            <Array as="points">
              <mxPoint x="-399" y="530" />
              <mxPoint x="-155" y="530" />
            </Array>
          </mxGeometry>
        </mxCell>
        <mxCell id="GjImz91DzN91tjrXtHh0-54" value="Yes&amp;nbsp;" style="edgeLabel;html=1;align=center;verticalAlign=middle;resizable=0;points=[];fontSize=17;labelBackgroundColor=#EEEEEE;" parent="GjImz91DzN91tjrXtHh0-53" vertex="1" connectable="0">
          <mxGeometry x="0.5072" y="-1" relative="1" as="geometry">
            <mxPoint x="-102" y="-1" as="offset" />
          </mxGeometry>
        </mxCell>
        <mxCell id="GjImz91DzN91tjrXtHh0-55" value="&lt;font style=&quot;font-size: 17px;&quot;&gt;Healthy loan?&lt;/font&gt;" style="rhombus;whiteSpace=wrap;html=1;fillColor=#e1d5e7;strokeColor=#9673a6;strokeWidth=2;fontSize=17;" parent="1" vertex="1">
          <mxGeometry x="-467" y="459.75" width="135" height="55" as="geometry" />
        </mxCell>
        <mxCell id="GjImz91DzN91tjrXtHh0-56" style="edgeStyle=orthogonalEdgeStyle;rounded=1;orthogonalLoop=1;jettySize=auto;html=1;entryX=1;entryY=0.5;entryDx=0;entryDy=0;labelBackgroundColor=#EEEEEE;strokeColor=#999900;strokeWidth=2;fontSize=17;" parent="1" source="GjImz91DzN91tjrXtHh0-57" target="GjImz91DzN91tjrXtHh0-55" edge="1">
          <mxGeometry relative="1" as="geometry" />
        </mxCell>
        <mxCell id="GjImz91DzN91tjrXtHh0-57" value="&lt;font style=&quot;font-size: 17px;&quot;&gt;Increase supply buffer&lt;/font&gt;" style="rounded=1;whiteSpace=wrap;html=1;fillColor=#FFFFFF;strokeColor=#6c8ebf;strokeWidth=2;fontSize=17;" parent="1" vertex="1">
          <mxGeometry x="-298.5" y="462.25" width="120" height="50" as="geometry" />
        </mxCell>
        <mxCell id="GjImz91DzN91tjrXtHh0-59" value="&lt;font style=&quot;font-size: 17px;&quot;&gt;Repay&lt;/font&gt;" style="rounded=1;whiteSpace=wrap;html=1;fillColor=#FFFFFF;strokeColor=#6c8ebf;strokeWidth=2;flipV=1;fontSize=17;" parent="1" vertex="1">
          <mxGeometry x="-555.5" y="528.38" width="120" height="30" as="geometry" />
        </mxCell>
        <mxCell id="GjImz91DzN91tjrXtHh0-60" style="edgeStyle=orthogonalEdgeStyle;rounded=1;orthogonalLoop=1;jettySize=auto;html=1;labelBackgroundColor=#EEEEEE;strokeColor=#B85450;strokeWidth=2;fontSize=17;exitX=0.5;exitY=1;exitDx=0;exitDy=0;entryX=0.5;entryY=0;entryDx=0;entryDy=0;" parent="1" edge="1" target="GjImz91DzN91tjrXtHh0-64" source="GjImz91DzN91tjrXtHh0-62">
          <mxGeometry relative="1" as="geometry">
            <Array as="points" />
            <mxPoint x="-402.5" y="657.75" as="sourcePoint" />
            <mxPoint x="-404" y="700" as="targetPoint" />
          </mxGeometry>
        </mxCell>
        <mxCell id="GjImz91DzN91tjrXtHh0-61" value="Yes" style="edgeLabel;html=1;align=center;verticalAlign=middle;resizable=0;points=[];fontSize=17;labelBackgroundColor=#EEEEEE;" parent="GjImz91DzN91tjrXtHh0-60" vertex="1" connectable="0">
          <mxGeometry x="-0.0667" y="2" relative="1" as="geometry">
            <mxPoint x="-2" y="-3" as="offset" />
          </mxGeometry>
        </mxCell>
        <mxCell id="GjImz91DzN91tjrXtHh0-62" value="&lt;font style=&quot;font-size: 17px;&quot;&gt;Loan still&lt;br style=&quot;font-size: 17px;&quot;&gt;unhealthy?&lt;/font&gt;" style="rhombus;whiteSpace=wrap;html=1;strokeWidth=2;fillColor=#e1d5e7;strokeColor=#9673a6;flipV=1;fontSize=17;" parent="1" vertex="1">
          <mxGeometry x="-473" y="547.76" width="145" height="60" as="geometry" />
        </mxCell>
        <mxCell id="GjImz91DzN91tjrXtHh0-63" style="edgeStyle=orthogonalEdgeStyle;rounded=1;orthogonalLoop=1;jettySize=auto;html=1;strokeColor=#B85450;strokeWidth=2;fontSize=17;exitX=0.514;exitY=0.004;exitDx=0;exitDy=0;exitPerimeter=0;entryX=0.5;entryY=0;entryDx=0;entryDy=0;" parent="1" source="GjImz91DzN91tjrXtHh0-64" target="GjImz91DzN91tjrXtHh0-98" edge="1">
          <mxGeometry relative="1" as="geometry">
            <Array as="points" />
            <mxPoint x="-404" y="800" as="targetPoint" />
          </mxGeometry>
        </mxCell>
        <mxCell id="GjImz91DzN91tjrXtHh0-64" value="&lt;font style=&quot;font-size: 17px;&quot;&gt;Repay with additional external funds&lt;/font&gt;" style="rounded=1;whiteSpace=wrap;html=1;strokeWidth=2;fillColor=#FFFFFF;strokeColor=#6c8ebf;flipV=1;fontSize=17;" parent="1" vertex="1">
          <mxGeometry x="-461.5" y="647" width="120" height="65" as="geometry" />
        </mxCell>
        <mxCell id="GjImz91DzN91tjrXtHh0-65" style="edgeStyle=orthogonalEdgeStyle;rounded=1;orthogonalLoop=1;jettySize=auto;html=1;strokeColor=#B85450;strokeWidth=2;fontSize=17;exitX=0.5;exitY=1;exitDx=0;exitDy=0;entryX=0.295;entryY=0.807;entryDx=0;entryDy=0;entryPerimeter=0;" parent="1" source="GjImz91DzN91tjrXtHh0-98" target="GjImz91DzN91tjrXtHh0-94" edge="1">
          <mxGeometry relative="1" as="geometry">
            <Array as="points">
              <mxPoint x="-400" y="790" />
              <mxPoint x="-281" y="790" />
            </Array>
            <mxPoint x="-263" y="927" as="targetPoint" />
          </mxGeometry>
        </mxCell>
        <mxCell id="GjImz91DzN91tjrXtHh0-66" value="" style="endArrow=classic;html=1;rounded=0;fontSize=17;exitX=0.5;exitY=1;exitDx=0;exitDy=0;entryX=0.5;entryY=0;entryDx=0;entryDy=0;strokeWidth=2;" parent="1" source="GjImz91DzN91tjrXtHh0-29" target="GjImz91DzN91tjrXtHh0-28" edge="1">
          <mxGeometry width="50" height="50" relative="1" as="geometry">
            <mxPoint x="-554" y="426" as="sourcePoint" />
            <mxPoint x="-732" y="286.75" as="targetPoint" />
          </mxGeometry>
        </mxCell>
        <mxCell id="GjImz91DzN91tjrXtHh0-67" style="edgeStyle=orthogonalEdgeStyle;rounded=1;orthogonalLoop=1;jettySize=auto;html=1;entryX=0;entryY=0.5;entryDx=0;entryDy=0;exitX=1;exitY=0.5;exitDx=0;exitDy=0;strokeWidth=2;fontSize=17;" parent="1" source="GjImz91DzN91tjrXtHh0-68" target="GjImz91DzN91tjrXtHh0-40" edge="1">
          <mxGeometry relative="1" as="geometry">
            <mxPoint x="-529" y="323.75" as="targetPoint" />
            <mxPoint x="-676.5" y="906.5" as="sourcePoint" />
            <Array as="points">
              <mxPoint x="-664" y="825" />
              <mxPoint x="-664" y="282" />
            </Array>
          </mxGeometry>
        </mxCell>
        <mxCell id="GjImz91DzN91tjrXtHh0-68" value="&lt;font style=&quot;font-size: 17px;&quot;&gt;TKN price restored&lt;/font&gt;" style="rounded=0;whiteSpace=wrap;html=1;fillColor=#FFFFFF;strokeColor=#82b366;strokeWidth=2;flipH=1;fontSize=17;" parent="1" vertex="1">
          <mxGeometry x="-792" y="804.75" width="112" height="40.25" as="geometry" />
        </mxCell>
        <mxCell id="GjImz91DzN91tjrXtHh0-69" style="edgeStyle=orthogonalEdgeStyle;rounded=1;orthogonalLoop=1;jettySize=auto;html=1;strokeColor=#d79b00;strokeWidth=2;fontSize=17;exitX=0;exitY=0.5;exitDx=0;exitDy=0;fillColor=#ffe6cc;" parent="1" source="GjImz91DzN91tjrXtHh0-71" target="GjImz91DzN91tjrXtHh0-74" edge="1">
          <mxGeometry relative="1" as="geometry">
            <Array as="points">
              <mxPoint x="-245" y="720" />
              <mxPoint x="-245" y="720" />
            </Array>
          </mxGeometry>
        </mxCell>
        <mxCell id="GjImz91DzN91tjrXtHh0-70" value="Yes" style="edgeLabel;html=1;align=center;verticalAlign=middle;resizable=0;points=[];fontSize=17;labelBackgroundColor=#EEEEEE;" parent="GjImz91DzN91tjrXtHh0-69" vertex="1" connectable="0">
          <mxGeometry x="-0.2196" y="1" relative="1" as="geometry">
            <mxPoint x="-1" y="2" as="offset" />
          </mxGeometry>
        </mxCell>
        <mxCell id="GjImz91DzN91tjrXtHh0-71" value="&lt;span style=&quot;font-size: 17px;&quot;&gt;Pool attractive&lt;br style=&quot;font-size: 17px;&quot;&gt;for borrow?&lt;/span&gt;" style="rhombus;whiteSpace=wrap;html=1;fillColor=#e1d5e7;strokeColor=#9673a6;strokeWidth=2;fontSize=17;" parent="1" vertex="1">
          <mxGeometry x="-245" y="560.38" width="180" height="74.75" as="geometry" />
        </mxCell>
        <mxCell id="GjImz91DzN91tjrXtHh0-72" value="&lt;font style=&quot;font-size: 17px;&quot;&gt;Repay&lt;/font&gt;" style="rounded=1;whiteSpace=wrap;html=1;fillColor=#FFFFFF;strokeColor=#6c8ebf;strokeWidth=2;fontSize=17;" parent="1" vertex="1">
          <mxGeometry x="-190" y="705.75" width="100" height="30" as="geometry" />
        </mxCell>
        <mxCell id="GjImz91DzN91tjrXtHh0-73" style="edgeStyle=orthogonalEdgeStyle;rounded=1;orthogonalLoop=1;jettySize=auto;html=1;strokeColor=#d79b00;strokeWidth=2;fontSize=17;exitX=0.577;exitY=0.967;exitDx=0;exitDy=0;fillColor=#ffe6cc;exitPerimeter=0;entryX=0.554;entryY=0.954;entryDx=0;entryDy=0;entryPerimeter=0;" parent="1" source="GjImz91DzN91tjrXtHh0-74" target="GjImz91DzN91tjrXtHh0-94" edge="1">
          <mxGeometry relative="1" as="geometry">
            <Array as="points" />
            <mxPoint x="-243" y="830" as="targetPoint" />
            <mxPoint x="-230.00000000000003" y="788.7500000000002" as="sourcePoint" />
          </mxGeometry>
        </mxCell>
        <mxCell id="GjImz91DzN91tjrXtHh0-74" value="&lt;font style=&quot;font-size: 17px;&quot;&gt;Borrow&lt;/font&gt;" style="rounded=1;whiteSpace=wrap;html=1;fillColor=#FFFFFF;strokeColor=#6c8ebf;strokeWidth=2;fontSize=17;" parent="1" vertex="1">
          <mxGeometry x="-301" y="705.75" width="101" height="30" as="geometry" />
        </mxCell>
        <mxCell id="GjImz91DzN91tjrXtHh0-75" style="edgeStyle=orthogonalEdgeStyle;rounded=1;orthogonalLoop=1;jettySize=auto;html=1;entryX=0.5;entryY=0;entryDx=0;entryDy=0;strokeWidth=2;fontSize=17;exitX=0.5;exitY=1;exitDx=0;exitDy=0;" parent="1" source="GjImz91DzN91tjrXtHh0-79" target="GjImz91DzN91tjrXtHh0-82" edge="1">
          <mxGeometry relative="1" as="geometry">
            <Array as="points">
              <mxPoint x="-400" y="323" />
            </Array>
            <mxPoint x="-280" y="312" as="sourcePoint" />
            <mxPoint x="-400" y="348.75" as="targetPoint" />
          </mxGeometry>
        </mxCell>
        <mxCell id="GjImz91DzN91tjrXtHh0-76" value="&lt;font style=&quot;font-size: 17px;&quot;&gt;Yes&lt;/font&gt;" style="edgeLabel;html=1;align=center;verticalAlign=middle;resizable=0;points=[];labelBackgroundColor=#EEEEEE;fontSize=17;" parent="GjImz91DzN91tjrXtHh0-75" vertex="1" connectable="0">
          <mxGeometry x="-0.0774" y="-4" relative="1" as="geometry">
            <mxPoint x="10" y="4" as="offset" />
          </mxGeometry>
        </mxCell>
        <mxCell id="GjImz91DzN91tjrXtHh0-77" style="edgeStyle=orthogonalEdgeStyle;rounded=1;orthogonalLoop=1;jettySize=auto;html=1;strokeWidth=2;fillColor=#a0522d;strokeColor=#6D1F00;fontSize=17;exitX=1;exitY=0.5;exitDx=0;exitDy=0;entryX=0;entryY=0.5;entryDx=0;entryDy=0;" parent="1" source="GjImz91DzN91tjrXtHh0-79" target="GjImz91DzN91tjrXtHh0-80" edge="1">
          <mxGeometry relative="1" as="geometry">
            <Array as="points" />
            <mxPoint x="-245" y="253.75" as="sourcePoint" />
            <mxPoint x="-170" y="241" as="targetPoint" />
          </mxGeometry>
        </mxCell>
        <mxCell id="GjImz91DzN91tjrXtHh0-78" value="No" style="edgeLabel;html=1;align=center;verticalAlign=middle;resizable=0;points=[];fontSize=17;labelBackgroundColor=#EEEEEE;" parent="GjImz91DzN91tjrXtHh0-77" vertex="1" connectable="0">
          <mxGeometry x="-0.0664" y="-2" relative="1" as="geometry">
            <mxPoint x="-2" y="-4" as="offset" />
          </mxGeometry>
        </mxCell>
        <mxCell id="GjImz91DzN91tjrXtHh0-79" value="&lt;span style=&quot;font-size: 17px;&quot;&gt;Pool attractive&lt;br style=&quot;font-size: 17px;&quot;&gt;for deposit?&lt;/span&gt;" style="rhombus;whiteSpace=wrap;html=1;fillColor=#e1d5e7;strokeColor=#9673a6;strokeWidth=2;fontSize=17;" parent="1" vertex="1">
          <mxGeometry x="-361.25" y="241" width="141.25" height="81.75" as="geometry" />
        </mxCell>
        <mxCell id="GjImz91DzN91tjrXtHh0-80" value="&lt;font style=&quot;font-size: 17px;&quot;&gt;Withdraw&lt;/font&gt;" style="rounded=1;whiteSpace=wrap;html=1;fillColor=#FFFFFF;strokeColor=#6c8ebf;strokeWidth=2;fontSize=17;" parent="1" vertex="1">
          <mxGeometry x="-160" y="264" width="90" height="36" as="geometry" />
        </mxCell>
        <mxCell id="GjImz91DzN91tjrXtHh0-81" style="edgeStyle=orthogonalEdgeStyle;rounded=1;orthogonalLoop=1;jettySize=auto;html=1;entryX=0.5;entryY=0;entryDx=0;entryDy=0;strokeColor=#000000;strokeWidth=2;fontSize=17;exitX=0.5;exitY=1;exitDx=0;exitDy=0;" parent="1" source="GjImz91DzN91tjrXtHh0-82" target="GjImz91DzN91tjrXtHh0-55" edge="1">
          <mxGeometry relative="1" as="geometry">
            <Array as="points">
              <mxPoint x="-400" y="450" />
            </Array>
          </mxGeometry>
        </mxCell>
        <mxCell id="GjImz91DzN91tjrXtHh0-82" value="&lt;font style=&quot;font-size: 17px;&quot;&gt;Deposit&lt;/font&gt;" style="rounded=1;whiteSpace=wrap;html=1;fillColor=#FFFFFF;strokeColor=#6c8ebf;strokeWidth=2;fontSize=17;" parent="1" vertex="1">
          <mxGeometry x="-460" y="357.75" width="120" height="30" as="geometry" />
        </mxCell>
        <mxCell id="qbL3iwwaMcubuq0pQ-Kw-2" style="edgeStyle=orthogonalEdgeStyle;rounded=1;orthogonalLoop=1;jettySize=auto;html=1;exitX=0.5;exitY=0;exitDx=0;exitDy=0;entryX=0.5;entryY=0;entryDx=0;entryDy=0;curved=0;strokeWidth=2;strokeColor=#006600;" edge="1" parent="1" source="GjImz91DzN91tjrXtHh0-84" target="GjImz91DzN91tjrXtHh0-26">
          <mxGeometry relative="1" as="geometry">
            <Array as="points">
              <mxPoint x="-398" y="170" />
              <mxPoint x="-640" y="170" />
            </Array>
          </mxGeometry>
        </mxCell>
        <mxCell id="GjImz91DzN91tjrXtHh0-84" value="&lt;font style=&quot;font-size: 17px;&quot;&gt;&lt;b style=&quot;font-size: 17px;&quot;&gt;Start&lt;/b&gt;&lt;/font&gt;" style="ellipse;whiteSpace=wrap;html=1;fillColor=#647687;fontColor=#ffffff;strokeColor=#314354;strokeWidth=2;fontSize=17;" parent="1" vertex="1">
          <mxGeometry x="-438.5" y="182" width="80" height="80" as="geometry" />
        </mxCell>
        <mxCell id="GjImz91DzN91tjrXtHh0-85" value="&lt;b style=&quot;font-size: 17px;&quot;&gt;&lt;i style=&quot;font-size: 17px;&quot;&gt;&lt;font style=&quot;font-size: 17px;&quot;&gt;ATTACK&lt;br style=&quot;font-size: 17px;&quot;&gt;SCENARIO&lt;/font&gt;&lt;/i&gt;&lt;/b&gt;" style="text;html=1;align=left;verticalAlign=middle;resizable=0;points=[];autosize=1;strokeColor=none;fillColor=none;fontSize=17;" parent="1" vertex="1">
          <mxGeometry x="-834" y="171.75" width="110" height="50" as="geometry" />
        </mxCell>
        <mxCell id="GjImz91DzN91tjrXtHh0-86" value="&lt;b style=&quot;&quot;&gt;&lt;i style=&quot;&quot;&gt;&lt;font style=&quot;font-size: 16px;&quot;&gt;LOAN&lt;br style=&quot;&quot;&gt;DEFAULT&lt;br style=&quot;&quot;&gt;SCENARIO&lt;/font&gt;&lt;/i&gt;&lt;/b&gt;" style="text;html=1;align=left;verticalAlign=middle;resizable=0;points=[];autosize=1;strokeColor=none;fillColor=none;fontSize=17;" parent="1" vertex="1">
          <mxGeometry x="-659" y="296.75" width="110" height="70" as="geometry" />
        </mxCell>
        <mxCell id="GjImz91DzN91tjrXtHh0-87" value="&lt;b style=&quot;font-size: 17px;&quot;&gt;&lt;i style=&quot;font-size: 17px;&quot;&gt;&lt;font style=&quot;font-size: 17px;&quot;&gt;ORDINARY SCENARIO&lt;/font&gt;&lt;/i&gt;&lt;/b&gt;" style="text;html=1;align=center;verticalAlign=middle;resizable=0;points=[];autosize=1;strokeColor=none;fillColor=none;fontSize=17;" parent="1" vertex="1">
          <mxGeometry x="-289" y="173.75" width="210" height="30" as="geometry" />
        </mxCell>
        <mxCell id="GjImz91DzN91tjrXtHh0-88" value="Protocol solvent&lt;div&gt;(&lt;svg style=&quot;vertical-align: -0.09ex;&quot; xmlns:xlink=&quot;http://www.w3.org/1999/xlink&quot; viewBox=&quot;0 -683 2721.6 723&quot; role=&quot;img&quot; height=&quot;1.636ex&quot; width=&quot;6.157ex&quot; xmlns=&quot;http://www.w3.org/2000/svg&quot;&gt;&lt;defs&gt;&lt;path d=&quot;M234 637Q231 637 226 637Q201 637 196 638T191 649Q191 676 202 682Q204 683 299 683Q376 683 387 683T401 677Q612 181 616 168L670 381Q723 592 723 606Q723 633 659 637Q635 637 635 648Q635 650 637 660Q641 676 643 679T653 683Q656 683 684 682T767 680Q817 680 843 681T873 682Q888 682 888 672Q888 650 880 642Q878 637 858 637Q787 633 769 597L620 7Q618 0 599 0Q585 0 582 2Q579 5 453 305L326 604L261 344Q196 88 196 79Q201 46 268 46H278Q284 41 284 38T282 19Q278 6 272 0H259Q228 2 151 2Q123 2 100 2T63 2T46 1Q31 1 31 10Q31 14 34 26T39 40Q41 46 62 46Q130 49 150 85Q154 91 221 362L289 634Q287 635 234 637Z&quot; id=&quot;MJX-11-TEX-I-1D441&quot;&gt;&lt;/path&gt;&lt;path d=&quot;M84 520Q84 528 88 533T96 539L99 540Q106 540 253 471T544 334L687 265Q694 260 694 250T687 235Q685 233 395 96L107 -40H101Q83 -38 83 -20Q83 -19 83 -17Q82 -10 98 -1Q117 9 248 71Q326 108 378 132L626 250L378 368Q90 504 86 509Q84 513 84 520Z&quot; id=&quot;MJX-11-TEX-N-3E&quot;&gt;&lt;/path&gt;&lt;path d=&quot;M96 585Q152 666 249 666Q297 666 345 640T423 548Q460 465 460 320Q460 165 417 83Q397 41 362 16T301 -15T250 -22Q224 -22 198 -16T137 16T82 83Q39 165 39 320Q39 494 96 585ZM321 597Q291 629 250 629Q208 629 178 597Q153 571 145 525T137 333Q137 175 145 125T181 46Q209 16 250 16Q290 16 318 46Q347 76 354 130T362 333Q362 478 354 524T321 597Z&quot; id=&quot;MJX-11-TEX-N-30&quot;&gt;&lt;/path&gt;&lt;/defs&gt;&lt;g transform=&quot;scale(1,-1)&quot; stroke-width=&quot;0&quot; fill=&quot;currentColor&quot; stroke=&quot;currentColor&quot;&gt;&lt;g data-mml-node=&quot;math&quot;&gt;&lt;g data-mml-node=&quot;mi&quot;&gt;&lt;use xlink:href=&quot;#MJX-11-TEX-I-1D441&quot; data-c=&quot;1D441&quot;&gt;&lt;/use&gt;&lt;/g&gt;&lt;g transform=&quot;translate(1165.8,0)&quot; data-mml-node=&quot;mo&quot;&gt;&lt;use xlink:href=&quot;#MJX-11-TEX-N-3E&quot; data-c=&quot;3E&quot;&gt;&lt;/use&gt;&lt;/g&gt;&lt;g transform=&quot;translate(2221.6,0)&quot; data-mml-node=&quot;mn&quot;&gt;&lt;use xlink:href=&quot;#MJX-11-TEX-N-30&quot; data-c=&quot;30&quot;&gt;&lt;/use&gt;&lt;/g&gt;&lt;/g&gt;&lt;/g&gt;&lt;/svg&gt;&lt;span style=&quot;background-color: transparent; color: light-dark(rgb(0, 0, 0), rgb(255, 255, 255));&quot;&gt;)?&lt;/span&gt;&lt;/div&gt;" style="rhombus;whiteSpace=wrap;html=1;strokeWidth=2;fillColor=#e1d5e7;strokeColor=#9673a6;flipV=1;fontSize=15;" parent="1" vertex="1">
          <mxGeometry x="-626" y="573" width="132" height="77.75" as="geometry" />
        </mxCell>
        <mxCell id="GjImz91DzN91tjrXtHh0-89" style="edgeStyle=orthogonalEdgeStyle;rounded=1;orthogonalLoop=1;jettySize=auto;html=1;exitX=0;exitY=0.5;exitDx=0;exitDy=0;strokeWidth=2;curved=0;strokeColor=#EA6B66;entryX=0.946;entryY=0.621;entryDx=0;entryDy=0;entryPerimeter=0;" parent="1" source="GjImz91DzN91tjrXtHh0-94" target="GjImz91DzN91tjrXtHh0-90" edge="1">
          <mxGeometry relative="1" as="geometry">
            <mxPoint x="-323.5" y="933" as="sourcePoint" />
            <mxPoint x="-520" y="915" as="targetPoint" />
            <Array as="points" />
          </mxGeometry>
        </mxCell>
        <mxCell id="GjImz91DzN91tjrXtHh0-90" value="&lt;font style=&quot;font-size: 17px;&quot;&gt;&lt;b style=&quot;font-size: 17px;&quot;&gt;End&lt;/b&gt;&lt;/font&gt;" style="ellipse;whiteSpace=wrap;html=1;fillColor=#647687;strokeColor=#314354;strokeWidth=2;fontColor=#ffffff;fontSize=17;" parent="1" vertex="1">
          <mxGeometry x="-602" y="780" width="80" height="80" as="geometry" />
        </mxCell>
        <mxCell id="GjImz91DzN91tjrXtHh0-91" style="edgeStyle=orthogonalEdgeStyle;rounded=1;orthogonalLoop=1;jettySize=auto;html=1;strokeWidth=2;strokeColor=#97D077;curved=0;exitX=0.5;exitY=1;exitDx=0;exitDy=0;" parent="1" edge="1" source="GjImz91DzN91tjrXtHh0-92">
          <mxGeometry relative="1" as="geometry">
            <mxPoint x="-560" y="780" as="targetPoint" />
            <Array as="points">
              <mxPoint x="-560" y="760" />
              <mxPoint x="-560" y="760" />
            </Array>
            <mxPoint x="-557" y="830" as="sourcePoint" />
          </mxGeometry>
        </mxCell>
        <mxCell id="GjImz91DzN91tjrXtHh0-92" value="Bankruptcy" style="rounded=0;whiteSpace=wrap;html=1;fillColor=#FFFFFF;strokeColor=#82b366;strokeWidth=2;flipH=1;fontSize=17;" parent="1" vertex="1">
          <mxGeometry x="-611" y="705.75" width="102" height="41.25" as="geometry" />
        </mxCell>
        <mxCell id="GjImz91DzN91tjrXtHh0-93" value="" style="edgeStyle=orthogonalEdgeStyle;rounded=1;orthogonalLoop=1;jettySize=auto;html=1;entryX=1;entryY=0;entryDx=0;entryDy=0;strokeColor=#9673a6;strokeWidth=2;fontSize=17;fillColor=#e1d5e7;exitX=0.346;exitY=1.008;exitDx=0;exitDy=0;exitPerimeter=0;" parent="1" source="GjImz91DzN91tjrXtHh0-72" target="GjImz91DzN91tjrXtHh0-94" edge="1">
          <mxGeometry relative="1" as="geometry">
            <Array as="points">
              <mxPoint x="-155" y="776" />
              <mxPoint x="-155" y="800" />
              <mxPoint x="-215" y="800" />
            </Array>
            <mxPoint x="-377" y="954.0000000000002" as="targetPoint" />
            <mxPoint x="-155" y="760" as="sourcePoint" />
          </mxGeometry>
        </mxCell>
        <mxCell id="GjImz91DzN91tjrXtHh0-94" value="Max step reached?" style="rhombus;whiteSpace=wrap;html=1;strokeWidth=2;fillColor=#e1d5e7;strokeColor=#9673a6;flipV=1;fontSize=17;" parent="1" vertex="1">
          <mxGeometry x="-323.5" y="801" width="145" height="60" as="geometry" />
        </mxCell>
        <mxCell id="GjImz91DzN91tjrXtHh0-95" style="rounded=1;orthogonalLoop=1;jettySize=auto;html=1;strokeWidth=2;strokeColor=#006600;fontSize=17;edgeStyle=orthogonalEdgeStyle;exitX=1;exitY=0.5;exitDx=0;exitDy=0;" parent="1" source="GjImz91DzN91tjrXtHh0-94" edge="1">
          <mxGeometry relative="1" as="geometry">
            <mxPoint x="-100" y="872" as="sourcePoint" />
            <mxPoint x="-360" y="200" as="targetPoint" />
            <Array as="points">
              <mxPoint x="-30" y="831" />
              <mxPoint x="-30" y="200" />
            </Array>
          </mxGeometry>
        </mxCell>
        <mxCell id="GjImz91DzN91tjrXtHh0-96" value="" style="edgeStyle=orthogonalEdgeStyle;rounded=1;orthogonalLoop=1;jettySize=auto;html=1;strokeColor=#B09500;strokeWidth=2;fontSize=17;exitX=1;exitY=0.5;exitDx=0;exitDy=0;fillColor=#e3c800;entryX=0.445;entryY=0.957;entryDx=0;entryDy=0;entryPerimeter=0;" parent="1" source="GjImz91DzN91tjrXtHh0-62" target="GjImz91DzN91tjrXtHh0-94" edge="1">
          <mxGeometry relative="1" as="geometry">
            <Array as="points">
              <mxPoint x="-308" y="578" />
              <mxPoint x="-308" y="780" />
              <mxPoint x="-259" y="780" />
            </Array>
            <mxPoint x="-257" y="910" as="targetPoint" />
            <mxPoint x="-329" y="627.76" as="sourcePoint" />
          </mxGeometry>
        </mxCell>
        <mxCell id="GjImz91DzN91tjrXtHh0-97" value="No" style="edgeLabel;html=1;align=center;verticalAlign=middle;resizable=0;points=[];fontSize=17;labelBackgroundColor=#EEEEEE;" parent="GjImz91DzN91tjrXtHh0-96" vertex="1" connectable="0">
          <mxGeometry x="-0.4149" relative="1" as="geometry">
            <mxPoint x="1" y="-17" as="offset" />
          </mxGeometry>
        </mxCell>
        <mxCell id="GjImz91DzN91tjrXtHh0-98" value="&lt;font style=&quot;font-size: 17px;&quot;&gt;Increase borrow buffer&lt;/font&gt;" style="rounded=1;whiteSpace=wrap;html=1;strokeWidth=2;fillColor=#FFFFFF;strokeColor=#6c8ebf;flipV=1;fontSize=17;" parent="1" vertex="1">
          <mxGeometry x="-460" y="731" width="120" height="50" as="geometry" />
        </mxCell>
        <mxCell id="GjImz91DzN91tjrXtHh0-99" value="" style="edgeStyle=orthogonalEdgeStyle;rounded=1;orthogonalLoop=1;jettySize=auto;html=1;strokeColor=#9673a6;strokeWidth=2;fontSize=17;fillColor=#e1d5e7;exitX=0.5;exitY=1;exitDx=0;exitDy=0;entryX=0.353;entryY=0.031;entryDx=0;entryDy=0;entryPerimeter=0;" parent="1" source="GjImz91DzN91tjrXtHh0-71" edge="1" target="GjImz91DzN91tjrXtHh0-72">
          <mxGeometry relative="1" as="geometry">
            <Array as="points" />
            <mxPoint x="-155" y="730" as="targetPoint" />
            <mxPoint x="-105" y="691.13" as="sourcePoint" />
          </mxGeometry>
        </mxCell>
        <mxCell id="GjImz91DzN91tjrXtHh0-100" style="edgeStyle=orthogonalEdgeStyle;rounded=1;orthogonalLoop=1;jettySize=auto;html=1;curved=0;strokeColor=#97D077;strokeWidth=2;exitX=0.5;exitY=1;exitDx=0;exitDy=0;entryX=0.5;entryY=0;entryDx=0;entryDy=0;" parent="1" source="GjImz91DzN91tjrXtHh0-88" edge="1" target="GjImz91DzN91tjrXtHh0-92">
          <mxGeometry relative="1" as="geometry">
            <mxPoint x="-563" y="730" as="targetPoint" />
            <mxPoint x="-557" y="700" as="sourcePoint" />
            <Array as="points">
              <mxPoint x="-560" y="690" />
              <mxPoint x="-560" y="690" />
            </Array>
          </mxGeometry>
        </mxCell>
        <mxCell id="GjImz91DzN91tjrXtHh0-101" value="" style="edgeStyle=orthogonalEdgeStyle;orthogonalLoop=1;jettySize=auto;html=1;rounded=1;entryX=0.204;entryY=0.725;entryDx=0;entryDy=0;entryPerimeter=0;strokeWidth=2;exitX=1;exitY=0.5;exitDx=0;exitDy=0;strokeColor=#00994D;" parent="1" source="GjImz91DzN91tjrXtHh0-88" target="GjImz91DzN91tjrXtHh0-94" edge="1">
          <mxGeometry width="80" relative="1" as="geometry">
            <mxPoint x="-490" y="650" as="sourcePoint" />
            <mxPoint x="-404" y="627.3" as="targetPoint" />
            <Array as="points">
              <mxPoint x="-494" y="800" />
              <mxPoint x="-294" y="800" />
            </Array>
          </mxGeometry>
        </mxCell>
        <mxCell id="GjImz91DzN91tjrXtHh0-102" style="edgeStyle=orthogonalEdgeStyle;rounded=1;orthogonalLoop=1;jettySize=auto;html=1;strokeColor=#005700;strokeWidth=2;fontSize=17;fillColor=#008a00;exitX=0;exitY=0.5;exitDx=0;exitDy=0;entryX=0.402;entryY=0.979;entryDx=0;entryDy=0;entryPerimeter=0;" parent="1" source="GjImz91DzN91tjrXtHh0-55" edge="1" target="GjImz91DzN91tjrXtHh0-59">
          <mxGeometry relative="1" as="geometry">
            <Array as="points">
              <mxPoint x="-507" y="487" />
            </Array>
            <mxPoint x="-560.5" y="504.75" as="sourcePoint" />
            <mxPoint x="-507" y="520" as="targetPoint" />
          </mxGeometry>
        </mxCell>
        <mxCell id="GjImz91DzN91tjrXtHh0-103" value="No" style="edgeLabel;html=1;align=center;verticalAlign=middle;resizable=0;points=[];fontSize=17;labelBackgroundColor=#EEEEEE;" parent="1" vertex="1" connectable="0">
          <mxGeometry x="-287.99950600915304" y="675.5028538136189" as="geometry">
            <mxPoint x="-274" y="-1" as="offset" />
          </mxGeometry>
        </mxCell>
        <mxCell id="GjImz91DzN91tjrXtHh0-104" value="Yes" style="edgeLabel;html=1;align=center;verticalAlign=middle;resizable=0;points=[];fontSize=17;labelBackgroundColor=#EEEEEE;" parent="1" vertex="1" connectable="0">
          <mxGeometry x="-211.75443877519754" y="531.7542857142857" as="geometry">
            <mxPoint x="-287" y="131" as="offset" />
          </mxGeometry>
        </mxCell>
        <mxCell id="GjImz91DzN91tjrXtHh0-106" value="&lt;font style=&quot;font-size: 17px;&quot;&gt;Yes&lt;/font&gt;" style="text;html=1;align=center;verticalAlign=middle;resizable=0;points=[];autosize=1;strokeColor=none;fillColor=#EEEEEE;" parent="1" vertex="1">
          <mxGeometry x="-423.5" y="815" width="50" height="30" as="geometry" />
        </mxCell>
        <mxCell id="GjImz91DzN91tjrXtHh0-107" value="No" style="edgeLabel;html=1;align=center;verticalAlign=middle;resizable=0;points=[];fontSize=17;labelBackgroundColor=#EEEEEE;" parent="1" vertex="1" connectable="0">
          <mxGeometry x="-352" y="659.9998757766973" as="geometry">
            <mxPoint x="195" y="3" as="offset" />
          </mxGeometry>
        </mxCell>
        <mxCell id="GjImz91DzN91tjrXtHh0-108" value="No" style="edgeLabel;html=1;align=center;verticalAlign=middle;resizable=0;points=[];fontSize=17;labelBackgroundColor=#EEEEEE;" parent="1" vertex="1" connectable="0">
          <mxGeometry x="-288.9981449977269" y="587.758842756527" as="geometry">
            <mxPoint x="-221" y="-87" as="offset" />
          </mxGeometry>
        </mxCell>
        <mxCell id="qbL3iwwaMcubuq0pQ-Kw-9" style="edgeStyle=orthogonalEdgeStyle;rounded=1;orthogonalLoop=1;jettySize=auto;html=1;strokeColor=#005700;strokeWidth=2;fontSize=17;fillColor=#008a00;entryX=0;entryY=0.5;entryDx=0;entryDy=0;exitX=0.401;exitY=0.013;exitDx=0;exitDy=0;exitPerimeter=0;" edge="1" parent="1" source="GjImz91DzN91tjrXtHh0-59" target="GjImz91DzN91tjrXtHh0-62">
          <mxGeometry relative="1" as="geometry">
            <Array as="points">
              <mxPoint x="-507" y="578" />
            </Array>
            <mxPoint x="-508" y="560" as="sourcePoint" />
            <mxPoint x="-509" y="617.26" as="targetPoint" />
          </mxGeometry>
        </mxCell>
        <mxCell id="qbL3iwwaMcubuq0pQ-Kw-11" value="&lt;font style=&quot;font-size: 17px;&quot;&gt;No&lt;/font&gt;" style="text;html=1;align=center;verticalAlign=middle;resizable=0;points=[];autosize=1;strokeColor=none;fillColor=#EEEEEE;" vertex="1" parent="1">
          <mxGeometry x="-129" y="816" width="50" height="30" as="geometry" />
        </mxCell>
      </root>
    </mxGraphModel>
  </diagram>
</mxfile>
